KSW-Font.glyphspackage
{
glyphname = exclam;
layers = (
{
background = {
shapes = (
{
closed = 1;
nodes = (
(122,0,l),
(172,0,l),
(172,49,l),
(122,49,l)
);
}
);
};
layerId = "57B79CA8-97D8-4C58-BF53-6BAB6214BDE2";
shapes = (
{
closed = 1;
nodes = (
(102,157,l),
(120,157,l),
(123,704,l),
(99,704,l)
);
},
{
pos = (55,0);
ref = period;
}
);
width = 226;
},
{
background = {
shapes = (
{
closed = 1;
nodes = (
(159,281,l),
(349,281,l),
(375,755,l),
(133,755,l)
);
},
{
closed = 1;
nodes = (
(144,0,l),
(364,0,l),
(364,212,l),
(144,212,l)
);
}
);
};
layerId = "A69CC389-2ECF-459C-A4E4-3168912CA6B4";
shapes = (
{
closed = 1;
nodes = (
(133,281,l),
(323,281,l),
(349,755,l),
(107,755,l)
);
},
{
pos = (68,0);
ref = period;
}
);
width = 455;
},
{
background = {
shapes = (
{
closed = 1;
nodes = (
(85,0,l),
(199,0,l),
(199,695,l),
(85,695,l)
);
},
{
closed = 1;
nodes = (
(526,0,l),
(640,0,l),
(640,695,l),
(526,695,l)
);
},
{
closed = 1;
nodes = (
(179,307,l),
(553,307,l),
(553,395,l),
(179,395,l)
);
}
);
};
layerId = "4D0F633C-81E1-4D6C-A640-637CE706A5C5";
shapes = (
{
closed = 1;
nodes = (
(110,210,l),
(205,210,l),
(218,695,l),
(97,695,l)
);
},
{
pos = (40,0);
ref = period;
}
);
width = 321;
},
{
background = {
shapes = (
{
closed = 1;
nodes = (
(122,0,l),
(172,0,l),
(172,49,l),
(122,49,l)
);
}
);
};
layerId = "A74DA284-3E8B-4DB3-928B-2F0253F1CAB3";
shapes = (
{
closed = 1;
nodes = (
(82,157,l),
(100,157,l),
(200,704,l),
(176,704,l)
);
},
{
pos = (55,0);
ref = period;
}
);
width = 226;
},
{
background = {
shapes = (
{
closed = 1;
nodes = (
(85,0,l),
(199,0,l),
(199,695,l),
(85,695,l)
);
},
{
closed = 1;
nodes = (
(526,0,l),
(640,0,l),
(640,695,l),
(526,695,l)
);
},
{
closed = 1;
nodes = (
(179,307,l),
(553,307,l),
(553,395,l),
(179,395,l)
);
}
);
};
layerId = "ED744E86-D388-498D-94EB-FEBBBDC8F1CA";
shapes = (
{
closed = 1;
nodes = (
(95,210,l),
(190,210,l),
(289,695,l),
(168,695,l)
);
},
{
pos = (40,0);
ref = period;
}
);
width = 321;
},
{
background = {
shapes = (
{
closed = 1;
nodes = (
(159,281,l),
(349,281,l),
(375,755,l),
(133,755,l)
);
},
{
closed = 1;
nodes = (
(144,0,l),
(364,0,l),
(364,212,l),
(144,212,l)
);
}
);
};
layerId = "15935870-0A58-425A-9765-D144975D2C89";
shapes = (
{
closed = 1;
nodes = (
(133,281,l),
(323,281,l),
(432,755,l),
(190,755,l)
);
},
{
pos = (68,0);
ref = period;
}
);
width = 455;
}
);
unicode = 33;
userData = {
com.schriftgestaltung.Glyphs.ColorIndex = 3;
};
}
{
glyphname = quotedbl;
layers = (
{
layerId = "57B79CA8-97D8-4C58-BF53-6BAB6214BDE2";
shapes = (
{
closed = 1;
nodes = (
(48,614,l),
(64,614,l),
(71,793,l),
(40,793,l)
);
},
{
closed = 1;
nodes = (
(133,614,l),
(149,614,l),
(156,793,l),
(125,793,l)
);
}
);
width = 196;
},
{
layerId = "A69CC389-2ECF-459C-A4E4-3168912CA6B4";
shapes = (
{
closed = 1;
nodes = (
(59,568,l),
(207,568,l),
(220,803,l),
(45,803,l)
);
},
{
closed = 1;
nodes = (
(284,568,l),
(432,568,l),
(445,803,l),
(270,803,l)
);
}
);
width = 490;
},
{
layerId = "4D0F633C-81E1-4D6C-A640-637CE706A5C5";
shapes = (
{
closed = 1;
nodes = (
(47,592,l),
(125,592,l),
(137,797,l),
(34,797,l)
);
},
{
closed = 1;
nodes = (
(198,592,l),
(276,592,l),
(288,797,l),
(185,797,l)
);
}
);
width = 323;
},
{
layerId = "A74DA284-3E8B-4DB3-928B-2F0253F1CAB3";
shapes = (
{
closed = 1;
nodes = (
(109,614,l),
(125,614,l),
(163,793,l),
(132,793,l)
);
},
{
closed = 1;
nodes = (
(194,614,l),
(210,614,l),
(248,793,l),
(217,793,l)
);
}
);
width = 196;
},
{
layerId = "ED744E86-D388-498D-94EB-FEBBBDC8F1CA";
shapes = (
{
closed = 1;
nodes = (
(100,592,l),
(178,592,l),
(226,797,l),
(123,797,l)
);
},
{
closed = 1;
nodes = (
(251,592,l),
(329,592,l),
(377,797,l),
(274,797,l)
);
}
);
width = 323;
},
{
layerId = "15935870-0A58-425A-9765-D144975D2C89";
shapes = (
{
closed = 1;
nodes = (
(109,568,l),
(257,568,l),
(312,803,l),
(137,803,l)
);
},
{
closed = 1;
nodes = (
(334,568,l),
(482,568,l),
(537,803,l),
(362,803,l)
);
}
);
width = 490;
}
);
unicode = 34;
userData = {
com.schriftgestaltung.Glyphs.ColorIndex = 4;
};
}
{
glyphname = numbersign;
layers = (
{
layerId = "57B79CA8-97D8-4C58-BF53-6BAB6214BDE2";
shapes = (
{
closed = 1;
nodes = (
(150,0,l),
(170,0,l),
(328,740,l),
(308,740,l)
);
},
{
closed = 1;
nodes = (
(421,0,l),
(441,0,l),
(599,740,l),
(579,740,l)
);
},
{
closed = 1;
nodes = (
(40,248,l),
(653,248,l),
(653,266,l),
(40,266,l)
);
},
{
closed = 1;
nodes = (
(90,465,l),
(703,465,l),
(703,483,l),
(90,483,l)
);
}
);
width = 743;
},
{
layerId = "A69CC389-2ECF-459C-A4E4-3168912CA6B4";
shapes = (
{
closed = 1;
nodes = (
(125,0,l),
(330,0,l),
(488,740,l),
(283,740,l)
);
},
{
closed = 1;
nodes = (
(469,0,l),
(675,0,l),
(833,740,l),
(627,740,l)
);
},
{
closed = 1;
nodes = (
(10,124,l),
(855,124,l),
(855,326,l),
(10,326,l)
);
},
{
closed = 1;
nodes = (
(78,421,l),
(923,421,l),
(923,623,l),
(78,623,l)
);
}
);
width = 933;
},
{
layerId = "4D0F633C-81E1-4D6C-A640-637CE706A5C5";
shapes = (
{
closed = 1;
nodes = (
(146,0,l),
(255,0,l),
(413,740,l),
(304,740,l)
);
},
{
closed = 1;
nodes = (
(451,0,l),
(560,0,l),
(718,740,l),
(609,740,l)
);
},
{
closed = 1;
nodes = (
(31,185,l),
(753,185,l),
(753,285,l),
(31,285,l)
);
},
{
closed = 1;
nodes = (
(90,458,l),
(812,458,l),
(812,558,l),
(90,558,l)
);
}
);
width = 872;
},
{
layerId = "A74DA284-3E8B-4DB3-928B-2F0253F1CAB3";
shapes = (
{
closed = 1;
nodes = (
(102,0,l),
(122,0,l),
(411,740,l),
(391,740,l)
);
},
{
closed = 1;
nodes = (
(373,0,l),
(393,0,l),
(682,740,l),
(662,740,l)
);
},
{
closed = 1;
nodes = (
(36,248,l),
(649,248,l),
(652,266,l),
(39,266,l)
);
},
{
closed = 1;
nodes = (
(124,465,l),
(737,465,l),
(741,483,l),
(128,483,l)
);
}
);
width = 743;
},
{
layerId = "ED744E86-D388-498D-94EB-FEBBBDC8F1CA";
shapes = (
{
closed = 1;
nodes = (
(94,0,l),
(203,0,l),
(492,740,l),
(383,740,l)
);
},
{
closed = 1;
nodes = (
(399,0,l),
(508,0,l),
(797,740,l),
(688,740,l)
);
},
{
closed = 1;
nodes = (
(12,185,l),
(734,185,l),
(752,285,l),
(30,285,l)
);
},
{
closed = 1;
nodes = (
(119,458,l),
(841,458,l),
(859,558,l),
(137,558,l)
);
}
);
width = 872;
},
{
layerId = "15935870-0A58-425A-9765-D144975D2C89";
shapes = (
{
closed = 1;
nodes = (
(75,0,l),
(280,0,l),
(569,740,l),
(364,740,l)
);
},
{
closed = 1;
nodes = (
(419,0,l),
(625,0,l),
(914,740,l),
(708,740,l)
);
},
{
closed = 1;
nodes = (
(-18,124,l),
(827,124,l),
(863,326,l),
(18,326,l)
);
},
{
closed = 1;
nodes = (
(103,421,l),
(948,421,l),
(983,623,l),
(138,623,l)
);
}
);
width = 933;
}
);
unicode = 35;
userData = {
com.schriftgestaltung.Glyphs.ColorIndex = 3;
};
}
{
glyphname = dollar;
layers = (
{
layerId = "57B79CA8-97D8-4C58-BF53-6BAB6214BDE2";
shapes = (
{
closed = 1;
nodes = (
(258,-87,l),
(278,-87,l),
(278,800,l),
(258,800,l)
);
},
{
closed = 1;
nodes = (
(80,543,cs),
(80,640,o),
(149,693,o),
(250,693,c),
(375,693,o),
(427,609,o),
(439,559,c),
(459,559,l),
(444,627,o),
(382,711,o),
(250,711,c),
(123,711,o),
(60,635,o),
(60,543,cs),
(60,282,o),
(456,421,o),
(456,169,cs),
(456,84,o),
(401,11,o),
(285,11,cs),
(147,11,o),
(91,111,o),
(83,169,c),
(63,169,l),
(73,80,o),
(154,-7,o),
(285,-7,cs),
(425,-7,o),
(476,88,o),
(476,169,cs),
(476,441,o),
(80,300,o)
);
}
);
width = 536;
},
{
layerId = "A69CC389-2ECF-459C-A4E4-3168912CA6B4";
shapes = (
{
closed = 1;
nodes = (
(299,-87,l),
(361,-87,l),
(361,800,l),
(299,800,l)
);
},
{
closed = 1;
nodes = (
(268,514,c),
(268,540,o),
(286,552,o),
(320,552,cs),
(350,552,o),
(381,544,o),
(386,491,c),
(625,491,l),
(615,641,o),
(501,720,o),
(321,720,cs),
(166,720,o),
(30,646,o),
(30,504,c),
(30,243,o),
(400,302,o),
(400,204,c),
(400,175,o),
(376,161,o),
(345,161,c),
(305,161,o),
(272,175,o),
(268,227,c),
(32,227,l),
(42,68,o),
(178,-7,o),
(351,-7,cs),
(535,-7,o),
(637,89,o),
(637,209,cs),
(637,459,o),
(268,409,o)
);
}
);
width = 665;
},
{
layerId = "4D0F633C-81E1-4D6C-A640-637CE706A5C5";
shapes = (
{
closed = 1;
nodes = (
(270,-87,l),
(335,-87,l),
(335,784,l),
(270,784,l)
);
},
{
closed = 1;
nodes = (
(176,508,cs),
(176,579,o),
(229,611,o),
(297,611,cs),
(368,611,o),
(410,567,o),
(415,517,c),
(537,517,l),
(527,640,o),
(435,704,o),
(303,704,cs),
(161,704,o),
(60,624,o),
(60,502,cs),
(60,243,o),
(429,365,o),
(429,192,cs),
(429,131,o),
(383,85,o),
(303,85,cs),
(224,85,o),
(187,126,o),
(182,185,c),
(60,185,l),
(60,62,o),
(164,-7,o),
(303,-7,cs),
(458,-7,o),
(544,94,o),
(544,198,cs),
(544,456,o),
(176,332,o)
);
}
);
width = 650;
},
{
layerId = "A74DA284-3E8B-4DB3-928B-2F0253F1CAB3";
shapes = (
{
closed = 1;
nodes = (
(195,-87,l),
(215,-87,l),
(371,800,l),
(351,800,l)
);
},
{
closed = 1;
nodes = (
(128,543,cs),
(145,640,o),
(224,693,o),
(325,693,c),
(450,693,o),
(487,609,o),
(490,559,c),
(510,559,l),
(507,627,o),
(460,711,o),
(328,711,c),
(201,711,o),
(124,635,o),
(108,543,cs),
(62,282,o),
(483,421,o),
(438,169,cs),
(423,84,o),
(355,11,o),
(239,11,cs),
(101,11,o),
(63,111,o),
(65,169,c),
(45,169,l),
(39,80,o),
(105,-7,o),
(236,-7,cs),
(376,-7,o),
(444,88,o),
(458,169,cs),
(506,441,o),
(85,300,o)
);
}
);
width = 536;
},
{
layerId = "ED744E86-D388-498D-94EB-FEBBBDC8F1CA";
shapes = (
{
closed = 1;
nodes = (
(204,-87,l),
(269,-87,l),
(423,784,l),
(358,784,l)
);
},
{
closed = 1;
nodes = (
(214,508,cs),
(226,579,o),
(285,611,o),
(353,611,cs),
(424,611,o),
(458,567,o),
(454,517,c),
(576,517,l),
(588,640,o),
(507,704,o),
(375,704,cs),
(233,704,o),
(118,624,o),
(97,502,cs),
(51,243,o),
(442,365,o),
(411,192,cs),
(400,131,o),
(346,85,o),
(266,85,cs),
(187,85,o),
(158,126,o),
(163,185,c),
(41,185,l),
(19,62,o),
(111,-7,o),
(250,-7,cs),
(405,-7,o),
(509,94,o),
(527,198,cs),
(573,456,o),
(183,332,o)
);
}
);
width = 650;
},
{
layerId = "15935870-0A58-425A-9765-D144975D2C89";
shapes = (
{
closed = 1;
nodes = (
(234,-87,l),
(296,-87,l),
(452,800,l),
(390,800,l)
);
},
{
closed = 1;
nodes = (
(309,514,c),
(313,540,o),
(334,552,o),
(368,552,cs),
(398,552,o),
(427,544,o),
(423,491,c),
(662,491,l),
(678,641,o),
(578,720,o),
(398,720,cs),
(243,720,o),
(94,646,o),
(69,504,c),
(23,243,o),
(404,302,o),
(386,204,c),
(381,175,o),
(355,161,o),
(324,161,c),
(284,161,o),
(253,175,o),
(258,227,c),
(22,227,l),
(4,68,o),
(127,-7,o),
(300,-7,cs),
(484,-7,o),
(603,89,o),
(624,209,cs),
(668,459,o),
(290,409,o)
);
}
);
width = 665;
}
);
unicode = 36;
userData = {
com.schriftgestaltung.Glyphs.ColorIndex = 4;
};
}
{
glyphname = percent;
layers = (
{
layerId = "57B79CA8-97D8-4C58-BF53-6BAB6214BDE2";
shapes = (
{
closed = 1;
nodes = (
(44,582,c),
(44,508,o),
(98,453,o),
(171,453,c),
(244,453,o),
(298,508,o),
(298,582,c),
(298,656,o),
(244,711,o),
(171,711,c),
(98,711,o),
(44,656,o)
);
},
{
closed = 1;
nodes = (
(171,693,c),
(234,693,o),
(278,646,o),
(278,582,c),
(278,518,o),
(234,471,o),
(171,471,c),
(108,471,o),
(64,518,o),
(64,582,c),
(64,646,o),
(108,693,o)
);
},
{
closed = 1;
nodes = (
(101,0,l),
(124,0,l),
(547,704,l),
(524,704,l)
);
},
{
closed = 1;
nodes = (
(351,121,c),
(351,47,o),
(405,-8,o),
(478,-8,c),
(551,-8,o),
(605,47,o),
(605,121,c),
(605,195,o),
(551,250,o),
(478,250,c),
(405,250,o),
(351,195,o)
);
},
{
closed = 1;
nodes = (
(478,232,c),
(541,232,o),
(585,185,o),
(585,121,c),
(585,57,o),
(541,10,o),
(478,10,c),
(415,10,o),
(371,57,o),
(371,121,c),
(371,185,o),
(415,232,o)
);
}
);
width = 649;
},
{
layerId = "A69CC389-2ECF-459C-A4E4-3168912CA6B4";
shapes = (
{
closed = 1;
nodes = (
(21,540,cs),
(21,419,o),
(99,360,o),
(202,360,cs),
(304,360,o),
(381,419,o),
(381,540,cs),
(381,662,o),
(304,721,o),
(202,721,cs),
(99,721,o),
(21,662,o)
);
},
{
closed = 1;
nodes = (
(200,592,cs),
(223,592,o),
(237,575,o),
(237,540,cs),
(237,506,o),
(223,489,o),
(200,489,cs),
(178,489,o),
(166,506,o),
(166,540,cs),
(166,575,o),
(178,592,o)
);
},
{
closed = 1;
nodes = (
(177,0,l),
(389,0,l),
(762,711,l),
(550,711,l)
);
},
{
closed = 1;
nodes = (
(558,171,cs),
(558,49,o),
(636,-10,o),
(738,-10,cs),
(841,-10,o),
(917,49,o),
(917,171,cs),
(917,293,o),
(841,352,o),
(738,352,cs),
(636,352,o),
(558,293,o)
);
},
{
closed = 1;
nodes = (
(737,223,cs),
(759,223,o),
(773,205,o),
(773,171,cs),
(773,136,o),
(759,119,o),
(737,119,cs),
(714,119,o),
(702,136,o),
(702,171,cs),
(702,205,o),
(714,223,o)
);
}
);
width = 938;
},
{
layerId = "4D0F633C-81E1-4D6C-A640-637CE706A5C5";
shapes = (
{
closed = 1;
nodes = (
(42,553,cs),
(42,453,o),
(107,396,o),
(194,396,cs),
(281,396,o),
(346,453,o),
(346,553,cs),
(346,652,o),
(281,709,o),
(194,709,cs),
(107,709,o),
(42,652,o)
);
},
{
closed = 1;
nodes = (
(194,640,cs),
(232,640,o),
(257,615,o),
(257,553,cs),
(257,491,o),
(232,465,o),
(194,465,cs),
(155,465,o),
(131,491,o),
(131,553,cs),
(131,615,o),
(155,640,o)
);
},
{
closed = 1;
nodes = (
(141,0,l),
(253,0,l),
(652,696,l),
(540,696,l)
);
},
{
closed = 1;
nodes = (
(449,144,cs),
(449,44,o),
(514,-13,o),
(601,-13,cs),
(687,-13,o),
(752,44,o),
(752,144,cs),
(752,244,o),
(687,300,o),
(601,300,cs),
(514,300,o),
(449,244,o)
);
},
{
closed = 1;
nodes = (
(600,231,cs),
(638,231,o),
(663,206,o),
(663,144,cs),
(663,82,o),
(638,57,o),
(600,57,cs),
(562,57,o),
(537,82,o),
(537,144,cs),
(537,206,o),
(562,231,o)
);
}
);
width = 794;
},
{
layerId = "A74DA284-3E8B-4DB3-928B-2F0253F1CAB3";
shapes = (
{
closed = 1;
nodes = (
(95,582,c),
(82,508,o),
(126,453,o),
(199,453,c),
(272,453,o),
(336,508,o),
(349,582,c),
(362,656,o),
(318,711,o),
(245,711,c),
(172,711,o),
(108,656,o)
);
},
{
closed = 1;
nodes = (
(242,693,c),
(305,693,o),
(340,646,o),
(329,582,c),
(318,518,o),
(265,471,o),
(202,471,c),
(139,471,o),
(104,518,o),
(115,582,c),
(126,646,o),
(179,693,o)
);
},
{
closed = 1;
nodes = (
(-7,0,l),
(16,0,l),
(564,704,l),
(541,704,l)
);
},
{
closed = 1;
nodes = (
(209,121,c),
(196,47,o),
(240,-8,o),
(313,-8,c),
(386,-8,o),
(450,47,o),
(463,121,c),
(476,195,o),
(431,250,o),
(358,250,c),
(285,250,o),
(222,195,o)
);
},
{
closed = 1;
nodes = (
(355,232,c),
(418,232,o),
(454,185,o),
(443,121,c),
(431,57,o),
(379,10,o),
(316,10,c),
(253,10,o),
(217,57,o),
(229,121,c),
(240,185,o),
(292,232,o)
);
}
);
width = 529;
},
{
layerId = "ED744E86-D388-498D-94EB-FEBBBDC8F1CA";
shapes = (
{
closed = 1;
nodes = (
(87,553,cs),
(70,456,o),
(125,399,o),
(212,399,cs),
(299,399,o),
(374,456,o),
(391,553,cs),
(408,649,o),
(353,706,o),
(266,706,cs),
(179,706,o),
(104,649,o)
);
},
{
closed = 1;
nodes = (
(254,637,cs),
(292,637,o),
(312,612,o),
(302,553,cs),
(291,494,o),
(262,468,o),
(224,468,cs),
(185,468,o),
(165,494,o),
(176,553,cs),
(186,612,o),
(215,637,o)
);
},
{
closed = 1;
nodes = (
(53,0,l),
(165,0,l),
(687,696,l),
(575,696,l)
);
},
{
closed = 1;
nodes = (
(352,144,cs),
(335,47,o),
(390,-10,o),
(477,-10,cs),
(563,-10,o),
(638,47,o),
(655,144,cs),
(672,241,o),
(617,297,o),
(531,297,cs),
(444,297,o),
(369,241,o)
);
},
{
closed = 1;
nodes = (
(518,228,cs),
(556,228,o),
(576,203,o),
(566,144,cs),
(555,85,o),
(526,60,o),
(488,60,cs),
(450,60,o),
(429,85,o),
(440,144,cs),
(450,203,o),
(480,228,o)
);
}
);
width = 722;
},
{
layerId = "15935870-0A58-425A-9765-D144975D2C89";
shapes = (
{
closed = 1;
nodes = (
(65,540,cs),
(44,419,o),
(112,360,o),
(215,360,cs),
(317,360,o),
(404,419,o),
(425,540,cs),
(447,662,o),
(380,721,o),
(278,721,cs),
(175,721,o),
(87,662,o)
);
},
{
closed = 1;
nodes = (
(254,592,cs),
(277,592,o),
(288,575,o),
(281,540,cs),
(275,506,o),
(258,489,o),
(235,489,cs),
(213,489,o),
(204,506,o),
(210,540,cs),
(217,575,o),
(232,592,o)
);
},
{
closed = 1;
nodes = (
(106,0,l),
(318,0,l),
(817,711,l),
(605,711,l)
);
},
{
closed = 1;
nodes = (
(497,171,cs),
(476,49,o),
(544,-10,o),
(646,-10,cs),
(749,-10,o),
(835,49,o),
(856,171,cs),
(878,293,o),
(812,352,o),
(709,352,cs),
(607,352,o),
(519,293,o)
);
},
{
closed = 1;
nodes = (
(686,223,cs),
(708,223,o),
(718,205,o),
(712,171,cs),
(706,136,o),
(689,119,o),
(667,119,cs),
(644,119,o),
(635,136,o),
(641,171,cs),
(647,205,o),
(663,223,o)
);
}
);
width = 896;
}
);
unicode = 37;
userData = {
com.schriftgestaltung.Glyphs.ColorIndex = 3;
};
}
{
glyphname = ampersand;
layers = (
{
layerId = "57B79CA8-97D8-4C58-BF53-6BAB6214BDE2";
shapes = (
{
closed = 1;
nodes = (
(436,573,l),
(436,661,o),
(360,709,o),
(284,709,cs),
(192,709,o),
(128,654,o),
(128,571,cs),
(128,515,o),
(158,467,o),
(211,413,cs),
(613,0,l),
(637,0,l),
(225,427,ls),
(177,476,o),
(148,520,o),
(148,572,cs),
(148,644,o),
(203,691,o),
(284,691,cs),
(350,691,o),
(416,649,o),
(416,573,c)
);
},
{
closed = 1;
nodes = (
(225,418,l),
(209,412,ls),
(106,372,o),
(43,302,o),
(43,199,cs),
(43,75,o),
(138,-10,o),
(268,-10,cs),
(413,-10,o),
(498,70,o),
(604,255,cs),
(664,360,l),
(643,360,l),
(593,273,ls),
(487,89,o),
(408,9,o),
(268,9,cs),
(150,9,o),
(63,88,o),
(63,199,cs),
(63,290,o),
(114,356,o),
(214,394,cs),
(238,403,l)
);
}
);
width = 672;
},
{
layerId = "A69CC389-2ECF-459C-A4E4-3168912CA6B4";
shapes = (
{
closed = 1;
nodes = (
(598,524,l),
(598,623,o),
(521,721,o),
(359,721,cs),
(201,721,o),
(116,630,o),
(116,524,cs),
(116,471,o),
(137,424,o),
(196,367,cs),
(587,0,l),
(831,0,l),
(364,452,ls),
(336,479,o),
(320,505,o),
(320,526,cs),
(320,550,o),
(339,562,o),
(359,562,cs),
(377,562,o),
(396,551,o),
(396,524,c)
);
},
{
closed = 1;
nodes = (
(317,459,l),
(228,431,ls),
(98,390,o),
(36,304,o),
(36,207,cs),
(36,78,o),
(143,-10,o),
(317,-10,cs),
(536,-10,o),
(672,116,o),
(758,340,cs),
(768,366,l),
(553,366,l),
(550,357,ls),
(512,242,o),
(445,165,o),
(333,165,cs),
(277,165,o),
(248,194,o),
(248,227,cs),
(248,259,o),
(277,296,o),
(335,312,cs),
(398,329,l)
);
}
);
width = 831;
},
{
layerId = "4D0F633C-81E1-4D6C-A640-637CE706A5C5";
shapes = (
{
closed = 1;
nodes = (
(517,540,l),
(524,635,o),
(459,711,o),
(338,711,cs),
(219,711,o),
(145,642,o),
(145,551,cs),
(145,489,o),
(167,446,o),
(234,379,cs),
(612,0,l),
(761,0,l),
(329,429,ls),
(280,482,o),
(259,513,o),
(259,551,cs),
(259,588,o),
(288,618,o),
(333,618,cs),
(376,618,o),
(405,591,o),
(403,540,c)
);
},
{
closed = 1;
nodes = (
(274,444,l),
(233,431,ls),
(100,389,o),
(35,304,o),
(35,200,cs),
(35,70,o),
(135,-13,o),
(285,-13,cs),
(430,-13,o),
(530,59,o),
(617,209,cs),
(707,363,l),
(584,363,l),
(509,240,ls),
(446,136,o),
(377,84,o),
(285,84,cs),
(203,84,o),
(149,137,o),
(149,204,cs),
(149,271,o),
(192,321,o),
(287,353,cs),
(335,369,l)
);
}
);
width = 761;
},
{
layerId = "A74DA284-3E8B-4DB3-928B-2F0253F1CAB3";
shapes = (
{
closed = 1;
nodes = (
(490,573,l),
(491,581,o),
(492,589,o),
(492,597,cs),
(492,670,o),
(431,709,o),
(359,709,cs),
(257,709,o),
(179,641,o),
(179,547,cs),
(179,500,o),
(200,459,o),
(237,413,cs),
(566,0,l),
(589,0,l),
(252,427,ls),
(219,468,o),
(199,506,o),
(199,548,cs),
(199,633,o),
(268,690,o),
(358,690,cs),
(421,690,o),
(472,657,o),
(472,594,cs),
(472,587,o),
(471,580,o),
(470,573,c)
);
},
{
closed = 1;
nodes = (
(251,418,l),
(234,412,ls),
(109,368,o),
(28,281,o),
(28,168,cs),
(28,63,o),
(107,-10,o),
(224,-10,cs),
(364,-10,o),
(463,70,o),
(602,255,cs),
(680,360,l),
(658,360,l),
(594,275,ls),
(456,89,o),
(362,9,o),
(224,9,cs),
(118,9,o),
(48,74,o),
(48,168,cs),
(48,277,o),
(124,354,o),
(241,395,cs),
(262,403,l)
);
}
);
width = 672;
},
{
layerId = "ED744E86-D388-498D-94EB-FEBBBDC8F1CA";
shapes = (
{
closed = 1;
nodes = (
(569,550,l),
(571,560,o),
(572,569,o),
(572,578,cs),
(572,651,o),
(516,711,o),
(413,711,cs),
(281,711,o),
(191,630,o),
(191,514,cs),
(191,471,o),
(209,433,o),
(254,379,cs),
(565,0,l),
(714,0,l),
(357,429,ls),
(324,474,o),
(307,503,o),
(307,534,cs),
(307,578,o),
(343,618,o),
(395,618,cs),
(433,618,o),
(456,597,o),
(456,564,cs),
(456,559,o),
(456,555,o),
(455,550,c)
);
},
{
closed = 1;
nodes = (
(305,444,l),
(262,431,ls),
(121,389,o),
(19,292,o),
(19,165,cs),
(19,53,o),
(102,-13,o),
(236,-13,cs),
(381,-13,o),
(493,59,o),
(607,209,cs),
(724,363,l),
(601,363,l),
(504,240,ls),
(423,136,o),
(345,84,o),
(253,84,cs),
(180,84,o),
(136,126,o),
(136,183,cs),
(136,265,o),
(205,322,o),
(302,353,cs),
(353,369,l)
);
}
);
width = 775;
},
{
layerId = "15935870-0A58-425A-9765-D144975D2C89";
shapes = (
{
closed = 1;
nodes = (
(638,524,l),
(640,535,o),
(641,545,o),
(641,555,cs),
(641,641,o),
(572,711,o),
(428,711,cs),
(272,711,o),
(153,626,o),
(153,493,cs),
(153,452,o),
(169,413,o),
(208,367,cs),
(535,0,l),
(779,0,l),
(391,452,ls),
(370,476,o),
(360,499,o),
(360,519,cs),
(360,548,o),
(382,562,o),
(404,562,cs),
(420,562,o),
(437,553,o),
(437,533,cs),
(437,530,o),
(437,527,o),
(436,524,c)
);
},
{
closed = 1;
nodes = (
(345,456,l),
(251,428,ls),
(117,388,o),
(7,297,o),
(7,172,cs),
(7,62,o),
(105,-10,o),
(263,-10,cs),
(482,-10,o),
(640,116,o),
(766,340,cs),
(780,366,l),
(565,366,l),
(561,357,ls),
(502,242,o),
(422,165,o),
(312,165,cs),
(260,165,o),
(235,189,o),
(235,217,cs),
(235,251,o),
(271,294,o),
(338,312,cs),
(404,329,l)
);
}
);
width = 837;
}
);
unicode = 38;
userData = {
com.schriftgestaltung.Glyphs.ColorIndex = 4;
com.typemytype.robofont.layerData = {
b = {
anchors = (
);
components = (
);
contours = (
{
points = (
{
segmentType = curve;
smooth = 1;
x = 61;
y = 192;
},
{
smooth = 0;
x = 61;
y = 306;
},
{
smooth = 0;
x = 135.7746;
y = 365;
},
{
segmentType = curve;
smooth = 1;
x = 229;
y = 365;
},
{
smooth = 0;
x = 306.57141;
y = 365;
},
{
smooth = 0;
x = 410;
y = 279.328;
},
{
segmentType = curve;
smooth = 1;
x = 410;
y = 189;
},
{
smooth = 0;
x = 410;
y = 89.0702;
},
{
smooth = 0;
x = 333;
y = 11;
},
{
segmentType = curve;
smooth = 1;
x = 240;
y = 11;
},
{
smooth = 0;
x = 127.5793;
y = 11;
},
{
smooth = 0;
x = 61;
y = 90;
}
);
},
{
points = (
{
segmentType = curve;
smooth = 1;
x = 175;
y = 570;
},
{
smooth = 0;
x = 175;
y = 485;
},
{
smooth = 0;
x = 220;
y = 473;
},
{
segmentType = curve;
smooth = 1;
x = 256;
y = 426;
},
{
segmentType = line;
smooth = 0;
x = 302;
y = 367;
},
{
smooth = 0;
x = 286.29559;
y = 375.97391;
},
{
smooth = 0;
x = 259.12701;
y = 383;
},
{
segmentType = curve;
smooth = 1;
x = 229;
y = 383;
},
{
smooth = 0;
x = 114.9672;
y = 383;
},
{
smooth = 0;
x = 41;
y = 307;
},
{
segmentType = curve;
smooth = 1;
x = 41;
y = 192;
},
{
smooth = 0;
x = 41;
y = 66;
},
{
smooth = 0;
x = 130.7663;
y = -7;
},
{
segmentType = curve;
smooth = 1;
x = 240;
y = -7;
},
{
smooth = 0;
x = 355;
y = -7;
},
{
smooth = 0;
x = 435.96179;
y = 84.1183;
},
{
segmentType = curve;
smooth = 0;
x = 432;
y = 200;
},
{
segmentType = line;
smooth = 0;
x = 425;
y = 206;
},
{
segmentType = line;
smooth = 0;
x = 588;
y = 0;
},
{
segmentType = line;
smooth = 0;
x = 621;
y = 0;
},
{
segmentType = line;
smooth = 1;
x = 352;
y = 341;
},
{
smooth = 0;
x = 285;
y = 425;
},
{
smooth = 0;
x = 195;
y = 505;
},
{
segmentType = curve;
smooth = 1;
x = 195;
y = 570;
},
{
smooth = 0;
x = 195;
y = 639;
},
{
smooth = 0;
x = 248;
y = 693;
},
{
segmentType = curve;
smooth = 0;
x = 331;
y = 693;
},
{
smooth = 0;
x = 434;
y = 693;
},
{
smooth = 0;
x = 477;
y = 632;
},
{
segmentType = curve;
smooth = 0;
x = 477;
y = 531;
},
{
segmentType = line;
smooth = 0;
x = 497;
y = 531;
},
{
smooth = 0;
x = 497;
y = 613;
},
{
smooth = 0;
x = 464;
y = 711;
},
{
segmentType = curve;
smooth = 0;
x = 331;
y = 711;
},
{
smooth = 0;
x = 233;
y = 711;
},
{
smooth = 0;
x = 175;
y = 642;
}
);
}
);
lib = {
};
name = ampersand;
unicodes = (
);
width = 672;
};
};
};
}
{
glyphname = quotesingle;
layers = (
{
layerId = "57B79CA8-97D8-4C58-BF53-6BAB6214BDE2";
shapes = (
{
closed = 1;
nodes = (
(52,614,l),
(68,614,l),
(79,793,l),
(40,793,l)
);
}
);
width = 119;
},
{
layerId = "A69CC389-2ECF-459C-A4E4-3168912CA6B4";
shapes = (
{
closed = 1;
nodes = (
(59,568,l),
(207,568,l),
(220,803,l),
(45,803,l)
);
}
);
width = 265;
},
{
layerId = "4D0F633C-81E1-4D6C-A640-637CE706A5C5";
shapes = (
{
closed = 1;
nodes = (
(47,592,l),
(125,592,l),
(137,797,l),
(34,797,l)
);
}
);
width = 172;
},
{
layerId = "A74DA284-3E8B-4DB3-928B-2F0253F1CAB3";
shapes = (
{
closed = 1;
nodes = (
(113,614,l),
(129,614,l),
(171,793,l),
(132,793,l)
);
}
);
width = 119;
},
{
layerId = "ED744E86-D388-498D-94EB-FEBBBDC8F1CA";
shapes = (
{
closed = 1;
nodes = (
(100,592,l),
(178,592,l),
(226,797,l),
(123,797,l)
);
}
);
width = 172;
},
{
layerId = "15935870-0A58-425A-9765-D144975D2C89";
shapes = (
{
closed = 1;
nodes = (
(109,568,l),
(257,568,l),
(312,803,l),
(137,803,l)
);
}
);
width = 265;
}
);
unicode = 39;
userData = {
com.schriftgestaltung.Glyphs.ColorIndex = 4;
};
}
{
glyphname = parenleft;
layers = (
{
background = {
shapes = (
{
closed = 1;
nodes = (
(85,-185,l),
(179,-185,l),
(179,-167,l),
(105,-167,l),
(105,871,l),
(179,871,l),
(179,889,l),
(85,889,l)
);
}
);
};
guides = (
{
pos = (84,352);
}
);
layerId = "57B79CA8-97D8-4C58-BF53-6BAB6214BDE2";
shapes = (
{
closed = 1;
nodes = (
(284,-186,l),
(284,-183,l),
(151,-44,o),
(80,154,o),
(80,374,cs),
(80,594,o),
(151,792,o),
(284,931,c),
(284,934,l),
(261,934,l),
(149,817,o),
(60,622,o),
(60,374,cs),
(60,126,o),
(149,-69,o),
(261,-186,c)
);
}
);
width = 338;
},
{
background = {
shapes = (
{
closed = 1;
nodes = (
(321,-269,c),
(535,-269,l),
(535,-249,l),
(349,-92,o),
(257,93,o),
(257,322,c),
(257,551,o),
(349,735,o),
(535,892,c),
(535,913,l),
(321,913,l),
(165,793,o),
(44,585,o),
(44,322,c),
(44,57,o),
(165,-149,o)
);
}
);
};
layerId = "A69CC389-2ECF-459C-A4E4-3168912CA6B4";
shapes = (
{
closed = 1;
nodes = (
(475,-229,l),
(475,-209,l),
(347,-74,o),
(266,127,o),
(266,333,cs),
(266,538,o),
(347,739,o),
(475,874,c),
(475,895,l),
(261,895,l),
(135,775,o),
(54,566,o),
(54,333,cs),
(54,100,o),
(135,-109,o),
(261,-229,c)
);
}
);
width = 463;
},
{
layerId = "4D0F633C-81E1-4D6C-A640-637CE706A5C5";
shapes = (
{
closed = 1;
nodes = (
(445,-186,l),
(445,-175,l),
(305,-31,o),
(234,166,o),
(234,364,cs),
(234,562,o),
(305,776,o),
(465,923,c),
(465,934,l),
(347,934,l),
(195,799,o),
(124,582,o),
(124,364,cs),
(124,146,o),
(195,-59,o),
(327,-186,c)
);
}
);
width = 492;
},
{
layerId = "A74DA284-3E8B-4DB3-928B-2F0253F1CAB3";
shapes = (
{
closed = 1;
nodes = (
(204,-186,l),
(204,-183,l),
(126,-80,o),
(84,56,o),
(84,209,cs),
(84,474,o),
(200,753,o),
(402,931,c),
(402,934,l),
(379,934,l),
(182,761,o),
(64,472,o),
(64,209,cs),
(64,37,o),
(114,-97,o),
(182,-186,c)
);
}
);
width = 339;
},
{
layerId = "ED744E86-D388-498D-94EB-FEBBBDC8F1CA";
shapes = (
{
closed = 1;
nodes = (
(364,-186,l),
(366,-175,l),
(279,-66,o),
(237,73,o),
(237,220,cs),
(237,485,o),
(371,758,o),
(579,923,c),
(581,934,l),
(463,934,l),
(251,771,o),
(125,475,o),
(125,196,cs),
(125,44,o),
(165,-92,o),
(246,-186,c)
);
}
);
width = 492;
},
{
layerId = "15935870-0A58-425A-9765-D144975D2C89";
shapes = (
{
closed = 1;
nodes = (
(385,-229,l),
(388,-209,l),
(308,-105,o),
(263,38,o),
(263,193,cs),
(263,446,o),
(390,705,o),
(579,874,c),
(583,895,l),
(369,895,l),
(169,732,o),
(48,431,o),
(48,164,cs),
(48,1,o),
(92,-139,o),
(171,-229,c)
);
}
);
width = 463;
}
);
unicode = 40;
userData = {
com.schriftgestaltung.Glyphs.ColorIndex = 3;
};
}
{
glyphname = parenright;
layers = (
{
background = {
shapes = (
{
closed = 1;
nodes = (
(34,977,c),
(14,977,l),
(14,974,l),
(191,833,o),
(271,629,o),
(271,393,c),
(271,157,o),
(191,-47,o),
(14,-188,c),
(14,-191,l),
(34,-191,l),
(179,-78,o),
(291,120,o),
(291,393,c),
(291,666,o),
(179,864,o)
);
}
);
};
layerId = "57B79CA8-97D8-4C58-BF53-6BAB6214BDE2";
shapes = (
{
pos = (338,0);
ref = parenleft;
scale = (-1,1);
}
);
width = 338;
},
{
layerId = "A69CC389-2ECF-459C-A4E4-3168912CA6B4";
shapes = (
{
pos = (463,0);
ref = parenleft;
scale = (-1,1);
}
);
width = 463;
},
{
layerId = "4D0F633C-81E1-4D6C-A640-637CE706A5C5";
shapes = (
{
pos = (492,0);
ref = parenleft;
scale = (-1,1);
}
);
width = 492;
},
{
layerId = "A74DA284-3E8B-4DB3-928B-2F0253F1CAB3";
shapes = (
{
closed = 1;
nodes = (
(194,-11,o),
(311,276,o),
(311,543,cs),
(311,711,o),
(263,845,o),
(194,934,c),
(171,934,l),
(171,931,l),
(251,828,o),
(291,693,o),
(291,541,cs),
(291,274,o),
(177,-4,o),
(-26,-183,c),
(-26,-186,l),
(-3,-186,l)
);
}
);
width = 338;
},
{
layerId = "ED744E86-D388-498D-94EB-FEBBBDC8F1CA";
shapes = (
{
closed = 1;
nodes = (
(278,-26,o),
(399,263,o),
(399,530,cs),
(399,688,o),
(356,834,o),
(261,934,c),
(143,934,l),
(141,923,l),
(243,811,o),
(287,661,o),
(287,509,cs),
(287,256,o),
(166,-3,o),
(-32,-175,c),
(-34,-186,l),
(84,-186,l)
);
}
);
width = 492;
},
{
layerId = "15935870-0A58-425A-9765-D144975D2C89";
shapes = (
{
closed = 1;
nodes = (
(312,-66,o),
(433,235,o),
(433,502,cs),
(433,665,o),
(389,805,o),
(310,895,c),
(96,895,l),
(92,874,l),
(173,770,o),
(218,627,o),
(218,472,cs),
(218,221,o),
(92,-40,o),
(-99,-209,c),
(-102,-229,l),
(112,-229,l)
);
}
);
width = 463;
}
);
unicode = 41;
userData = {
com.schriftgestaltung.Glyphs.ColorIndex = 3;
};
}
{
glyphname = asterisk;
layers = (
{
background = {
shapes = (
{
closed = 1;
nodes = (
(244,728,l),
(194,728,l),
(205,559,l),
(67,656,l),
(40,609,l),
(199,543,l),
(40,479,l),
(65,434,l),
(206,531,l),
(194,360,l),
(245,360,l),
(229,531,l),
(366,437,l),
(389,480,l),
(228,544,l),
(389,608,l),
(364,653,l),
(229,559,l)
);
}
);
};
layerId = "57B79CA8-97D8-4C58-BF53-6BAB6214BDE2";
shapes = (
{
closed = 1;
nodes = (
(228,728,l),
(208,728,l),
(210,559,l),
(66,642,l),
(56,624,l),
(203,545,l),
(54,467,l),
(64,449,l),
(210,531,l),
(208,360,l),
(228,360,l),
(226,531,l),
(372,449,l),
(382,467,l),
(233,545,l),
(380,624,l),
(370,642,l),
(226,559,l)
);
}
);
width = 429;
},
{
layerId = "A69CC389-2ECF-459C-A4E4-3168912CA6B4";
shapes = (
{
closed = 1;
nodes = (
(356,744,l),
(214,744,l),
(245,625,l),
(153,708,l),
(86,587,l),
(195,555,l),
(84,519,l),
(159,390,l),
(244,477,l),
(216,360,l),
(355,360,l),
(327,477,l),
(414,391,l),
(487,518,l),
(376,552,l),
(487,588,l),
(420,709,l),
(327,625,l)
);
}
);
width = 561;
},
{
background = {
shapes = (
{
closed = 1;
nodes = (
(305,728,l),
(285,728,l),
(257,559,l),
(128,642,l),
(115,624,l),
(248,545,l),
(85,467,l),
(92,449,l),
(252,531,l),
(220,360,l),
(240,360,l),
(268,531,l),
(400,449,l),
(413,467,l),
(278,545,l),
(439,624,l),
(432,642,l),
(273,559,l)
);
}
);
};
layerId = "A74DA284-3E8B-4DB3-928B-2F0253F1CAB3";
shapes = (
{
closed = 1;
nodes = (
(308,728,l),
(290,728,l),
(261,559,l),
(129,641,l),
(120,626,l),
(251,545,l),
(88,466,l),
(96,449,l),
(256,531,l),
(225,360,l),
(243,360,l),
(272,531,l),
(404,449,l),
(413,464,l),
(281,545,l),
(442,624,l),
(435,641,l),
(277,559,l)
);
}
);
width = 429;
},
{
layerId = "ED744E86-D388-498D-94EB-FEBBBDC8F1CA";
shapes = (
{
closed = 1;
nodes = (
(377,736,l),
(284,736,l),
(278,590,l),
(177,680,l),
(117,598,l),
(244,549,l),
(99,498,l),
(132,413,l),
(262,505,l),
(218,360,l),
(310,360,l),
(314,505,l),
(413,415,l),
(473,497,l),
(345,548,l),
(491,599,l),
(460,679,l),
(329,590,l)
);
}
);
width = 504;
},
{
layerId = "15935870-0A58-425A-9765-D144975D2C89";
shapes = (
{
closed = 1;
nodes = (
(437,744,l),
(295,744,l),
(305,625,l),
(228,708,l),
(140,587,l),
(243,555,l),
(126,519,l),
(178,390,l),
(278,477,l),
(230,360,l),
(369,360,l),
(361,477,l),
(433,391,l),
(529,518,l),
(424,552,l),
(541,588,l),
(495,709,l),
(387,625,l)
);
}
);
width = 561;
},
{
layerId = "4D0F633C-81E1-4D6C-A640-637CE706A5C5";
shapes = (
{
closed = 1;
nodes = (
(299,736,l),
(206,736,l),
(226,590,l),
(109,680,l),
(63,598,l),
(199,549,l),
(63,498,l),
(111,413,l),
(225,505,l),
(206,360,l),
(298,360,l),
(277,505,l),
(391,415,l),
(437,497,l),
(300,548,l),
(437,599,l),
(392,679,l),
(277,590,l)
);
}
);
width = 504;
}
);
unicode = 42;
userData = {
com.schriftgestaltung.Glyphs.ColorIndex = 3;
};
}
{
glyphname = plus;
layers = (
{
layerId = "57B79CA8-97D8-4C58-BF53-6BAB6214BDE2";
shapes = (
{
closed = 1;
nodes = (
(284,635,l),
(284,125,l),
(304,125,l),
(304,635,l)
);
},
{
closed = 1;
nodes = (
(40,371,l),
(549,371,l),
(549,389,l),
(40,389,l)
);
}
);
width = 589;
},
{
layerId = "A69CC389-2ECF-459C-A4E4-3168912CA6B4";
shapes = (
{
closed = 1;
nodes = (
(169,595,l),
(169,85,l),
(382,85,l),
(382,595,l)
);
},
{
closed = 1;
nodes = (
(20,238,l),
(531,238,l),
(531,441,l),
(20,441,l)
);
}
);
width = 551;
},
{
layerId = "4D0F633C-81E1-4D6C-A640-637CE706A5C5";
shapes = (
{
closed = 1;
nodes = (
(304,616,l),
(304,106,l),
(410,106,l),
(410,616,l)
);
},
{
closed = 1;
nodes = (
(102,313,l),
(612,313,l),
(612,409,l),
(102,409,l)
);
}
);
width = 714;
},
{
layerId = "A74DA284-3E8B-4DB3-928B-2F0253F1CAB3";
shapes = (
{
closed = 1;
nodes = (
(348,635,l),
(258,125,l),
(278,125,l),
(368,635,l)
);
},
{
closed = 1;
nodes = (
(58,371,l),
(567,371,l),
(570,389,l),
(61,389,l)
);
}
);
width = 589;
},
{
layerId = "ED744E86-D388-498D-94EB-FEBBBDC8F1CA";
shapes = (
{
closed = 1;
nodes = (
(360,616,l),
(270,106,l),
(378,106,l),
(468,616,l)
);
},
{
closed = 1;
nodes = (
(105,310,l),
(615,310,l),
(633,412,l),
(123,412,l)
);
}
);
width = 714;
},
{
layerId = "15935870-0A58-425A-9765-D144975D2C89";
shapes = (
{
closed = 1;
nodes = (
(224,595,l),
(134,85,l),
(347,85,l),
(437,595,l)
);
},
{
closed = 1;
nodes = (
(12,238,l),
(523,238,l),
(559,441,l),
(48,441,l)
);
}
);
width = 551;
}
);
unicode = 43;
userData = {
com.schriftgestaltung.Glyphs.ColorIndex = 3;
};
}
{
glyphname = comma;
layers = (
{
background = {
shapes = (
{
closed = 1;
nodes = (
(-11,-115,l),
(7,-115,l),
(80,93,l),
(48,93,l)
);
}
);
};
layerId = "57B79CA8-97D8-4C58-BF53-6BAB6214BDE2";
shapes = (
{
closed = 1;
nodes = (
(-23,-155,l),
(-4,-155,l),
(80,93,l),
(54,93,l)
);
}
);
width = 113;
},
{
background = {
shapes = (
{
closed = 1;
nodes = (
(85,177,l),
(41,-99,l),
(154,-99,l),
(251,177,l)
);
}
);
};
layerId = "A69CC389-2ECF-459C-A4E4-3168912CA6B4";
shapes = (
{
closed = 1;
nodes = (
(45,-120,l),
(185,-120,l),
(288,177,l),
(92,177,l)
);
}
);
width = 342;
},
{
layerId = "4D0F633C-81E1-4D6C-A640-637CE706A5C5";
shapes = (
{
closed = 1;
nodes = (
(5,-139,l),
(79,-139,l),
(200,137,l),
(76,137,l)
);
}
);
width = 225;
},
{
background = {
shapes = (
{
closed = 1;
nodes = (
(-11,-115,l),
(7,-115,l),
(80,93,l),
(48,93,l)
);
}
);
};
layerId = "A74DA284-3E8B-4DB3-928B-2F0253F1CAB3";
shapes = (
{
closed = 1;
nodes = (
(-98,-155,l),
(-78,-155,l),
(49,93,l),
(23,93,l)
);
}
);
width = 113;
},
{
layerId = "ED744E86-D388-498D-94EB-FEBBBDC8F1CA";
shapes = (
{
closed = 1;
nodes = (
(-71,-139,l),
(3,-139,l),
(172,137,l),
(48,137,l)
);
}
);
width = 225;
},
{
background = {
shapes = (
{
closed = 1;
nodes = (
(65,177,l),
(18,-120,l),
(158,-120,l),
(261,177,l)
);
}
);
};
layerId = "15935870-0A58-425A-9765-D144975D2C89";
shapes = (
{
closed = 1;
nodes = (
(-13,-118,l),
(133,-118,l),
(290,185,l),
(70,185,l)
);
}
);
width = 348;
}
);
unicode = 44;
userData = {
com.schriftgestaltung.Glyphs.ColorIndex = 8;
com.typemytype.robofont.layerData = {
b = {
anchors = (
);
components = (
);
contours = (
{
points = (
{
segmentType = line;
smooth = 0;
x = 37;
y = 31;
},
{
segmentType = line;
smooth = 0;
x = 37;
y = -7;
},
{
segmentType = line;
smooth = 0;
x = 68;
y = -7;
},
{
segmentType = line;
smooth = 1;
x = 68;
y = -14;
},
{
smooth = 0;
x = 68;
y = -47;
},
{
smooth = 0;
x = 57;
y = -68;
},
{
segmentType = curve;
smooth = 0;
x = 25;
y = -68;
},
{
segmentType = line;
smooth = 0;
x = 25;
y = -86;
},
{
smooth = 0;
x = 61;
y = -86;
},
{
smooth = 0;
x = 90;
y = -71;
},
{
segmentType = curve;
smooth = 1;
x = 90;
y = 0;
},
{
smooth = 0;
x = 90;
y = 9;
},
{
smooth = 0;
x = 89;
y = 22;
},
{
segmentType = curve;
smooth = 0;
x = 88;
y = 31;
}
);
}
);
lib = {
};
name = comma;
unicodes = (
);
width = 119.5644;
};
};
};
}
{
glyphname = period;
layers = (
{
background = {
shapes = (
{
closed = 1;
nodes = (
(33,0,l),
(83,0,l),
(83,49,l),
(33,49,l)
);
}
);
};
layerId = "57B79CA8-97D8-4C58-BF53-6BAB6214BDE2";
shapes = (
{
closed = 1;
nodes = (
(73,-2,o),
(84,9,o),
(84,25,cs),
(84,41,o),
(73,52,o),
(58,52,cs),
(43,52,o),
(32,41,o),
(32,25,cs),
(32,9,o),
(43,-2,o),
(58,-2,cs)
);
}
);
width = 116;
},
{
background = {
shapes = (
{
closed = 1;
nodes = (
(223,-8,o),
(271,41,o),
(271,104,cs),
(271,167,o),
(223,216,o),
(160,216,cs),
(97,216,o),
(49,167,o),
(49,104,cs),
(49,41,o),
(97,-8,o),
(160,-8,cs)
);
},
{
closed = 1;
nodes = (
(160,609,cs),
(238,609,o),
(287,657,o),
(287,718,cs),
(287,780,o),
(238,829,o),
(160,829,cs),
(81,829,o),
(32,780,o),
(32,718,cs),
(32,657,o),
(81,609,o)
);
}
);
};
layerId = "A69CC389-2ECF-459C-A4E4-3168912CA6B4";
shapes = (
{
closed = 1;
nodes = (
(238,-8,o),
(287,40,o),
(287,101,cs),
(287,163,o),
(238,212,o),
(160,212,cs),
(81,212,o),
(32,163,o),
(32,101,cs),
(32,40,o),
(81,-8,o),
(160,-8,cs)
);
}
);
width = 319;
},
{
background = {
shapes = (
{
closed = 1;
nodes = (
(154,-6,o),
(183,24,o),
(183,63,cs),
(183,102,o),
(154,132,o),
(115,132,cs),
(76,132,o),
(47,102,o),
(47,63,cs),
(47,24,o),
(76,-6,o),
(115,-6,cs)
);
}
);
};
layerId = "4D0F633C-81E1-4D6C-A640-637CE706A5C5";
shapes = (
{
closed = 1;
nodes = (
(161,-7,o),
(193,25,o),
(193,66,cs),
(193,107,o),
(161,139,o),
(121,139,cs),
(80,139,o),
(48,107,o),
(48,66,cs),
(48,25,o),
(80,-7,o),
(121,-7,cs)
);
}
);
width = 241;
},
{
background = {
shapes = (
{
closed = 1;
nodes = (
(33,0,l),
(83,0,l),
(83,49,l),
(33,49,l)
);
}
);
};
layerId = "A74DA284-3E8B-4DB3-928B-2F0253F1CAB3";
shapes = (
{
closed = 1;
nodes = (
(25,-2,o),
(38,9,o),
(41,25,cs),
(44,41,o),
(35,52,o),
(20,52,cs),
(5,52,o),
(-8,41,o),
(-11,25,cs),
(-14,9,o),
(-5,-2,o),
(10,-2,cs)
);
}
);
width = 116;
},
{
background = {
shapes = (
{
closed = 1;
nodes = (
(154,-6,o),
(183,24,o),
(183,63,cs),
(183,102,o),
(154,132,o),
(115,132,cs),
(76,132,o),
(47,102,o),
(47,63,cs),
(47,24,o),
(76,-6,o),
(115,-6,cs)
);
}
);
};
layerId = "ED744E86-D388-498D-94EB-FEBBBDC8F1CA";
shapes = (
{
closed = 1;
nodes = (
(108,-7,o),
(146,25,o),
(153,66,cs),
(160,107,o),
(134,139,o),
(94,139,cs),
(53,139,o),
(15,107,o),
(8,66,cs),
(1,25,o),
(27,-7,o),
(68,-7,cs)
);
}
);
width = 241;
},
{
background = {
shapes = (
{
closed = 1;
nodes = (
(223,-8,o),
(271,41,o),
(271,104,cs),
(271,167,o),
(223,216,o),
(160,216,cs),
(97,216,o),
(49,167,o),
(49,104,cs),
(49,41,o),
(97,-8,o),
(160,-8,cs)
);
},
{
closed = 1;
nodes = (
(160,609,cs),
(238,609,o),
(287,657,o),
(287,718,cs),
(287,780,o),
(238,829,o),
(160,829,cs),
(81,829,o),
(32,780,o),
(32,718,cs),
(32,657,o),
(81,609,o)
);
}
);
};
layerId = "15935870-0A58-425A-9765-D144975D2C89";
shapes = (
{
closed = 1;
nodes = (
(187,-8,o),
(244,40,o),
(255,101,cs),
(266,163,o),
(226,212,o),
(148,212,cs),
(69,212,o),
(11,163,o),
(0,101,cs),
(-11,40,o),
(30,-8,o),
(109,-8,cs)
);
}
);
width = 319;
}
);
unicode = 46;
userData = {
com.schriftgestaltung.Glyphs.ColorIndex = 3;
};
}
{
glyphname = slash;
layers = (
{
layerId = "57B79CA8-97D8-4C58-BF53-6BAB6214BDE2";
shapes = (
{
closed = 1;
nodes = (
(30,-156,l),
(50,-156,l),
(329,935,l),
(307,935,l)
);
}
);
width = 359;
},
{
layerId = "A69CC389-2ECF-459C-A4E4-3168912CA6B4";
shapes = (
{
closed = 1;
nodes = (
(-36,-198,l),
(177,-198,l),
(442,955,l),
(230,955,l)
);
}
);
width = 399;
},
{
layerId = "4D0F633C-81E1-4D6C-A640-637CE706A5C5";
shapes = (
{
closed = 1;
nodes = (
(61,-175,l),
(173,-175,l),
(445,944,l),
(332,944,l)
);
}
);
width = 514;
},
{
layerId = "A74DA284-3E8B-4DB3-928B-2F0253F1CAB3";
shapes = (
{
closed = 1;
nodes = (
(-45,-156,l),
(-25,-156,l),
(446,935,l),
(424,935,l)
);
}
);
width = 359;
},
{
layerId = "ED744E86-D388-498D-94EB-FEBBBDC8F1CA";
shapes = (
{
closed = 1;
nodes = (
(-22,-175,l),
(90,-175,l),
(560,944,l),
(447,944,l)
);
}
);
width = 514;
},
{
layerId = "15935870-0A58-425A-9765-D144975D2C89";
shapes = (
{
closed = 1;
nodes = (
(-121,-198,l),
(92,-198,l),
(561,955,l),
(349,955,l)
);
}
);
width = 399;
}
);
unicode = 47;
userData = {
com.schriftgestaltung.Glyphs.ColorIndex = 3;
};
}
{
glyphname = zero;
layers = (
{
background = {
shapes = (
{
pos = (9,0);
ref = zero;
}
);
};
layerId = "57B79CA8-97D8-4C58-BF53-6BAB6214BDE2";
metricWidth = "=600";
shapes = (
{
closed = 1;
nodes = (
(485,-7,o),
(532,141,o),
(532,353,cs),
(532,564,o),
(485,711,o),
(300,711,cs),
(115,711,o),
(68,564,o),
(68,353,cs),
(68,141,o),
(115,-7,o),
(300,-7,cs)
);
},
{
closed = 1;
nodes = (
(130,11,o),
(88,152,o),
(88,353,cs),
(88,553,o),
(130,693,o),
(300,693,cs),
(471,693,o),
(512,553,o),
(512,353,cs),
(512,152,o),
(471,11,o),
(300,11,cs)
);
}
);
width = 600;
},
{
background = {
shapes = (
{
pos = (-20,0);
ref = zero;
}
);
};
guides = (
{
pos = (48,638);
},
{
pos = (48,742);
},
{
pos = (48,2);
},
{
pos = (48,106);
}
);
layerId = "4D0F633C-81E1-4D6C-A640-637CE706A5C5";
metricWidth = "=600";
shapes = (
{
closed = 1;
nodes = (
(504,2,o),
(560,162,o),
(560,374,cs),
(560,582,o),
(504,742,o),
(300,742,cs),
(96,742,o),
(40,582,o),
(40,374,cs),
(40,162,o),
(96,2,o),
(300,2,cs)
);
},
{
closed = 1;
nodes = (
(167,106,o),
(152,231,o),
(152,374,cs),
(152,510,o),
(167,638,o),
(300,638,cs),
(433,638,o),
(448,510,o),
(448,374,cs),
(448,231,o),
(433,106,o),
(300,106,cs)
);
}
);
width = 600;
},
{
background = {
shapes = (
{
pos = (-32,0);
ref = zero;
}
);
};
guides = (
{
pos = (473,-51);
}
);
layerId = "A69CC389-2ECF-459C-A4E4-3168912CA6B4";
metricWidth = "=600";
shapes = (
{
closed = 1;
nodes = (
(501,4,o),
(589,125,o),
(589,376,cs),
(589,626,o),
(501,747,o),
(300,747,cs),
(99,747,o),
(11,626,o),
(11,376,cs),
(11,125,o),
(99,4,o),
(300,4,cs)
);
},
{
closed = 1;
nodes = (
(253,214,o),
(230,244,o),
(230,376,cs),
(230,507,o),
(253,537,o),
(300,537,cs),
(347,537,o),
(371,507,o),
(370,376,cs),
(369,244,o),
(347,214,o),
(300,214,cs)
);
}
);
width = 600;
},
{
guides = (
{
angle = 79;
pos = (1,-60);
},
{
angle = 79;
pos = (22,-60);
},
{
angle = 79;
pos = (470,-60);
},
{
angle = 79;
pos = (491,-60);
}
);
layerId = "A74DA284-3E8B-4DB3-928B-2F0253F1CAB3";
metricWidth = "=600";
shapes = (
{
closed = 1;
nodes = (
(418,-7,o),
(496,94,o),
(541,323,cs),
(586,557,o),
(551,711,o),
(363,711,cs),
(211,711,o),
(133,610,o),
(88,381,cs),
(43,147,o),
(78,-7,o),
(266,-7,cs)
);
},
{
closed = 1;
nodes = (
(92,11,o),
(65,159,o),
(108,379,cs),
(150,594,o),
(218,693,o),
(363,693,cs),
(537,693,o),
(564,545,o),
(521,325,cs),
(479,110,o),
(411,11,o),
(266,11,cs)
);
}
);
width = 600;
},
{
background = {
shapes = (
{
closed = 1;
nodes = (
(436,2,o),
(523,110,o),
(568,338,cs),
(616,590,o),
(573,742,o),
(359,742,cs),
(196,742,o),
(109,634,o),
(64,406,cs),
(16,154,o),
(59,2,o),
(273,2,cs)
);
},
{
closed = 1;
nodes = (
(154,106,o),
(139,204,o),
(175,389,cs),
(211,577,o),
(264,638,o),
(356,638,cs),
(478,638,o),
(493,540,o),
(457,355,cs),
(421,167,o),
(368,106,o),
(276,106,cs)
);
}
);
};
guides = (
{
angle = 79;
pos = (-37,-60);
},
{
angle = 79;
pos = (77,-60);
},
{
angle = 79;
pos = (378,-60);
},
{
angle = 79;
pos = (492,-60);
},
{
pos = (40,638);
},
{
pos = (40,742);
},
{
pos = (40,2);
},
{
pos = (40,106);
}
);
layerId = "ED744E86-D388-498D-94EB-FEBBBDC8F1CA";
metricWidth = "=600";
shapes = (
{
closed = 1;
nodes = (
(433,2,o),
(520,97,o),
(565,325,cs),
(616,586,o),
(565,729,o),
(359,729,cs),
(196,729,o),
(109,634,o),
(64,406,cs),
(13,145,o),
(64,2,o),
(270,2,cs)
);
},
{
closed = 1;
nodes = (
(154,106,o),
(139,204,o),
(175,389,cs),
(211,577,o),
(261,625,o),
(349,625,cs),
(475,625,o),
(490,527,o),
(454,342,cs),
(418,154,o),
(368,106,o),
(280,106,cs)
);
}
);
width = 600;
},
{
background = {
shapes = (
{
closed = 1;
nodes = (
(446,4,o),
(553,98,o),
(601,348,cs),
(649,600,o),
(578,721,o),
(357,721,cs),
(183,721,o),
(76,627,o),
(28,377,cs),
(-20,125,o),
(71,4,o),
(272,4,cs)
);
},
{
closed = 1;
nodes = (
(240,214,o),
(224,254,o),
(248,375,cs),
(269,483,o),
(296,510,o),
(338,510,cs),
(389,510,o),
(405,470,o),
(381,349,cs),
(360,241,o),
(333,214,o),
(291,214,cs)
);
}
);
};
guides = (
{
angle = 79;
pos = (-57,-60);
},
{
angle = 79;
pos = (163,-60);
},
{
angle = 79;
pos = (302,-60);
},
{
angle = 79;
pos = (522,-60);
},
{
pos = (310,157);
}
);
layerId = "15935870-0A58-425A-9765-D144975D2C89";
metricWidth = "=600";
shapes = (
{
closed = 1;
nodes = (
(441,4,o),
(554,99,o),
(599,335,cs),
(645,574,o),
(559,721,o),
(351,721,cs),
(189,721,o),
(76,626,o),
(30,390,cs),
(-15,151,o),
(71,4,o),
(279,4,cs)
);
},
{
closed = 1;
nodes = (
(240,214,o),
(224,254,o),
(248,375,cs),
(269,483,o),
(296,511,o),
(338,511,cs),
(389,511,o),
(405,471,o),
(381,350,cs),
(360,242,o),
(333,214,o),
(291,214,cs)
);
}
);
width = 600;
},
{
associatedMasterId = "A69CC389-2ECF-459C-A4E4-3168912CA6B4";
layerId = "6DD02C49-08B0-406F-BE1F-B3AD8BC37637";
metricWidth = "=623";
name = "5 Mar 26 at 10:38";
shapes = (
{
closed = 1;
nodes = (
(11,595,o),
(11,376,cs),
(11,156,o),
(99,4,o),
(311,4,cs),
(522,4,o),
(611,156,o),
(611,376,cs),
(611,595,o),
(522,747,o),
(311,747,cs),
(99,747,o)
);
},
{
closed = 1;
nodes = (
(392,467,o),
(392,376,cs),
(392,284,o),
(383,214,o),
(311,214,cs),
(238,214,o),
(229,284,o),
(229,376,cs),
(229,467,o),
(238,537,o),
(311,537,cs),
(383,537,o)
);
}
);
width = 623;
},
{
associatedMasterId = "4D0F633C-81E1-4D6C-A640-637CE706A5C5";
layerId = "B98F71F0-39B1-4608-97DA-0DBD7E45D59E";
metricWidth = "=623";
name = "5 Mar 26 at 10:41";
shapes = (
{
closed = 1;
nodes = (
(515,2,o),
(571,162,o),
(571,374,cs),
(571,582,o),
(515,742,o),
(311,742,cs),
(107,742,o),
(51,582,o),
(51,374,cs),
(51,162,o),
(107,2,o),
(311,2,cs)
);
},
{
closed = 1;
nodes = (
(178,106,o),
(163,231,o),
(163,374,cs),
(163,510,o),
(178,638,o),
(311,638,cs),
(444,638,o),
(459,510,o),
(459,374,cs),
(459,231,o),
(444,106,o),
(311,106,cs)
);
}
);
width = 623;
},
{
associatedMasterId = "15935870-0A58-425A-9765-D144975D2C89";
layerId = "F9CCC1DA-EA1D-4CCA-9B4B-E288F6EC39DE";
metricWidth = "=623";
name = "5 Mar 26 at 10:44";
shapes = (
{
closed = 1;
nodes = (
(473,4,o),
(588,156,o),
(625,363,cs),
(661,569,o),
(599,721,o),
(388,721,cs),
(176,721,o),
(61,569,o),
(25,363,cs),
(-12,156,o),
(50,4,o),
(262,4,cs)
);
},
{
closed = 1;
nodes = (
(226,214,o),
(229,284,o),
(243,363,cs),
(257,441,o),
(278,511,o),
(351,511,cs),
(423,511,o),
(420,441,o),
(406,363,cs),
(392,284,o),
(371,214,o),
(299,214,cs)
);
}
);
width = 623;
},
{
associatedMasterId = "15935870-0A58-425A-9765-D144975D2C89";
layerId = "250747D3-E33F-40E6-8B6B-06EDA2F04108";
metricWidth = "=623";
name = "5 Mar 26 at 10:45";
shapes = (
{
closed = 1;
nodes = (
(454,4,o),
(563,133,o),
(610,376,cs),
(657,618,o),
(598,747,o),
(400,747,cs),
(201,747,o),
(93,618,o),
(46,376,cs),
(-1,133,o),
(57,4,o),
(256,4,cs)
);
},
{
closed = 1;
nodes = (
(252,214,o),
(239,249,o),
(264,376,cs),
(289,502,o),
(314,537,o),
(359,537,cs),
(403,537,o),
(416,502,o),
(391,376,cs),
(366,249,o),
(341,214,o),
(297,214,cs)
);
}
);
width = 623;
},
{
associatedMasterId = "A74DA284-3E8B-4DB3-928B-2F0253F1CAB3";
background = {
shapes = (
{
closed = 1;
nodes = (
(441,-7,o),
(522,102,o),
(565,323,cs),
(609,554,o),
(554,711,o),
(368,711,cs),
(211,711,o),
(130,602,o),
(87,381,cs),
(43,150,o),
(98,-7,o),
(284,-7,cs)
);
},
{
closed = 1;
nodes = (
(110,11,o),
(65,159,o),
(107,379,cs),
(148,589,o),
(222,693,o),
(368,693,cs),
(542,693,o),
(587,545,o),
(545,325,cs),
(504,115,o),
(430,11,o),
(284,11,cs)
);
}
);
};
layerId = "876F53A1-AF56-4866-9814-13F1F993E172";
metricWidth = "=623";
name = "5 Mar 26 at 11:19";
shapes = (
{
closed = 1;
nodes = (
(441,-7,o),
(522,102,o),
(565,323,cs),
(609,554,o),
(554,711,o),
(368,711,cs),
(211,711,o),
(130,602,o),
(87,381,cs),
(43,150,o),
(98,-7,o),
(284,-7,cs)
);
},
{
closed = 1;
nodes = (
(110,11,o),
(65,159,o),
(107,379,cs),
(148,589,o),
(222,693,o),
(368,693,cs),
(542,693,o),
(587,545,o),
(545,325,cs),
(504,115,o),
(430,11,o),
(284,11,cs)
);
}
);
width = 623;
},
{
associatedMasterId = "ED744E86-D388-498D-94EB-FEBBBDC8F1CA";
layerId = "6660CCD7-D820-4432-9952-60B9BE6BE05A";
metricWidth = "=623";
name = "5 Mar 26 at 11:25";
shapes = (
{
closed = 1;
nodes = (
(467,2,o),
(551,162,o),
(587,366,cs),
(623,569,o),
(595,729,o),
(391,729,cs),
(187,729,o),
(103,569,o),
(67,366,cs),
(31,162,o),
(59,2,o),
(263,2,cs)
);
},
{
closed = 1;
nodes = (
(148,106,o),
(155,231,o),
(179,366,cs),
(202,500,o),
(240,625,o),
(373,625,cs),
(506,625,o),
(498,500,o),
(475,366,cs),
(451,231,o),
(414,106,o),
(281,106,cs)
);
}
);
width = 623;
},
{
associatedMasterId = "ED744E86-D388-498D-94EB-FEBBBDC8F1CA";
background = {
shapes = (
{
closed = 1;
nodes = (
(451,2,o),
(544,117,o),
(584,323,cs),
(636,592,o),
(545,742,o),
(358,742,cs),
(206,742,o),
(113,627,o),
(73,421,cs),
(21,152,o),
(112,2,o),
(299,2,cs)
);
},
{
closed = 1;
nodes = (
(181,106,o),
(149,222,o),
(183,398,cs),
(216,569,o),
(271,638,o),
(355,638,cs),
(476,638,o),
(503,513,o),
(472,336,cs),
(452,225,o),
(413,106,o),
(302,106,cs)
);
}
);
};
guides = (
{
angle = 79;
pos = (-20,-60);
},
{
angle = 79;
pos = (94,-60);
},
{
angle = 79;
pos = (395,-60);
},
{
angle = 79;
pos = (509,-60);
},
{
pos = (57,638);
},
{
pos = (57,742);
},
{
pos = (57,2);
},
{
pos = (57,106);
}
);
layerId = "D33C78E8-42E6-4648-87FB-05068D9E054B";
metricWidth = "=600";
name = interp;
shapes = (
{
closed = 1;
nodes = (
(432,-1,o),
(523,97,o),
(569,335,cs),
(615,576,o),
(566,728,o),
(363,728,cs),
(200,728,o),
(109,631,o),
(63,393,cs),
(16,150,o),
(66,-1,o),
(269,-1,cs)
);
},
{
closed = 1;
nodes = (
(161,100,o),
(138,195,o),
(175,382,cs),
(210,564,o),
(258,628,o),
(355,628,cs),
(471,628,o),
(493,531,o),
(457,346,cs),
(422,164,o),
(373,100,o),
(277,100,cs)
);
}
);
width = 600;
}
);
unicode = 48;
}
{
glyphname = one;
layers = (
{
layerId = "57B79CA8-97D8-4C58-BF53-6BAB6214BDE2";
shapes = (
{
closed = 1;
nodes = (
(333,9,l),
(333,704,l),
(107,704,l),
(107,686,l),
(326,686,l),
(313,699,l),
(313,9,l)
);
},
{
closed = 1;
nodes = (
(537,0,l),
(537,18,l),
(98,18,l),
(98,0,l)
);
}
);
width = 600;
},
{
layerId = "4D0F633C-81E1-4D6C-A640-637CE706A5C5";
shapes = (
{
closed = 1;
nodes = (
(373,54,l),
(373,729,l),
(91,729,l),
(91,625,l),
(286,625,l),
(258,653,l),
(258,54,l)
);
},
{
closed = 1;
nodes = (
(543,0,l),
(543,104,l),
(75,104,l),
(75,0,l)
);
}
);
width = 600;
},
{
layerId = "A69CC389-2ECF-459C-A4E4-3168912CA6B4";
shapes = (
{
closed = 1;
nodes = (
(431,104,l),
(431,731,l),
(72,731,l),
(72,523,l),
(243,523,l),
(198,568,l),
(198,104,l)
);
},
{
closed = 1;
nodes = (
(561,0,l),
(561,208,l),
(48,208,l),
(48,0,l)
);
}
);
width = 600;
},
{
background = {
shapes = (
{
closed = 1;
nodes = (
(286,9,l),
(420,704,l),
(194,704,l),
(190,686,l),
(409,686,l),
(399,699,l),
(266,9,l)
);
},
{
closed = 1;
nodes = (
(488,0,l),
(492,18,l),
(53,18,l),
(49,0,l)
);
}
);
};
layerId = "A74DA284-3E8B-4DB3-928B-2F0253F1CAB3";
shapes = (
{
closed = 1;
nodes = (
(286,9,l),
(421,704,l),
(194,704,l),
(191,686,l),
(411,686,l),
(400,699,l),
(266,9,l)
);
},
{
closed = 1;
nodes = (
(489,0,l),
(492,18,l),
(52,18,l),
(49,0,l)
);
}
);
width = 600;
},
{
background = {
shapes = (
{
closed = 1;
nodes = (
(350,54,l),
(481,729,l),
(199,729,l),
(179,625,l),
(372,625,l),
(349,653,l),
(233,54,l)
);
},
{
closed = 1;
nodes = (
(509,0,l),
(529,104,l),
(61,104,l),
(41,0,l)
);
}
);
};
layerId = "ED744E86-D388-498D-94EB-FEBBBDC8F1CA";
shapes = (
{
closed = 1;
nodes = (
(350,54,l),
(477,710,l),
(195,710,l),
(175,606,l),
(368,606,l),
(345,634,l),
(233,54,l)
);
},
{
closed = 1;
nodes = (
(509,0,l),
(529,104,l),
(61,104,l),
(41,0,l)
);
}
);
width = 600;
},
{
background = {
shapes = (
{
closed = 1;
nodes = (
(414,104,l),
(536,731,l),
(177,731,l),
(137,523,l),
(308,523,l),
(267,568,l),
(177,104,l)
);
},
{
closed = 1;
nodes = (
(524,0,l),
(564,208,l),
(54,208,l),
(14,0,l)
);
}
);
};
layerId = "15935870-0A58-425A-9765-D144975D2C89";
shapes = (
{
closed = 1;
nodes = (
(414,104,l),
(532,708,l),
(173,708,l),
(133,500,l),
(304,500,l),
(263,545,l),
(177,104,l)
);
},
{
closed = 1;
nodes = (
(524,0,l),
(564,208,l),
(54,208,l),
(14,0,l)
);
}
);
width = 600;
}
);
metricWidth = "=zero";
unicode = 49;
}
{
glyphname = four;
layers = (
{
layerId = "57B79CA8-97D8-4C58-BF53-6BAB6214BDE2";
shapes = (
{
closed = 1;
nodes = (
(431,0,l),
(451,0,l),
(451,190,l),
(573,190,l),
(573,208,l),
(451,208,l),
(451,704,l),
(431,704,l),
(34,206,l),
(34,190,l),
(431,190,l)
);
},
{
closed = 1;
nodes = (
(59,208,l),
(431,672,l),
(431,208,l)
);
}
);
width = 600;
},
{
guides = (
{
angle = 55.3605;
pos = (156,251);
}
);
layerId = "4D0F633C-81E1-4D6C-A640-637CE706A5C5";
shapes = (
{
closed = 1;
nodes = (
(384,0,l),
(496,0,l),
(496,152,l),
(581,152,l),
(581,251,l),
(496,251,l),
(496,720,l),
(358,720,l),
(25,238,l),
(25,152,l),
(384,152,l)
);
},
{
closed = 1;
nodes = (
(156,251,l),
(389,592,l),
(389,251,l)
);
}
);
width = 600;
},
{
background = {
shapes = (
{
closed = 1;
nodes = (
(300,0,l),
(524,0,l),
(524,110,l),
(587,110,l),
(587,302,l),
(524,302,l),
(524,720,l),
(264,720,l),
(12,295,l),
(12,110,l),
(300,110,l)
);
},
{
closed = 1;
nodes = (
(230,302,l),
(318,460,l),
(318,302,l)
);
}
);
};
guides = (
{
angle = 59.3345;
pos = (214,290);
}
);
layerId = "A69CC389-2ECF-459C-A4E4-3168912CA6B4";
shapes = (
{
closed = 1;
nodes = (
(300,0,l),
(524,0,l),
(524,110,l),
(587,110,l),
(587,302,l),
(524,302,l),
(524,720,l),
(264,720,l),
(12,295,l),
(12,110,l),
(300,110,l)
);
},
{
closed = 1;
nodes = (
(221,302,l),
(318,471,l),
(318,302,l)
);
}
);
width = 600;
},
{
layerId = "A74DA284-3E8B-4DB3-928B-2F0253F1CAB3";
shapes = (
{
closed = 1;
nodes = (
(383,0,l),
(403,0,l),
(437,190,l),
(559,190,l),
(562,208,l),
(440,208,l),
(528,704,l),
(508,704,l),
(23,206,l),
(20,190,l),
(417,190,l)
);
},
{
closed = 1;
nodes = (
(48,208,l),
(502,672,l),
(420,208,l)
);
}
);
width = 600;
},
{
background = {
shapes = (
{
closed = 1;
nodes = (
(322,0,l),
(438,0,l),
(467,152,l),
(560,152,l),
(579,252,l),
(486,252,l),
(577,720,l),
(435,720,l),
(30,248,l),
(11,152,l),
(351,152,l)
);
},
{
closed = 1;
nodes = (
(165,252,l),
(439,574,l),
(376,252,l)
);
}
);
};
guides = (
{
angle = 79;
pos = (420,-90);
},
{
angle = 79;
pos = (513,-90);
},
{
angle = 79;
pos = (310,-90);
},
{
angle = 79;
pos = (304,-90);
},
{
angle = 79;
pos = (-36,-90);
},
{
angle = 229.3687;
pos = (233,484);
},
{
angle = 229.3687;
pos = (133,215);
}
);
layerId = "ED744E86-D388-498D-94EB-FEBBBDC8F1CA";
shapes = (
{
closed = 1;
nodes = (
(322,0,l),
(438,0,l),
(467,152,l),
(560,152,l),
(579,252,l),
(486,252,l),
(577,720,l),
(417,720,l),
(30,248,l),
(11,152,l),
(351,152,l)
);
},
{
closed = 1;
nodes = (
(165,252,l),
(445,603,l),
(376,252,l)
);
}
);
width = 600;
},
{
guides = (
{
angle = 79;
pos = (462,-83);
},
{
angle = 79;
pos = (523,-83);
},
{
angle = 79;
pos = (238,-83);
},
{
angle = 79;
pos = (-51,-83);
},
{
angle = 79;
pos = (251,-83);
},
{
angle = 233.349;
pos = (90,386);
}
);
layerId = "15935870-0A58-425A-9765-D144975D2C89";
shapes = (
{
closed = 1;
nodes = (
(254,0,l),
(478,0,l),
(499,110,l),
(561,110,l),
(598,302,l),
(537,302,l),
(618,720,l),
(351,720,l),
(22,295,l),
(-13,110,l),
(274,110,l)
);
},
{
closed = 1;
nodes = (
(230,302,l),
(360,476,l),
(326,302,l)
);
}
);
width = 600;
},
{
associatedMasterId = "ED744E86-D388-498D-94EB-FEBBBDC8F1CA";
layerId = "E8E9701F-0EC2-4922-83B8-69236A5AB3E7";
name = "6 Mar 26 at 12:49";
shapes = (
{
closed = 1;
nodes = (
(347,0,l),
(459,0,l),
(486,152,l),
(579,152,l),
(597,251,l),
(504,251,l),
(586,720,l),
(448,720,l),
(27,238,l),
(12,152,l),
(374,152,l)
);
},
{
closed = 1;
nodes = (
(161,251,l),
(459,604,l),
(397,251,l)
);
}
);
width = 600;
}
);
metricWidth = "=zero";
unicode = 52;
}
{
glyphname = seven;
layers = (
{
layerId = "57B79CA8-97D8-4C58-BF53-6BAB6214BDE2";
shapes = (
{
closed = 1;
nodes = (
(65,704,l),
(65,686,l),
(500,686,l),
(216,0,l),
(237,0,l),
(517,686,l),
(517,704,l)
);
}
);
width = 600;
},
{
layerId = "4D0F633C-81E1-4D6C-A640-637CE706A5C5";
shapes = (
{
closed = 1;
nodes = (
(50,726,l),
(50,629,l),
(432,629,l),
(157,0,l),
(272,0,l),
(544,641,l),
(544,726,l)
);
}
);
width = 600;
},
{
layerId = "A69CC389-2ECF-459C-A4E4-3168912CA6B4";
shapes = (
{
closed = 1;
nodes = (
(50,731,l),
(50,541,l),
(338,541,l),
(128,0,l),
(356,0,l),
(564,568,l),
(564,731,l)
);
}
);
width = 600;
},
{
background = {
shapes = (
{
closed = 1;
nodes = (
(150,704,l),
(146,686,l),
(581,686,l),
(165,0,l),
(186,0,l),
(598,686,l),
(602,704,l)
);
}
);
};
layerId = "A74DA284-3E8B-4DB3-928B-2F0253F1CAB3";
shapes = (
{
closed = 1;
nodes = (
(145,704,l),
(141,686,l),
(581,686,l),
(179,0,l),
(201,0,l),
(603,686,l),
(607,704,l)
);
}
);
width = 600;
},
{
background = {
shapes = (
{
closed = 1;
nodes = (
(146,726,l),
(127,629,l),
(509,629,l),
(113,0,l),
(228,0,l),
(624,641,l),
(640,726,l)
);
}
);
};
layerId = "ED744E86-D388-498D-94EB-FEBBBDC8F1CA";
shapes = (
{
closed = 1;
nodes = (
(122,726,l),
(106,631,l),
(483,631,l),
(92,0,l),
(217,0,l),
(604,641,l),
(619,726,l)
);
}
);
width = 600;
},
{
background = {
shapes = (
{
closed = 1;
nodes = (
(123,731,l),
(87,541,l),
(366,541,l),
(58,0,l),
(301,0,l),
(610,568,l),
(641,731,l)
);
}
);
};
layerId = "15935870-0A58-425A-9765-D144975D2C89";
shapes = (
{
closed = 1;
nodes = (
(121,717,l),
(85,527,l),
(364,527,l),
(58,0,l),
(301,0,l),
(608,554,l),
(639,717,l)
);
}
);
width = 600;
}
);
metricWidth = "=zero";
unicode = 55;
}
{
glyphname = colon;
layers = (
{
background = {
shapes = (
{
closed = 1;
nodes = (
(31,0,l),
(81,0,l),
(81,49,l),
(31,49,l)
);
},
{
closed = 1;
nodes = (
(31,454,l),
(81,454,l),
(81,503,l),
(31,503,l)
);
}
);
};
layerId = "57B79CA8-97D8-4C58-BF53-6BAB6214BDE2";
shapes = (
{
ref = period;
},
{
pos = (0,453);
ref = period;
}
);
width = 116;
},
{
background = {
shapes = (
{
closed = 1;
nodes = (
(62,0,l),
(282,0,l),
(282,212,l),
(62,212,l)
);
},
{
closed = 1;
nodes = (
(62,391,l),
(282,391,l),
(282,603,l),
(62,603,l)
);
}
);
};
layerId = "A69CC389-2ECF-459C-A4E4-3168912CA6B4";
shapes = (
{
ref = period;
},
{
pos = (0,396);
ref = period;
}
);
width = 319;
},
{
background = {
shapes = (
{
closed = 1;
nodes = (
(70,0,l),
(199,0,l),
(199,132,l),
(70,132,l)
);
},
{
closed = 1;
nodes = (
(70,419,l),
(199,419,l),
(199,551,l),
(70,551,l)
);
}
);
};
layerId = "4D0F633C-81E1-4D6C-A640-637CE706A5C5";
shapes = (
{
ref = period;
},
{
pos = (0,420);
ref = period;
}
);
width = 245;
},
{
background = {
shapes = (
{
closed = 1;
nodes = (
(31,0,l),
(81,0,l),
(81,49,l),
(31,49,l)
);
},
{
closed = 1;
nodes = (
(31,454,l),
(81,454,l),
(81,503,l),
(31,503,l)
);
}
);
};
layerId = "A74DA284-3E8B-4DB3-928B-2F0253F1CAB3";
shapes = (
{
ref = period;
},
{
pos = (0,453);
ref = period;
}
);
width = 116;
},
{
background = {
shapes = (
{
closed = 1;
nodes = (
(70,0,l),
(199,0,l),
(199,132,l),
(70,132,l)
);
},
{
closed = 1;
nodes = (
(70,419,l),
(199,419,l),
(199,551,l),
(70,551,l)
);
}
);
};
layerId = "ED744E86-D388-498D-94EB-FEBBBDC8F1CA";
shapes = (
{
ref = period;
},
{
pos = (0,420);
ref = period;
}
);
width = 245;
},
{
background = {
shapes = (
{
closed = 1;
nodes = (
(62,0,l),
(282,0,l),
(282,212,l),
(62,212,l)
);
},
{
closed = 1;
nodes = (
(62,391,l),
(282,391,l),
(282,603,l),
(62,603,l)
);
}
);
};
layerId = "15935870-0A58-425A-9765-D144975D2C89";
shapes = (
{
ref = period;
},
{
pos = (0,396);
ref = period;
}
);
width = 319;
}
);
unicode = 58;
userData = {
com.schriftgestaltung.Glyphs.ColorIndex = 3;
};
}
{
glyphname = less;
layers = (
{
layerId = "57B79CA8-97D8-4C58-BF53-6BAB6214BDE2";
shapes = (
{
closed = 1;
nodes = (
(65,380,l),
(341,618,l),
(316,618,l),
(40,380,l),
(316,143,l),
(341,143,l)
);
}
);
width = 381;
},
{
layerId = "A69CC389-2ECF-459C-A4E4-3168912CA6B4";
shapes = (
{
closed = 1;
nodes = (
(297,340,l),
(477,556,l),
(200,556,l),
(20,340,l),
(200,125,l),
(477,125,l)
);
}
);
width = 497;
},
{
layerId = "4D0F633C-81E1-4D6C-A640-637CE706A5C5";
shapes = (
{
closed = 1;
nodes = (
(241,361,l),
(472,588,l),
(328,588,l),
(98,361,l),
(328,134,l),
(472,134,l)
);
}
);
width = 612;
},
{
layerId = "A74DA284-3E8B-4DB3-928B-2F0253F1CAB3";
shapes = (
{
closed = 1;
nodes = (
(84,380,l),
(402,618,l),
(377,618,l),
(59,380,l),
(294,143,l),
(319,143,l)
);
}
);
width = 381;
},
{
layerId = "ED744E86-D388-498D-94EB-FEBBBDC8F1CA";
shapes = (
{
closed = 1;
nodes = (
(253,361,l),
(524,588,l),
(380,588,l),
(110,361,l),
(300,134,l),
(444,134,l)
);
}
);
width = 612;
},
{
layerId = "15935870-0A58-425A-9765-D144975D2C89";
shapes = (
{
closed = 1;
nodes = (
(307,340,l),
(525,556,l),
(248,556,l),
(30,340,l),
(172,125,l),
(449,125,l)
);
}
);
width = 497;
}
);
unicode = 60;
userData = {
com.schriftgestaltung.Glyphs.ColorIndex = 3;
};
}
{
glyphname = equal;
layers = (
{
layerId = "57B79CA8-97D8-4C58-BF53-6BAB6214BDE2";
shapes = (
{
closed = 1;
nodes = (
(40,283,l),
(524,283,l),
(524,301,l),
(40,301,l)
);
},
{
closed = 1;
nodes = (
(40,460,l),
(524,460,l),
(524,478,l),
(40,478,l)
);
}
);
width = 564;
},
{
layerId = "A69CC389-2ECF-459C-A4E4-3168912CA6B4";
shapes = (
{
closed = 1;
nodes = (
(20,99,l),
(606,99,l),
(606,300,l),
(20,300,l)
);
},
{
closed = 1;
nodes = (
(20,379,l),
(606,379,l),
(606,580,l),
(20,580,l)
);
}
);
width = 626;
},
{
layerId = "4D0F633C-81E1-4D6C-A640-637CE706A5C5";
shapes = (
{
closed = 1;
nodes = (
(121,200,l),
(653,200,l),
(653,296,l),
(121,296,l)
);
},
{
closed = 1;
nodes = (
(121,427,l),
(653,427,l),
(653,523,l),
(121,523,l)
);
}
);
width = 774;
},
{
layerId = "A74DA284-3E8B-4DB3-928B-2F0253F1CAB3";
shapes = (
{
closed = 1;
nodes = (
(42,283,l),
(526,283,l),
(529,301,l),
(45,301,l)
);
},
{
closed = 1;
nodes = (
(74,460,l),
(558,460,l),
(561,478,l),
(77,478,l)
);
}
);
width = 564;
},
{
layerId = "ED744E86-D388-498D-94EB-FEBBBDC8F1CA";
shapes = (
{
closed = 1;
nodes = (
(104,197,l),
(636,197,l),
(654,298,l),
(122,298,l)
);
},
{
closed = 1;
nodes = (
(144,424,l),
(676,424,l),
(694,525,l),
(162,525,l)
);
}
);
width = 774;
},
{
layerId = "15935870-0A58-425A-9765-D144975D2C89";
shapes = (
{
closed = 1;
nodes = (
(-12,99,l),
(574,99,l),
(609,300,l),
(23,300,l)
);
},
{
closed = 1;
nodes = (
(37,379,l),
(623,379,l),
(659,580,l),
(73,580,l)
);
}
);
width = 626;
}
);
unicode = 61;
userData = {
com.schriftgestaltung.Glyphs.ColorIndex = 3;
};
}
{
glyphname = greater;
layers = (
{
layerId = "57B79CA8-97D8-4C58-BF53-6BAB6214BDE2";
shapes = (
{
closed = 1;
nodes = (
(40,143,l),
(65,143,l),
(341,380,l),
(65,618,l),
(40,618,l),
(316,380,l)
);
}
);
width = 381;
},
{
layerId = "A69CC389-2ECF-459C-A4E4-3168912CA6B4";
shapes = (
{
closed = 1;
nodes = (
(20,125,l),
(297,125,l),
(477,340,l),
(297,556,l),
(20,556,l),
(200,340,l)
);
}
);
width = 497;
},
{
layerId = "4D0F633C-81E1-4D6C-A640-637CE706A5C5";
shapes = (
{
closed = 1;
nodes = (
(112,134,l),
(256,134,l),
(486,361,l),
(256,588,l),
(112,588,l),
(343,361,l)
);
}
);
width = 590;
},
{
layerId = "A74DA284-3E8B-4DB3-928B-2F0253F1CAB3";
shapes = (
{
closed = 1;
nodes = (
(18,143,l),
(43,143,l),
(360,380,l),
(126,618,l),
(101,618,l),
(335,380,l)
);
}
);
width = 381;
},
{
layerId = "ED744E86-D388-498D-94EB-FEBBBDC8F1CA";
shapes = (
{
closed = 1;
nodes = (
(84,134,l),
(228,134,l),
(498,361,l),
(308,588,l),
(164,588,l),
(355,361,l)
);
}
);
width = 590;
},
{
layerId = "15935870-0A58-425A-9765-D144975D2C89";
shapes = (
{
closed = 1;
nodes = (
(-8,125,l),
(269,125,l),
(487,340,l),
(345,556,l),
(68,556,l),
(210,340,l)
);
}
);
width = 497;
}
);
unicode = 62;
userData = {
com.schriftgestaltung.Glyphs.ColorIndex = 3;
};
}
{
glyphname = question;
layers = (
{
background = {
shapes = (
{
closed = 1;
nodes = (
(147,0,l),
(197,0,l),
(197,49,l),
(147,49,l)
);
}
);
};
layerId = "57B79CA8-97D8-4C58-BF53-6BAB6214BDE2";
shapes = (
{
closed = 1;
nodes = (
(119,711,o),
(28,643,o),
(28,522,c),
(48,522,l),
(48,625,o),
(120,693,o),
(234,693,cs),
(344,693,o),
(424,624,o),
(424,514,cs),
(424,340,o),
(295,315,o),
(177,315,cs),
(161,315,l),
(163,152,l),
(179,152,l),
(181,297,l),
(336,298,o),
(444,351,o),
(444,514,cs),
(444,631,o),
(355,711,o),
(234,711,cs)
);
},
{
pos = (114,0);
ref = period;
}
);
width = 482;
},
{
background = {
shapes = (
{
closed = 1;
nodes = (
(90,0,l),
(310,0,l),
(310,212,l),
(90,212,l)
);
}
);
};
layerId = "A69CC389-2ECF-459C-A4E4-3168912CA6B4";
shapes = (
{
closed = 1;
nodes = (
(93,773,o),
(13,667,o),
(18,548,c),
(227,548,l),
(227,572,o),
(237,593,o),
(266,593,cs),
(285,593,o),
(300,580,o),
(301,556,cs),
(303,513,o),
(256,498,o),
(179,498,cs),
(95,498,l),
(101,286,l),
(297,286,l),
(303,357,l),
(430,360,o),
(518,436,o),
(518,555,cs),
(518,702,o),
(414,773,o),
(272,773,cs)
);
},
{
pos = (42,0);
ref = period;
}
);
width = 538;
},
{
background = {
shapes = (
{
closed = 1;
nodes = (
(69,0,l),
(183,0,l),
(183,695,l),
(69,695,l)
);
},
{
closed = 1;
nodes = (
(510,0,l),
(624,0,l),
(624,695,l),
(510,695,l)
);
},
{
closed = 1;
nodes = (
(163,307,l),
(537,307,l),
(537,395,l),
(163,395,l)
);
}
);
};
layerId = "4D0F633C-81E1-4D6C-A640-637CE706A5C5";
shapes = (
{
closed = 1;
nodes = (
(126,705,o),
(39,620,o),
(40,499,c),
(147,499,l),
(147,569,o),
(192,609,o),
(263,609,cs),
(335,609,o),
(378,566,o),
(378,496,cs),
(378,391,o),
(291,371,o),
(178,371,cs),
(145,371,l),
(150,214,l),
(249,214,l),
(253,293,l),
(387,293,o),
(487,355,o),
(487,496,cs),
(487,626,o),
(396,705,o),
(262,705,cs)
);
},
{
pos = (77,0);
ref = period;
}
);
width = 538;
},
{
background = {
shapes = (
{
closed = 1;
nodes = (
(147,0,l),
(197,0,l),
(197,49,l),
(147,49,l)
);
}
);
};
layerId = "A74DA284-3E8B-4DB3-928B-2F0253F1CAB3";
shapes = (
{
closed = 1;
nodes = (
(197,711,o),
(94,643,o),
(72,522,c),
(92,522,l),
(111,625,o),
(195,693,o),
(309,693,cs),
(419,693,o),
(486,624,o),
(467,514,cs),
(436,340,o),
(303,315,o),
(185,315,cs),
(169,315,l),
(142,152,l),
(158,152,l),
(186,297,l),
(341,298,o),
(458,351,o),
(487,514,cs),
(508,631,o),
(433,711,o),
(312,711,cs)
);
},
{
pos = (114,0);
ref = period;
}
);
width = 482;
},
{
background = {
shapes = (
{
closed = 1;
nodes = (
(69,0,l),
(183,0,l),
(183,695,l),
(69,695,l)
);
},
{
closed = 1;
nodes = (
(510,0,l),
(624,0,l),
(624,695,l),
(510,695,l)
);
},
{
closed = 1;
nodes = (
(163,307,l),
(537,307,l),
(537,395,l),
(163,395,l)
);
}
);
};
layerId = "ED744E86-D388-498D-94EB-FEBBBDC8F1CA";
shapes = (
{
closed = 1;
nodes = (
(199,705,o),
(97,620,o),
(76,499,c),
(183,499,l),
(196,569,o),
(248,609,o),
(319,609,cs),
(391,609,o),
(426,566,o),
(414,496,cs),
(395,391,o),
(305,371,o),
(192,371,cs),
(159,371,l),
(136,214,l),
(235,214,l),
(253,293,l),
(387,293,o),
(498,355,o),
(523,496,cs),
(546,626,o),
(469,705,o),
(335,705,cs)
);
},
{
pos = (77,0);
ref = period;
}
);
width = 538;
},
{
background = {
shapes = (
{
closed = 1;
nodes = (
(90,0,l),
(310,0,l),
(310,212,l),
(90,212,l)
);
}
);
};
layerId = "15935870-0A58-425A-9765-D144975D2C89";
shapes = (
{
closed = 1;
nodes = (
(180,773,o),
(81,667,o),
(65,548,c),
(274,548,l),
(278,572,o),
(292,593,o),
(321,593,cs),
(340,593,o),
(353,580,o),
(349,556,cs),
(344,513,o),
(294,498,o),
(217,498,cs),
(133,498,l),
(102,286,l),
(298,286,l),
(316,357,l),
(444,360,o),
(545,436,o),
(566,555,cs),
(592,702,o),
(501,773,o),
(359,773,cs)
);
},
{
pos = (42,0);
ref = period;
}
);
width = 538;
}
);
unicode = 63;
userData = {
com.schriftgestaltung.Glyphs.ColorIndex = 3;
};
}
{
glyphname = at;
layers = (
{
guides = (
{
angle = 80.0442;
pos = (882,282);
}
);
layerId = "A69CC389-2ECF-459C-A4E4-3168912CA6B4";
shapes = (
{
closed = 1;
nodes = (
(598,68,o),
(660,-4,o),
(778,-4,cs),
(958,-4,o),
(1053,138,o),
(1053,315,cs),
(1053,535,o),
(891,687,o),
(645,687,cs),
(324,687,o),
(76,459,o),
(76,136,cs),
(76,-95,o),
(233,-245,o),
(473,-245,cs),
(559,-245,o),
(639,-229,o),
(707,-199,c),
(669,-60,l),
(620,-81,o),
(556,-96,o),
(483,-96,cs),
(328,-96,o),
(236,2,o),
(236,152,cs),
(236,365,o),
(405,541,o),
(626,541,cs),
(788,541,o),
(890,447,o),
(890,309,cs),
(890,218,o),
(866,138,o),
(809,138,cs),
(779,138,o),
(773,163,o),
(780,201,cs),
(819,422,l),
(647,422,l),
(629,319,l),
(642,338,l),
(638,390,o),
(599,427,o),
(531,427,cs),
(402,427,o),
(313,295,o),
(313,153,cs),
(313,51,o),
(372,-7,o),
(468,-7,cs),
(554,-7,o),
(620,34,o),
(648,112,c),
(627,211,l),
(621,181,ls)
);
},
{
closed = 1;
nodes = (
(589,274,o),
(607,255,o),
(607,224,cs),
(607,178,o),
(573,147,o),
(541,147,cs),
(515,147,o),
(498,165,o),
(498,195,cs),
(498,242,o),
(530,274,o),
(564,274,cs)
);
}
);
width = 1129;
},
{
layerId = "4D0F633C-81E1-4D6C-A640-637CE706A5C5";
shapes = (
{
closed = 1;
nodes = (
(605,42,o),
(642,-7,o),
(727,-7,cs),
(873,-7,o),
(955,156,o),
(955,311,cs),
(955,510,o),
(820,646,o),
(588,646,cs),
(285,646,o),
(70,419,o),
(70,130,cs),
(70,-73,o),
(213,-203,o),
(433,-203,cs),
(505,-203,o),
(574,-191,o),
(637,-164,c),
(622,-88,l),
(571,-113,o),
(510,-123,o),
(456,-123,cs),
(270,-123,o),
(163,-33,o),
(163,139,cs),
(163,382,o),
(335,567,o),
(574,567,cs),
(762,567,o),
(863,475,o),
(863,306,cs),
(863,210,o),
(826,69,o),
(744,69,cs),
(694,69,o),
(691,104,o),
(699,158,cs),
(749,444,l),
(650,444,l),
(630,330,l),
(660,345,l),
(643,417,o),
(599,453,o),
(519,453,cs),
(372,453,o),
(271,317,o),
(271,166,cs),
(271,61,o),
(331,-7,o),
(435,-7,cs),
(518,-7,o),
(597,42,o),
(633,113,c),
(610,150,l),
(610,118,l)
);
},
{
closed = 1;
nodes = (
(587,366,o),
(621,318,o),
(621,257,cs),
(621,165,o),
(556,81,o),
(470,81,cs),
(405,81,o),
(377,124,o),
(377,183,cs),
(377,273,o),
(430,366,o),
(520,366,cs)
);
}
);
width = 1025;
},
{
layerId = "A74DA284-3E8B-4DB3-928B-2F0253F1CAB3";
shapes = (
{
closed = 1;
nodes = (
(604,53,o),
(630,-5,o),
(698,-5,cs),
(815,-5,o),
(881,145,o),
(881,294,cs),
(881,488,o),
(736,624,o),
(529,624,cs),
(264,624,o),
(66,412,o),
(66,142,cs),
(66,-60,o),
(207,-186,o),
(409,-186,cs),
(469,-186,o),
(531,-174,o),
(584,-154,c),
(579,-136,l),
(529,-156,o),
(473,-168,o),
(415,-168,cs),
(217,-168,o),
(85,-51,o),
(86,147,cs),
(87,398,o),
(276,606,o),
(526,606,cs),
(726,606,o),
(861,480,o),
(861,290,cs),
(861,158,o),
(800,13,o),
(701,13,cs),
(647,13,o),
(622,61,o),
(634,126,cs),
(686,422,l),
(668,422,l),
(641,268,l),
(651,277,l),
(653,380,o),
(592,437,o),
(503,437,cs),
(362,437,o),
(267,306,o),
(267,163,cs),
(267,61,o),
(325,-5,o),
(425,-5,cs),
(514,-5,o),
(598,52,o),
(632,155,c),
(623,164,l),
(616,126,ls)
);
},
{
closed = 1;
nodes = (
(612,419,o),
(654,327,o),
(632,216,c),
(608,81,o),
(522,13,o),
(429,13,cs),
(340,13,o),
(287,71,o),
(287,165,cs),
(287,294,o),
(370,419,o),
(501,419,cs)
);
}
);
width = 965;
},
{
layerId = "ED744E86-D388-498D-94EB-FEBBBDC8F1CA";
shapes = (
{
closed = 1;
nodes = (
(605,42,o),
(642,-7,o),
(727,-7,cs),
(873,-7,o),
(955,156,o),
(955,311,cs),
(955,510,o),
(820,646,o),
(588,646,cs),
(285,646,o),
(70,419,o),
(70,130,cs),
(70,-73,o),
(213,-203,o),
(433,-203,cs),
(505,-203,o),
(574,-191,o),
(637,-164,c),
(622,-88,l),
(571,-113,o),
(510,-123,o),
(456,-123,cs),
(270,-123,o),
(163,-33,o),
(163,139,cs),
(163,382,o),
(335,567,o),
(574,567,cs),
(762,567,o),
(863,475,o),
(863,306,cs),
(863,210,o),
(826,69,o),
(744,69,cs),
(694,69,o),
(691,104,o),
(699,158,cs),
(749,444,l),
(650,444,l),
(630,330,l),
(660,345,l),
(643,417,o),
(599,453,o),
(519,453,cs),
(372,453,o),
(271,317,o),
(271,166,cs),
(271,61,o),
(331,-7,o),
(435,-7,cs),
(518,-7,o),
(597,42,o),
(633,113,c),
(610,150,l),
(610,118,l)
);
},
{
closed = 1;
nodes = (
(587,366,o),
(621,318,o),
(621,257,cs),
(621,165,o),
(556,81,o),
(470,81,cs),
(405,81,o),
(377,124,o),
(377,183,cs),
(377,273,o),
(430,366,o),
(520,366,cs)
);
}
);
width = 1026;
},
{
layerId = "15935870-0A58-425A-9765-D144975D2C89";
shapes = (
{
closed = 1;
nodes = (
(582,68,o),
(644,-4,o),
(762,-4,cs),
(942,-4,o),
(1037,138,o),
(1037,315,cs),
(1037,535,o),
(875,687,o),
(629,687,cs),
(308,687,o),
(60,459,o),
(60,136,cs),
(60,-95,o),
(217,-245,o),
(457,-245,cs),
(543,-245,o),
(623,-229,o),
(691,-199,c),
(653,-60,l),
(604,-81,o),
(540,-96,o),
(467,-96,cs),
(312,-96,o),
(220,2,o),
(220,152,cs),
(220,365,o),
(389,541,o),
(610,541,cs),
(772,541,o),
(874,447,o),
(874,309,cs),
(874,218,o),
(850,138,o),
(793,138,cs),
(763,138,o),
(757,163,o),
(764,201,cs),
(803,422,l),
(631,422,l),
(613,319,l),
(626,338,l),
(622,390,o),
(583,427,o),
(515,427,cs),
(386,427,o),
(297,295,o),
(297,153,cs),
(297,51,o),
(356,-7,o),
(452,-7,cs),
(538,-7,o),
(604,34,o),
(632,112,c),
(611,211,l),
(605,181,ls)
);
},
{
closed = 1;
nodes = (
(573,274,o),
(591,255,o),
(591,224,cs),
(591,178,o),
(557,147,o),
(525,147,cs),
(499,147,o),
(482,165,o),
(482,195,cs),
(482,242,o),
(514,274,o),
(548,274,cs)
);
}
);
width = 1114;
},
{
layerId = "57B79CA8-97D8-4C58-BF53-6BAB6214BDE2";
shapes = (
{
closed = 1;
nodes = (
(618,53,o),
(644,-5,o),
(712,-5,cs),
(829,-5,o),
(895,145,o),
(895,294,cs),
(895,488,o),
(750,624,o),
(543,624,cs),
(276,624,o),
(80,414,o),
(80,142,cs),
(80,-60,o),
(221,-186,o),
(423,-186,cs),
(483,-186,o),
(545,-174,o),
(598,-154,c),
(593,-136,l),
(543,-156,o),
(487,-168,o),
(429,-168,cs),
(233,-168,o),
(99,-49,o),
(100,147,cs),
(101,398,o),
(290,606,o),
(540,606,cs),
(740,606,o),
(875,480,o),
(875,290,cs),
(875,158,o),
(814,13,o),
(715,13,cs),
(661,13,o),
(636,61,o),
(648,126,cs),
(700,422,l),
(682,422,l),
(655,268,l),
(665,277,l),
(667,380,o),
(606,437,o),
(517,437,cs),
(376,437,o),
(281,306,o),
(281,163,cs),
(281,61,o),
(339,-5,o),
(439,-5,cs),
(528,-5,o),
(612,52,o),
(646,155,c),
(637,164,l),
(630,126,ls)
);
},
{
closed = 1;
nodes = (
(626,419,o),
(668,327,o),
(646,216,c),
(622,81,o),
(536,13,o),
(443,13,cs),
(354,13,o),
(301,71,o),
(301,165,cs),
(301,294,o),
(384,419,o),
(515,419,cs)
);
}
);
width = 975;
}
);
unicode = 64;
userData = {
com.schriftgestaltung.Glyphs.ColorIndex = 4;
};
}
{
glyphname = A;
layers = (
{
anchors = (
{
name = ogonek;
pos = (571,0);
},
{
name = top;
pos = (301,683);
}
);
layerId = "57B79CA8-97D8-4C58-BF53-6BAB6214BDE2";
shapes = (
{
closed = 1;
nodes = (
(291,683,l),
(30,0,l),
(53,0,l),
(308,668,l),
(295,668,l),
(548,0,l),
(571,0,l),
(311,683,l)
);
},
{
closed = 1;
nodes = (
(117,194,l),
(484,194,l),
(477,212,l),
(123,212,l)
);
}
);
width = 601;
},
{
anchors = (
{
name = ogonek;
pos = (773,0);
},
{
name = top;
pos = (387,711);
}
);
layerId = "A69CC389-2ECF-459C-A4E4-3168912CA6B4";
shapes = (
{
closed = 1;
nodes = (
(259,708,l),
(0,0,l),
(233,0,l),
(426,593,l),
(347,593,l),
(539,0,l),
(773,0,l),
(515,708,l)
);
},
{
closed = 1;
nodes = (
(114,107,l),
(634,107,l),
(579,274,l),
(170,274,l)
);
}
);
width = 773;
},
{
anchors = (
{
name = ogonek;
pos = (664,0);
},
{
name = top;
pos = (349,696);
}
);
layerId = "4D0F633C-81E1-4D6C-A640-637CE706A5C5";
shapes = (
{
closed = 1;
nodes = (
(283,696,l),
(34,0,l),
(153,0,l),
(375,634,l),
(322,634,l),
(544,0,l),
(664,0,l),
(415,696,l)
);
},
{
closed = 1;
nodes = (
(138,142,l),
(554,142,l),
(524,235,l),
(167,235,l)
);
}
);
width = 697;
},
{
anchors = (
{
name = ogonek;
pos = (523,0);
},
{
name = top;
pos = (374,683);
}
);
layerId = "A74DA284-3E8B-4DB3-928B-2F0253F1CAB3";
shapes = (
{
closed = 1;
nodes = (
(364,683,l),
(-18,0,l),
(5,0,l),
(378,668,l),
(365,668,l),
(500,0,l),
(523,0,l),
(384,683,l)
);
},
{
closed = 1;
nodes = (
(104,194,l),
(471,194,l),
(467,212,l),
(113,212,l)
);
}
);
width = 601;
},
{
anchors = (
{
name = ogonek;
pos = (612,0);
},
{
name = top;
pos = (420,696);
}
);
layerId = "ED744E86-D388-498D-94EB-FEBBBDC8F1CA";
shapes = (
{
closed = 1;
nodes = (
(354,696,l),
(-18,0,l),
(101,0,l),
(435,634,l),
(382,634,l),
(492,0,l),
(612,0,l),
(486,696,l)
);
},
{
closed = 1;
nodes = (
(111,142,l),
(527,142,l),
(513,231,l),
(156,231,l)
);
}
);
width = 697;
},
{
anchors = (
{
name = ogonek;
pos = (723,0);
},
{
name = top;
pos = (463,711);
}
);
layerId = "15935870-0A58-425A-9765-D144975D2C89";
shapes = (
{
closed = 1;
nodes = (
(334,708,l),
(-50,0,l),
(183,0,l),
(481,593,l),
(402,593,l),
(489,0,l),
(723,0,l),
(590,708,l)
);
},
{
closed = 1;
nodes = (
(83,107,l),
(603,107,l),
(578,274,l),
(169,274,l)
);
}
);
width = 773;
}
);
unicode = 65;
userData = {
com.schriftgestaltung.Glyphs.ColorIndex = 4;
com.typesupply.AccentFactory.yCoordinates = {
bottom = {
name = origin;
type = glyphMetric;
};
top = {
name = capHeight;
type = fontInfo;
};
};
};
}
{
glyphname = B;
layers = (
{
background = {
shapes = (
{
closed = 1;
nodes = (
(474,532,c),
(474,437,o),
(412,376,o),
(293,376,cs),
(105,376,l),
(105,684,l),
(287,684,ls),
(419,684,o),
(474,620,o)
);
},
{
closed = 1;
nodes = (
(510,188,cs),
(510,293,o),
(426,369,o),
(320,369,c),
(312,361,l),
(402,362,o),
(494,411,o),
(494,532,c),
(494,628,o),
(434,704,o),
(287,704,cs),
(85,704,l),
(85,0,l),
(287,0,ls),
(439,0,o),
(510,84,o)
);
},
{
closed = 1;
nodes = (
(490,188,cs),
(490,84,o),
(415,20,o),
(287,20,cs),
(105,20,l),
(105,356,l),
(285,356,ls),
(413,356,o),
(490,290,o)
);
}
);
};
layerId = "57B79CA8-97D8-4C58-BF53-6BAB6214BDE2";
shapes = (
{
closed = 1;
nodes = (
(474,532,c),
(474,437,o),
(412,376,o),
(293,376,cs),
(105,376,l),
(105,684,l),
(287,684,ls),
(419,684,o),
(474,620,o)
);
},
{
closed = 1;
nodes = (
(510,188,cs),
(510,293,o),
(426,369,o),
(329,369,c),
(321,361,l),
(402,362,o),
(494,411,o),
(494,532,c),
(494,628,o),
(434,704,o),
(287,704,cs),
(85,704,l),
(85,0,l),
(287,0,ls),
(439,0,o),
(510,84,o)
);
},
{
closed = 1;
nodes = (
(490,188,cs),
(490,84,o),
(415,20,o),
(287,20,cs),
(105,20,l),
(105,356,l),
(285,356,ls),
(413,356,o),
(490,290,o)
);
}
);
width = 560;
},
{
layerId = "A69CC389-2ECF-459C-A4E4-3168912CA6B4";
shapes = (
{
closed = 1;
nodes = (
(417,481,cs),
(417,446.596,o),
(398,432,o),
(358,432,cs),
(272,432,l),
(272,532,l),
(358,532,ls),
(398,532,o),
(417,515.641,o)
);
},
{
closed = 1;
nodes = (
(659,194,cs),
(659,285,o),
(595,364,o),
(481,369,c),
(464,357,l),
(563,352,o),
(643,416,o),
(643,524,cs),
(643,647,o),
(552,708,o),
(411,708,cs),
(50,708,l),
(50,0,l),
(421,0,ls),
(575,0,o),
(659,70,o)
);
},
{
closed = 1;
nodes = (
(432,227,cs),
(432,192.412,o),
(413,178,o),
(373,178,cs),
(272,178,l),
(272,278,l),
(373,278,ls),
(413,278,o),
(432,261.347,o)
);
}
);
width = 684;
},
{
background = {
shapes = (
{
closed = 1;
nodes = (
(449,502,cs),
(449,438,o),
(404,400,o),
(330,400,cs),
(189,400,l),
(189,606,l),
(330,606,ls),
(404,606,o),
(449,567,o)
);
},
{
closed = 1;
nodes = (
(581,183,cs),
(581,275,o),
(511,356,o),
(403,359,c),
(386,347,l),
(495,364,o),
(565,417,o),
(565,511,cs),
(565,614,o),
(487,695,o),
(340,695,cs),
(75,695,l),
(75,0,l),
(353,0,ls),
(495,0,o),
(581,79,o)
);
},
{
closed = 1;
nodes = (
(467,199,cs),
(467,130,o),
(420,89,o),
(343,89,cs),
(189,89,l),
(189,311,l),
(339,311,ls),
(415,311,o),
(467,268,o)
);
}
);
};
layerId = "4D0F633C-81E1-4D6C-A640-637CE706A5C5";
shapes = (
{
closed = 1;
nodes = (
(449,502,cs),
(449,438,o),
(404,403,o),
(330,403,cs),
(189,403,l),
(189,602,l),
(330,602,ls),
(404,602,o),
(449,565,o)
);
},
{
closed = 1;
nodes = (
(581,187,cs),
(581,277,o),
(511,356,o),
(428,359,c),
(411,347,l),
(495,364,o),
(565,417,o),
(565,516,cs),
(565,614,o),
(487,695,o),
(340,695,cs),
(75,695,l),
(75,0,l),
(353,0,ls),
(495,0,o),
(581,81,o)
);
},
{
closed = 1;
nodes = (
(467,199,cs),
(467,132,o),
(420,93,o),
(343,93,cs),
(189,93,l),
(189,310,l),
(339,310,ls),
(415,310,o),
(467,268,o)
);
}
);
width = 630;
},
{
associatedMasterId = "57B79CA8-97D8-4C58-BF53-6BAB6214BDE2";
layerId = "D4649D43-6673-4A72-AA31-BC47DDE7B5AE";
name = "Sep 19 17, 17:06";
shapes = (
{
closed = 1;
nodes = (
(474,532,c),
(474,437,o),
(412,376,o),
(293,376,cs),
(105,376,l),
(105,684,l),
(287,684,ls),
(419,684,o),
(474,620,o)
);
},
{
closed = 1;
nodes = (
(510,188,cs),
(510,293,o),
(426,369,o),
(320,369,c),
(312,361,l),
(402,362,o),
(494,411,o),
(494,532,c),
(494,628,o),
(434,704,o),
(287,704,cs),
(85,704,l),
(85,0,l),
(287,0,ls),
(439,0,o),
(510,84,o)
);
},
{
closed = 1;
nodes = (
(490,188,cs),
(490,84,o),
(415,20,o),
(287,20,cs),
(105,20,l),
(105,356,l),
(285,356,ls),
(413,356,o),
(490,290,o)
);
}
);
width = 560;
},
{
associatedMasterId = "4D0F633C-81E1-4D6C-A640-637CE706A5C5";
layerId = "C4420EFC-D5EF-4B28-ADC0-87A5182B2F17";
name = "Sep 19 17, 17:06";
shapes = (
{
closed = 1;
nodes = (
(449,502,cs),
(449,438,o),
(404,400,o),
(330,400,cs),
(189,400,l),
(189,606,l),
(330,606,ls),
(404,606,o),
(449,567,o)
);
},
{
closed = 1;
nodes = (
(581,183,cs),
(581,275,o),
(511,356,o),
(403,359,c),
(386,347,l),
(495,364,o),
(565,417,o),
(565,511,cs),
(565,614,o),
(487,695,o),
(340,695,cs),
(75,695,l),
(75,0,l),
(353,0,ls),
(495,0,o),
(581,79,o)
);
},
{
closed = 1;
nodes = (
(467,199,cs),
(467,130,o),
(420,89,o),
(343,89,cs),
(189,89,l),
(189,311,l),
(339,311,ls),
(415,311,o),
(467,268,o)
);
}
);
width = 630;
},
{
background = {
shapes = (
{
closed = 1;
nodes = (
(474,532,c),
(474,437,o),
(412,376,o),
(293,376,cs),
(105,376,l),
(105,684,l),
(287,684,ls),
(419,684,o),
(474,620,o)
);
},
{
closed = 1;
nodes = (
(510,188,cs),
(510,293,o),
(426,369,o),
(320,369,c),
(312,361,l),
(402,362,o),
(494,411,o),
(494,532,c),
(494,628,o),
(434,704,o),
(287,704,cs),
(85,704,l),
(85,0,l),
(287,0,ls),
(439,0,o),
(510,84,o)
);
},
{
closed = 1;
nodes = (
(490,188,cs),
(490,84,o),
(415,20,o),
(287,20,cs),
(105,20,l),
(105,356,l),
(285,356,ls),
(413,356,o),
(490,290,o)
);
}
);
};
layerId = "A74DA284-3E8B-4DB3-928B-2F0253F1CAB3";
shapes = (
{
closed = 1;
nodes = (
(520,532,c),
(503,437,o),
(431,376,o),
(312,376,cs),
(124,376,l),
(178,684,l),
(360,684,ls),
(492,684,o),
(536,620,o)
);
},
{
closed = 1;
nodes = (
(496,188,cs),
(514,293,o),
(443,369,o),
(346,369,c),
(337,361,l),
(418,362,o),
(519,411,o),
(540,532,c),
(557,628,o),
(511,704,o),
(364,704,cs),
(162,704,l),
(37,0,l),
(239,0,ls),
(391,0,o),
(477,84,o)
);
},
{
closed = 1;
nodes = (
(476,188,cs),
(457,84,o),
(371,20,o),
(243,20,cs),
(61,20,l),
(120,356,l),
(300,356,ls),
(428,356,o),
(494,290,o)
);
}
);
width = 560;
},
{
background = {
shapes = (
{
closed = 1;
nodes = (
(449,502,cs),
(449,438,o),
(404,400,o),
(330,400,cs),
(189,400,l),
(189,606,l),
(330,606,ls),
(404,606,o),
(449,567,o)
);
},
{
closed = 1;
nodes = (
(581,183,cs),
(581,275,o),
(511,356,o),
(403,359,c),
(386,347,l),
(495,364,o),
(565,417,o),
(565,511,cs),
(565,614,o),
(487,695,o),
(340,695,cs),
(75,695,l),
(75,0,l),
(353,0,ls),
(495,0,o),
(581,79,o)
);
},
{
closed = 1;
nodes = (
(467,199,cs),
(467,130,o),
(420,89,o),
(343,89,cs),
(189,89,l),
(189,311,l),
(339,311,ls),
(415,311,o),
(467,268,o)
);
}
);
};
layerId = "ED744E86-D388-498D-94EB-FEBBBDC8F1CA";
shapes = (
{
closed = 1;
nodes = (
(486,502,cs),
(475,438,o),
(423,400,o),
(349,400,cs),
(208,400,l),
(244,606,l),
(385,606,ls),
(459,606,o),
(497,567,o)
);
},
{
closed = 1;
nodes = (
(562,187,cs),
(578,277,o),
(522,356,o),
(440,359,c),
(421,347,l),
(508,364,o),
(587,417,o),
(604,516,cs),
(622,614,o),
(558,695,o),
(411,695,cs),
(146,695,l),
(23,0,l),
(301,0,ls),
(443,0,o),
(544,81,o)
);
},
{
closed = 1;
nodes = (
(450,199,cs),
(438,130,o),
(384,89,o),
(307,89,cs),
(153,89,l),
(192,311,l),
(342,311,ls),
(418,311,o),
(463,268,o)
);
}
);
width = 630;
},
{
layerId = "15935870-0A58-425A-9765-D144975D2C89";
shapes = (
{
closed = 1;
nodes = (
(452,481,cs),
(446,447,o),
(424,432,o),
(384,432,cs),
(298,432,l),
(316,532,l),
(402,532,ls),
(442,532,o),
(458,516,o)
);
},
{
closed = 1;
nodes = (
(643,194,cs),
(660,285,o),
(609,364,o),
(496,369,c),
(477,357,l),
(575,352,o),
(667,416,o),
(686,524,cs),
(707,647,o),
(627,708,o),
(486,708,cs),
(125,708,l),
(0,0,l),
(371,0,ls),
(525,0,o),
(622,70,o)
);
},
{
closed = 1;
nodes = (
(422,227,cs),
(416,192,o),
(395,178,o),
(355,178,cs),
(254,178,l),
(271,278,l),
(372,278,ls),
(412,278,o),
(428,261,o)
);
}
);
width = 684;
}
);
unicode = 66;
userData = {
com.schriftgestaltung.Glyphs.ColorIndex = 4;
com.typesupply.AccentFactory.yCoordinates = {
bottom = {
name = origin;
type = glyphMetric;
};
top = {
name = capHeight;
type = fontInfo;
};
};
};
}
{
glyphname = C;
layers = (
{
anchors = (
{
name = bottom;
pos = (411,0);
},
{
name = top;
pos = (411,683);
}
);
layerId = "57B79CA8-97D8-4C58-BF53-6BAB6214BDE2";
shapes = (
{
closed = 1;
nodes = (
(60,351,c),
(60,141,o),
(197,-7,o),
(388,-7,c),
(557,-7,o),
(661,78,o),
(709,207,c),
(689,207,l),
(648,95,o),
(548,11,o),
(388,11,c),
(218,11,o),
(81,140,o),
(81,351,c),
(81,564,o),
(218,693,o),
(388,693,c),
(548,693,o),
(648,609,o),
(689,496,c),
(709,496,l),
(661,626,o),
(557,711,o),
(388,711,c),
(197,711,o),
(60,563,o)
);
}
);
width = 769;
},
{
anchors = (
{
name = bottom;
pos = (377,0);
},
{
name = top;
pos = (377,711);
}
);
layerId = "A69CC389-2ECF-459C-A4E4-3168912CA6B4";
shapes = (
{
closed = 1;
nodes = (
(30,355,c),
(30,144,o),
(163,-5,o),
(380,-5,c),
(567,-5,o),
(694,107,o),
(723,274,c),
(489,274,l),
(468,227,o),
(426,200,o),
(376,200,c),
(301,200,o),
(255,261,o),
(255,355,c),
(255,449,o),
(301,510,o),
(376,510,c),
(426,510,o),
(468,483,o),
(489,436,c),
(723,436,l),
(694,603,o),
(567,715,o),
(380,715,c),
(163,715,o),
(30,566,o)
);
}
);
width = 753;
},
{
anchors = (
{
name = bottom;
pos = (386,0);
},
{
name = top;
pos = (392,704);
}
);
layerId = "4D0F633C-81E1-4D6C-A640-637CE706A5C5";
shapes = (
{
closed = 1;
nodes = (
(37,349,cs),
(37,140,o),
(196,-6,o),
(392,-6,cs),
(537,-6,o),
(662,66,o),
(715,202,c),
(578,202,l),
(541,128,o),
(475,93,o),
(392,93,cs),
(254,93,o),
(154,192,o),
(154,349,cs),
(154,506,o),
(254,604,o),
(392,604,cs),
(475,604,o),
(541,569,o),
(578,495,c),
(715,495,l),
(662,631,o),
(537,704,o),
(392,704,cs),
(196,704,o),
(37,557,o)
);
}
);
width = 773;
},
{
anchors = (
{
name = bottom;
pos = (363,0);
},
{
name = top;
pos = (484,683);
}
);
layerId = "A74DA284-3E8B-4DB3-928B-2F0253F1CAB3";
shapes = (
{
closed = 1;
nodes = (
(74,351,c),
(37,141,o),
(148,-7,o),
(339,-7,c),
(508,-7,o),
(627,78,o),
(698,207,c),
(678,207,l),
(617,95,o),
(502,11,o),
(342,11,c),
(172,11,o),
(58,140,o),
(95,351,c),
(133,564,o),
(293,693,o),
(463,693,c),
(623,693,o),
(708,609,o),
(729,496,c),
(749,496,l),
(724,626,o),
(635,711,o),
(466,711,c),
(275,711,o),
(112,563,o)
);
}
);
width = 769;
},
{
anchors = (
{
name = bottom;
pos = (334,0);
},
{
name = top;
pos = (457,696);
}
);
layerId = "ED744E86-D388-498D-94EB-FEBBBDC8F1CA";
shapes = (
{
closed = 1;
nodes = (
(47,349,cs),
(10,140,o),
(143,-6,o),
(339,-6,cs),
(484,-6,o),
(622,66,o),
(699,202,c),
(562,202,l),
(513,132,o),
(440,97,o),
(357,97,cs),
(219,97,o),
(137,196,o),
(164,349,cs),
(191,502,o),
(308,600,o),
(446,600,cs),
(529,600,o),
(589,565,o),
(614,495,c),
(751,495,l),
(722,631,o),
(609,704,o),
(464,704,cs),
(268,704,o),
(84,557,o)
);
}
);
width = 773;
},
{
anchors = (
{
name = bottom;
pos = (327,0);
},
{
name = top;
pos = (453,711);
}
);
layerId = "15935870-0A58-425A-9765-D144975D2C89";
shapes = (
{
closed = 1;
nodes = (
(43,355,c),
(6,144,o),
(112,-5,o),
(329,-5,c),
(516,-5,o),
(663,107,o),
(722,274,c),
(488,274,l),
(458,227,o),
(412,200,o),
(362,200,c),
(287,200,o),
(251,261,o),
(268,355,c),
(284,449,o),
(341,510,o),
(416,510,c),
(466,510,o),
(503,483,o),
(516,436,c),
(750,436,l),
(751,603,o),
(643,715,o),
(456,715,c),
(239,715,o),
(80,566,o)
);
}
);
width = 753;
}
);
unicode = 67;
userData = {
com.schriftgestaltung.Glyphs.ColorIndex = 4;
com.typesupply.AccentFactory.yCoordinates = {
bottom = {
name = origin;
type = glyphMetric;
};
top = {
name = capHeight;
type = fontInfo;
};
};
};
}
{
glyphname = D;
layers = (
{
anchors = (
{
name = top;
pos = (340,683);
}
);
layerId = "57B79CA8-97D8-4C58-BF53-6BAB6214BDE2";
shapes = (
{
closed = 1;
nodes = (
(270,704,c),
(85,704,l),
(85,0,l),
(270,0,l),
(515,0,o),
(642,130,o),
(642,352,c),
(642,574,o),
(515,704,o)
);
},
{
closed = 1;
nodes = (
(105,18,l),
(105,686,l),
(270,686,l),
(506,686,o),
(622,558,o),
(622,352,c),
(622,146,o),
(506,18,o),
(270,18,c)
);
}
);
width = 702;
},
{
anchors = (
{
name = top;
pos = (359,711);
}
);
layerId = "A69CC389-2ECF-459C-A4E4-3168912CA6B4";
shapes = (
{
closed = 1;
nodes = (
(345,708,cs),
(50,708,l),
(50,0,l),
(345,0,ls),
(571,0,o),
(713,154,o),
(713,356,cs),
(713,560,o),
(571,708,o)
);
},
{
closed = 1;
nodes = (
(272,198,l),
(272,514,l),
(325,514,ls),
(423,514,o),
(488,459,o),
(488,356,cs),
(488,253,o),
(423,198,o),
(325,198,cs)
);
}
);
width = 743;
},
{
anchors = (
{
name = top;
pos = (355,696);
}
);
layerId = "4D0F633C-81E1-4D6C-A640-637CE706A5C5";
shapes = (
{
closed = 1;
nodes = (
(302,695,cs),
(75,695,l),
(75,0,l),
(302,0,ls),
(525,0,o),
(671,131,o),
(671,345,cs),
(671,560,o),
(525,695,o)
);
},
{
closed = 1;
nodes = (
(189,93,l),
(189,602,l),
(302,602,ls),
(466,602,o),
(554,504,o),
(554,345,cs),
(554,187,o),
(466,93,o),
(302,93,cs)
);
}
);
width = 709;
},
{
anchors = (
{
name = top;
pos = (413,683);
}
);
layerId = "A74DA284-3E8B-4DB3-928B-2F0253F1CAB3";
shapes = (
{
closed = 1;
nodes = (
(347,704,c),
(162,704,l),
(37,0,l),
(222,0,l),
(467,0,o),
(617,130,o),
(656,352,c),
(696,574,o),
(592,704,o)
);
},
{
closed = 1;
nodes = (
(61,18,l),
(178,686,l),
(343,686,l),
(579,686,o),
(673,558,o),
(636,352,c),
(600,146,o),
(462,18,o),
(226,18,c)
);
}
);
width = 702;
},
{
anchors = (
{
name = top;
pos = (426,696);
}
);
layerId = "ED744E86-D388-498D-94EB-FEBBBDC8F1CA";
shapes = (
{
closed = 1;
nodes = (
(373,695,cs),
(146,695,l),
(23,0,l),
(250,0,ls),
(473,0,o),
(642,131,o),
(680,345,cs),
(718,560,o),
(596,695,o)
);
},
{
closed = 1;
nodes = (
(153,87,l),
(244,603,l),
(357,603,ls),
(521,603,o),
(591,504,o),
(563,345,cs),
(535,187,o),
(430,87,o),
(266,87,cs)
);
}
);
width = 709;
},
{
anchors = (
{
name = top;
pos = (435,711);
}
);
layerId = "15935870-0A58-425A-9765-D144975D2C89";
shapes = (
{
closed = 1;
nodes = (
(420,708,cs),
(125,708,l),
(0,0,l),
(295,0,ls),
(521,0,o),
(690,154,o),
(726,356,cs),
(762,560,o),
(646,708,o)
);
},
{
closed = 1;
nodes = (
(257,198,l),
(313,514,l),
(366,514,ls),
(464,514,o),
(519,459,o),
(501,356,cs),
(483,253,o),
(408,198,o),
(310,198,cs)
);
}
);
width = 743;
}
);
unicode = 68;
userData = {
com.schriftgestaltung.Glyphs.ColorIndex = 4;
com.typemytype.robofont.guides = (
{
angle = 0;
isGlobal = 0;
magnetic = 5;
x = 122;
y = 684;
}
);
com.typesupply.AccentFactory.yCoordinates = {
bottom = {
name = origin;
type = glyphMetric;
};
top = {
name = capHeight;
type = fontInfo;
};
};
};
}
{
glyphname = E;
layers = (
{
anchors = (
{
name = bottom;
pos = (233,0);
},
{
name = ogonek;
pos = (429,0);
},
{
name = top;
pos = (233,683);
}
);
layerId = "57B79CA8-97D8-4C58-BF53-6BAB6214BDE2";
shapes = (
{
closed = 1;
nodes = (
(429,704,l),
(85,704,l),
(85,0,l),
(429,0,l),
(429,18,l),
(105,18,l),
(105,343,l),
(399,343,l),
(399,361,l),
(105,361,l),
(105,686,l),
(429,686,l)
);
}
);
width = 479;
},
{
anchors = (
{
name = bottom;
pos = (282,0);
},
{
name = ogonek;
pos = (522,0);
},
{
name = top;
pos = (282,711);
}
);
layerId = "A69CC389-2ECF-459C-A4E4-3168912CA6B4";
shapes = (
{
closed = 1;
nodes = (
(522,708,l),
(50,708,l),
(50,0,l),
(522,0,l),
(522,177,l),
(272,177,l),
(272,277,l),
(492,277,l),
(492,444,l),
(272,444,l),
(272,531,l),
(522,531,l)
);
}
);
width = 556;
},
{
anchors = (
{
name = bottom;
pos = (262,0);
},
{
name = ogonek;
pos = (459,0);
},
{
name = top;
pos = (262,696);
}
);
layerId = "4D0F633C-81E1-4D6C-A640-637CE706A5C5";
shapes = (
{
closed = 1;
nodes = (
(459,696,l),
(75,696,l),
(75,0,l),
(459,0,l),
(459,93,l),
(189,93,l),
(189,306,l),
(429,306,l),
(429,399,l),
(189,399,l),
(189,603,l),
(459,603,l)
);
}
);
width = 524;
},
{
anchors = (
{
name = bottom;
pos = (185,0);
},
{
name = ogonek;
pos = (381,0);
},
{
name = top;
pos = (306,683);
}
);
layerId = "A74DA284-3E8B-4DB3-928B-2F0253F1CAB3";
shapes = (
{
closed = 1;
nodes = (
(506,704,l),
(162,704,l),
(37,0,l),
(381,0,l),
(385,18,l),
(61,18,l),
(118,343,l),
(412,343,l),
(415,361,l),
(121,361,l),
(178,686,l),
(502,686,l)
);
}
);
width = 479;
},
{
anchors = (
{
name = bottom;
pos = (210,0);
},
{
name = ogonek;
pos = (407,0);
},
{
name = top;
pos = (333,696);
}
);
layerId = "ED744E86-D388-498D-94EB-FEBBBDC8F1CA";
shapes = (
{
closed = 1;
nodes = (
(530,696,l),
(146,696,l),
(23,0,l),
(407,0,l),
(423,89,l),
(153,89,l),
(192,308,l),
(432,308,l),
(447,396,l),
(207,396,l),
(244,607,l),
(514,607,l)
);
}
);
width = 524;
},
{
anchors = (
{
name = bottom;
pos = (232,0);
},
{
name = ogonek;
pos = (472,0);
},
{
name = top;
pos = (358,711);
}
);
layerId = "15935870-0A58-425A-9765-D144975D2C89";
shapes = (
{
closed = 1;
nodes = (
(597,708,l),
(125,708,l),
(0,0,l),
(472,0,l),
(503,177,l),
(253,177,l),
(271,277,l),
(491,277,l),
(521,444,l),
(301,444,l),
(316,532,l),
(566,532,l)
);
}
);
width = 556;
}
);
unicode = 69;
userData = {
com.schriftgestaltung.Glyphs.ColorIndex = 4;
com.typesupply.AccentFactory.yCoordinates = {
bottom = {
name = origin;
type = glyphMetric;
};
top = {
name = capHeight;
type = fontInfo;
};
};
};
}
{
glyphname = F;
layers = (
{
layerId = "57B79CA8-97D8-4C58-BF53-6BAB6214BDE2";
shapes = (
{
closed = 1;
nodes = (
(85,0,l),
(105,0,l),
(105,343,l),
(399,343,l),
(399,361,l),
(105,361,l),
(105,686,l),
(429,686,l),
(429,704,l),
(85,704,l)
);
}
);
width = 469;
},
{
layerId = "A69CC389-2ECF-459C-A4E4-3168912CA6B4";
shapes = (
{
closed = 1;
nodes = (
(50,0,l),
(272,0,l),
(272,267,l),
(472,267,l),
(472,434,l),
(272,434,l),
(272,532,l),
(550,532,l),
(550,708,l),
(50,708,l)
);
}
);
width = 575;
},
{
layerId = "4D0F633C-81E1-4D6C-A640-637CE706A5C5";
shapes = (
{
closed = 1;
nodes = (
(75,0,l),
(189,0,l),
(189,304,l),
(419,304,l),
(419,397,l),
(189,397,l),
(189,602,l),
(484,602,l),
(484,695,l),
(75,695,l)
);
}
);
width = 515;
},
{
layerId = "A74DA284-3E8B-4DB3-928B-2F0253F1CAB3";
shapes = (
{
closed = 1;
nodes = (
(37,0,l),
(57,0,l),
(118,343,l),
(412,343,l),
(415,361,l),
(121,361,l),
(178,686,l),
(502,686,l),
(506,704,l),
(162,704,l)
);
}
);
width = 469;
},
{
layerId = "ED744E86-D388-498D-94EB-FEBBBDC8F1CA";
shapes = (
{
closed = 1;
nodes = (
(23,0,l),
(137,0,l),
(191,307,l),
(421,307,l),
(437,395,l),
(207,395,l),
(244,606,l),
(539,606,l),
(555,695,l),
(146,695,l)
);
}
);
width = 515;
},
{
layerId = "15935870-0A58-425A-9765-D144975D2C89";
shapes = (
{
closed = 1;
nodes = (
(0,0,l),
(222,0,l),
(269,267,l),
(469,267,l),
(499,434,l),
(299,434,l),
(316,532,l),
(594,532,l),
(625,708,l),
(125,708,l)
);
}
);
width = 575;
}
);
unicode = 70;
userData = {
com.schriftgestaltung.Glyphs.ColorIndex = 4;
com.typesupply.AccentFactory.yCoordinates = {
bottom = {
name = origin;
type = glyphMetric;
};
top = {
name = capHeight;
type = fontInfo;
};
};
};
}
{
glyphname = G;
layers = (
{
anchors = (
{
name = bottom;
pos = (411,0);
},
{
name = top;
pos = (411,683);
}
);
layerId = "57B79CA8-97D8-4C58-BF53-6BAB6214BDE2";
shapes = (
{
closed = 1;
nodes = (
(661,624,o),
(551,710,o),
(396,710,c),
(200,710,o),
(60,562,o),
(60,351,c),
(60,140,o),
(200,-8,o),
(396,-8,c),
(592,-8,o),
(732,140,o),
(732,351,c),
(732,359,l),
(381,359,l),
(381,341,l),
(713,341,l),
(708,135,o),
(568,10,o),
(396,10,c),
(221,10,o),
(81,139,o),
(81,351,c),
(81,563,o),
(221,692,o),
(396,692,c),
(542,692,o),
(648,608,o),
(689,495,c),
(709,495,l)
);
}
);
width = 792;
},
{
anchors = (
{
name = bottom;
pos = (377,0);
},
{
name = top;
pos = (377,711);
}
);
layerId = "A69CC389-2ECF-459C-A4E4-3168912CA6B4";
shapes = (
{
closed = 1;
nodes = (
(697,617,o),
(576,715,o),
(388,715,c),
(166,715,o),
(30,566,o),
(30,355,c),
(30,144,o),
(167,-5,o),
(390,-5,c),
(573,-5,o),
(673,102,o),
(722,187,c),
(722,409,l),
(361,409,l),
(361,252,l),
(538,252,l),
(505,208,o),
(464,190,o),
(414,190,c),
(305,190,o),
(255,245,o),
(255,355,c),
(255,449,o),
(303,510,o),
(389,510,c),
(435,510,o),
(467,493,o),
(484,466,c),
(718,466,l)
);
}
);
width = 752;
},
{
anchors = (
{
name = bottom;
pos = (386,0);
},
{
name = top;
pos = (386,696);
}
);
layerId = "4D0F633C-81E1-4D6C-A640-637CE706A5C5";
shapes = (
{
closed = 1;
nodes = (
(662,631,o),
(537,704,o),
(392,704,cs),
(196,704,o),
(37,557,o),
(37,349,cs),
(37,140,o),
(196,-6,o),
(392,-6,cs),
(579,-6,o),
(715,131,o),
(736,292,c),
(736,381,l),
(353,381,l),
(353,290,l),
(614,290,l),
(597,173,o),
(518,97,o),
(392,97,cs),
(254,97,o),
(154,196,o),
(154,349,cs),
(154,502,o),
(254,600,o),
(392,600,cs),
(475,600,o),
(541,565,o),
(578,495,c),
(715,495,l)
);
}
);
width = 773;
},
{
anchors = (
{
name = bottom;
pos = (363,0);
},
{
name = top;
pos = (484,683);
}
);
layerId = "A74DA284-3E8B-4DB3-928B-2F0253F1CAB3";
shapes = (
{
closed = 1;
nodes = (
(74,351,c),
(37,140,o),
(151,-8,o),
(347,-8,c),
(543,-8,o),
(709,140,o),
(746,351,c),
(748,359,l),
(397,359,l),
(394,341,l),
(726,341,l),
(684,135,o),
(522,10,o),
(350,10,c),
(175,10,o),
(58,139,o),
(95,351,c),
(133,563,o),
(295,692,o),
(470,692,c),
(616,692,o),
(708,608,o),
(729,495,c),
(749,495,l),
(723,624,o),
(629,710,o),
(474,710,c),
(278,710,o),
(111,562,o)
);
}
);
width = 792;
},
{
anchors = (
{
name = bottom;
pos = (334,0);
},
{
name = top;
pos = (457,696);
}
);
background = {
shapes = (
{
closed = 1;
nodes = (
(47,349,cs),
(10,140,o),
(143,-6,o),
(339,-6,cs),
(526,-6,o),
(686,131,o),
(736,292,c),
(752,381,l),
(369,381,l),
(353,292,l),
(614,292,l),
(577,174,o),
(483,97,o),
(357,97,cs),
(219,97,o),
(137,196,o),
(164,349,cs),
(191,502,o),
(308,600,o),
(446,600,cs),
(529,600,o),
(589,565,o),
(614,495,c),
(751,495,l),
(722,631,o),
(609,704,o),
(464,704,cs),
(268,704,o),
(84,557,o)
);
}
);
};
layerId = "ED744E86-D388-498D-94EB-FEBBBDC8F1CA";
shapes = (
{
closed = 1;
nodes = (
(47,349,cs),
(10,140,o),
(143,-6,o),
(339,-6,cs),
(526,-6,o),
(686,131,o),
(736,292,c),
(752,381,l),
(369,381,l),
(353,292,l),
(614,292,l),
(577,174,o),
(483,97,o),
(357,97,cs),
(219,97,o),
(137,196,o),
(164,349,cs),
(191,502,o),
(308,600,o),
(446,600,cs),
(529,600,o),
(589,565,o),
(614,495,c),
(751,495,l),
(722,631,o),
(609,704,o),
(464,704,cs),
(268,704,o),
(84,557,o)
);
}
);
width = 773;
},
{
anchors = (
{
name = bottom;
pos = (327,0);
},
{
name = top;
pos = (453,711);
}
);
layerId = "15935870-0A58-425A-9765-D144975D2C89";
shapes = (
{
closed = 1;
nodes = (
(43,355,c),
(6,144,o),
(116,-5,o),
(339,-5,c),
(522,-5,o),
(641,102,o),
(705,187,c),
(744,409,l),
(383,409,l),
(356,252,l),
(533,252,l),
(492,208,o),
(448,190,o),
(398,190,c),
(289,190,o),
(248,245,o),
(268,355,c),
(284,449,o),
(343,510,o),
(429,510,c),
(475,510,o),
(504,493,o),
(516,466,c),
(750,466,l),
(756,617,o),
(652,715,o),
(464,715,c),
(242,715,o),
(80,566,o)
);
}
);
width = 752;
}
);
unicode = 71;
userData = {
com.schriftgestaltung.Glyphs.ColorIndex = 4;
com.typemytype.robofont.layerData = {
b = {
anchors = (
{
name = top;
x = 411;
y = 683;
},
{
name = bottom;
x = 411;
y = 0;
}
);
components = (
);
contours = (
{
points = (
{
segmentType = curve;
smooth = 1;
x = 60;
y = 341;
},
{
smooth = 0;
x = 60;
y = 138;
},
{
smooth = 0;
x = 214;
y = -6;
},
{
segmentType = curve;
smooth = 1;
x = 407;
y = -6;
},
{
smooth = 0;
x = 590;
y = -6;
},
{
smooth = 0;
x = 747;
y = 110;
},
{
segmentType = curve;
smooth = 0;
x = 764;
y = 341;
},
{
segmentType = line;
smooth = 0;
x = 764;
y = 360;
},
{
segmentType = line;
smooth = 0;
x = 381;
y = 360;
},
{
segmentType = line;
smooth = 0;
x = 381;
y = 341;
},
{
segmentType = line;
smooth = 0;
x = 747;
y = 341;
},
{
smooth = 0;
x = 733;
y = 132;
},
{
smooth = 0;
x = 600;
y = 6;
},
{
segmentType = curve;
smooth = 1;
x = 407;
y = 6;
},
{
smooth = 0;
x = 226;
y = 6;
},
{
smooth = 0;
x = 80;
y = 137;
},
{
segmentType = curve;
smooth = 1;
x = 80;
y = 341;
},
{
smooth = 0;
x = 80;
y = 547;
},
{
smooth = 0;
x = 226;
y = 677;
},
{
segmentType = curve;
smooth = 1;
x = 407;
y = 677;
},
{
smooth = 0;
x = 528;
y = 677;
},
{
smooth = 0;
x = 633;
y = 618;
},
{
segmentType = curve;
smooth = 0;
x = 683;
y = 525;
},
{
segmentType = line;
smooth = 0;
x = 709;
y = 525;
},
{
smooth = 0;
x = 648;
y = 637;
},
{
smooth = 0;
x = 537;
y = 690;
},
{
segmentType = curve;
smooth = 1;
x = 407;
y = 690;
},
{
smooth = 0;
x = 214;
y = 690;
},
{
smooth = 0;
x = 60;
y = 546;
}
);
}
);
lib = {
};
name = G;
unicodes = (
);
width = 792;
};
};
com.typesupply.AccentFactory.yCoordinates = {
bottom = {
name = origin;
type = glyphMetric;
};
top = {
name = capHeight;
type = fontInfo;
};
};
};
}
{
glyphname = H;
layers = (
{
layerId = "57B79CA8-97D8-4C58-BF53-6BAB6214BDE2";
shapes = (
{
closed = 1;
nodes = (
(85,0,l),
(105,0,l),
(105,704,l),
(85,704,l)
);
},
{
closed = 1;
nodes = (
(544,0,l),
(564,0,l),
(564,704,l),
(544,704,l)
);
},
{
closed = 1;
nodes = (
(95,353,l),
(556,353,l),
(556,371,l),
(95,371,l)
);
}
);
width = 650;
},
{
layerId = "A69CC389-2ECF-459C-A4E4-3168912CA6B4";
shapes = (
{
closed = 1;
nodes = (
(50,0,l),
(272,0,l),
(272,708,l),
(50,708,l)
);
},
{
closed = 1;
nodes = (
(483,0,l),
(705,0,l),
(705,708,l),
(483,708,l)
);
},
{
closed = 1;
nodes = (
(252,276,l),
(505,276,l),
(505,453,l),
(252,453,l)
);
}
);
width = 755;
},
{
guides = (
{
pos = (132,695);
}
);
layerId = "4D0F633C-81E1-4D6C-A640-637CE706A5C5";
shapes = (
{
closed = 1;
nodes = (
(75,0,l),
(189,0,l),
(189,695,l),
(75,695,l)
);
},
{
closed = 1;
nodes = (
(516,0,l),
(630,0,l),
(630,695,l),
(516,695,l)
);
},
{
closed = 1;
nodes = (
(169,304,l),
(543,304,l),
(543,397,l),
(169,397,l)
);
}
);
width = 705;
},
{
layerId = "A74DA284-3E8B-4DB3-928B-2F0253F1CAB3";
shapes = (
{
closed = 1;
nodes = (
(37,0,l),
(57,0,l),
(182,704,l),
(162,704,l)
);
},
{
closed = 1;
nodes = (
(496,0,l),
(516,0,l),
(641,704,l),
(621,704,l)
);
},
{
closed = 1;
nodes = (
(110,353,l),
(571,353,l),
(574,371,l),
(113,371,l)
);
}
);
width = 649;
},
{
guides = (
{
pos = (471,675);
}
);
layerId = "ED744E86-D388-498D-94EB-FEBBBDC8F1CA";
shapes = (
{
closed = 1;
nodes = (
(23,0,l),
(137,0,l),
(260,695,l),
(146,695,l)
);
},
{
closed = 1;
nodes = (
(464,0,l),
(578,0,l),
(701,695,l),
(587,695,l)
);
},
{
closed = 1;
nodes = (
(171,307,l),
(545,307,l),
(561,395,l),
(187,395,l)
);
}
);
width = 705;
},
{
layerId = "15935870-0A58-425A-9765-D144975D2C89";
shapes = (
{
closed = 1;
nodes = (
(0,0,l),
(222,0,l),
(347,708,l),
(125,708,l)
);
},
{
closed = 1;
nodes = (
(433,0,l),
(655,0,l),
(780,708,l),
(558,708,l)
);
},
{
closed = 1;
nodes = (
(251,276,l),
(504,276,l),
(535,453,l),
(282,453,l)
);
}
);
width = 755;
}
);
unicode = 72;
userData = {
com.schriftgestaltung.Glyphs.ColorIndex = 4;
com.typesupply.AccentFactory.yCoordinates = {
bottom = {
name = origin;
type = glyphMetric;
};
top = {
name = capHeight;
type = fontInfo;
};
};
};
}
{
glyphname = I;
layers = (
{
anchors = (
{
name = ogonek;
pos = (105,0);
},
{
name = top;
pos = (95,683);
}
);
layerId = "57B79CA8-97D8-4C58-BF53-6BAB6214BDE2";
shapes = (
{
closed = 1;
nodes = (
(85,0,l),
(105,0,l),
(105,704,l),
(85,704,l)
);
}
);
width = 190;
},
{
anchors = (
{
name = ogonek;
pos = (272,0);
},
{
name = top;
pos = (162,711);
}
);
layerId = "A69CC389-2ECF-459C-A4E4-3168912CA6B4";
shapes = (
{
closed = 1;
nodes = (
(50,0,l),
(272,0,l),
(272,708,l),
(50,708,l)
);
}
);
width = 322;
},
{
anchors = (
{
name = ogonek;
pos = (189,1);
},
{
name = top;
pos = (132,696);
}
);
layerId = "4D0F633C-81E1-4D6C-A640-637CE706A5C5";
shapes = (
{
closed = 1;
nodes = (
(75,0,l),
(189,0,l),
(189,695,l),
(75,695,l)
);
}
);
width = 264;
},
{
anchors = (
{
name = ogonek;
pos = (57,0);
},
{
name = top;
pos = (168,683);
}
);
layerId = "A74DA284-3E8B-4DB3-928B-2F0253F1CAB3";
shapes = (
{
closed = 1;
nodes = (
(37,0,l),
(57,0,l),
(182,704,l),
(162,704,l)
);
}
);
width = 190;
},
{
anchors = (
{
name = ogonek;
pos = (138,1);
},
{
name = top;
pos = (203,696);
}
);
layerId = "ED744E86-D388-498D-94EB-FEBBBDC8F1CA";
shapes = (
{
closed = 1;
nodes = (
(23,0,l),
(137,0,l),
(260,695,l),
(146,695,l)
);
}
);
width = 264;
},
{
anchors = (
{
name = ogonek;
pos = (222,0);
},
{
name = top;
pos = (238,711);
}
);
layerId = "15935870-0A58-425A-9765-D144975D2C89";
shapes = (
{
closed = 1;
nodes = (
(0,0,l),
(222,0,l),
(347,708,l),
(125,708,l)
);
}
);
width = 322;
}
);
unicode = 73;
userData = {
com.schriftgestaltung.Glyphs.ColorIndex = 4;
com.typemytype.robofont.guides = (
{
angle = 0;
isGlobal = 0;
magnetic = 5;
x = 83;
y = 684;
}
);
com.typesupply.AccentFactory.yCoordinates = {
bottom = {
name = origin;
type = glyphMetric;
};
top = {
name = capHeight;
type = fontInfo;
};
};
};
}
{
glyphname = J;
layers = (
{
layerId = "57B79CA8-97D8-4C58-BF53-6BAB6214BDE2";
shapes = (
{
closed = 1;
nodes = (
(326,143,ls),
(326,85,o),
(298,11,o),
(193,11,cs),
(86,11,o),
(50,89,o),
(50,173,c),
(30,173,l),
(30,63,o),
(88,-7,o),
(193,-7,cs),
(292,-7,o),
(346,60,o),
(346,143,cs),
(346,704,l),
(326,704,l)
);
}
);
width = 426;
},
{
layerId = "A69CC389-2ECF-459C-A4E4-3168912CA6B4";
shapes = (
{
closed = 1;
nodes = (
(323,251,ls),
(323,205,o),
(305,193,o),
(281,193,cs),
(252,193,o),
(229,209,o),
(229,271,c),
(10,271,l),
(10,85,o),
(125,-7,o),
(291,-7,cs),
(447,-7,o),
(544,78,o),
(544,251,cs),
(544,708,l),
(323,708,l)
);
}
);
width = 590;
},
{
layerId = "4D0F633C-81E1-4D6C-A640-637CE706A5C5";
shapes = (
{
closed = 1;
nodes = (
(339,194,ls),
(339,136,o),
(310,94,o),
(249,94,cs),
(188,94,o),
(160,136,o),
(159,194,c),
(44,194,l),
(44,68,o),
(129,-7,o),
(249,-7,cs),
(369,-7,o),
(454,68,o),
(454,194,cs),
(454,695,l),
(339,695,l)
);
}
);
width = 564;
},
{
layerId = "A74DA284-3E8B-4DB3-928B-2F0253F1CAB3";
shapes = (
{
closed = 1;
nodes = (
(304,143,ls),
(293,85,o),
(252,11,o),
(147,11,cs),
(40,11,o),
(18,89,o),
(33,173,c),
(13,173,l),
(-6,63,o),
(39,-7,o),
(144,-7,cs),
(243,-7,o),
(309,60,o),
(324,143,cs),
(423,704,l),
(403,704,l)
);
}
);
width = 426;
},
{
layerId = "ED744E86-D388-498D-94EB-FEBBBDC8F1CA";
shapes = (
{
closed = 1;
nodes = (
(322,194,ls),
(311,136,o),
(275,94,o),
(214,94,cs),
(153,94,o),
(132,136,o),
(142,194,c),
(27,194,l),
(4,68,o),
(76,-7,o),
(196,-7,cs),
(316,-7,o),
(414,68,o),
(437,194,cs),
(525,695,l),
(410,695,l)
);
}
);
width = 564;
},
{
layerId = "15935870-0A58-425A-9765-D144975D2C89";
shapes = (
{
closed = 1;
nodes = (
(318,251,ls),
(309,205,o),
(289,193,o),
(265,193,cs),
(236,193,o),
(216,209,o),
(227,271,c),
(8,271,l),
(-25,85,o),
(74,-7,o),
(240,-7,cs),
(396,-7,o),
(508,78,o),
(539,251,cs),
(619,708,l),
(398,708,l)
);
}
);
width = 590;
}
);
unicode = 74;
userData = {
com.schriftgestaltung.Glyphs.ColorIndex = 4;
com.typesupply.AccentFactory.yCoordinates = {
bottom = {
name = origin;
type = glyphMetric;
};
top = {
name = capHeight;
type = fontInfo;
};
};
};
}
{
glyphname = K;
layers = (
{
anchors = (
{
name = bottom;
pos = (255,0);
},
{
name = top;
pos = (255,683);
}
);
layerId = "57B79CA8-97D8-4C58-BF53-6BAB6214BDE2";
shapes = (
{
closed = 1;
nodes = (
(85,0,l),
(105,0,l),
(105,704,l),
(85,704,l)
);
},
{
closed = 1;
nodes = (
(90,351,l),
(447,0,l),
(474,0,l),
(110,359,l),
(113,348,l),
(474,704,l),
(447,704,l)
);
}
);
width = 494;
},
{
anchors = (
{
name = bottom;
pos = (374,0);
},
{
name = top;
pos = (374,711);
}
);
layerId = "A69CC389-2ECF-459C-A4E4-3168912CA6B4";
shapes = (
{
closed = 1;
nodes = (
(50,0,l),
(272,0,l),
(272,708,l),
(50,708,l)
);
},
{
closed = 1;
nodes = (
(237,359,l),
(478,0,l),
(742,0,l),
(477,375,l),
(453,329,l),
(726,708,l),
(475,708,l)
);
}
);
width = 755;
},
{
anchors = (
{
name = bottom;
pos = (317,0);
},
{
name = top;
pos = (317,696);
}
);
layerId = "4D0F633C-81E1-4D6C-A640-637CE706A5C5";
shapes = (
{
closed = 1;
nodes = (
(75,0,l),
(189,0,l),
(189,695,l),
(75,695,l)
);
},
{
closed = 1;
nodes = (
(160,344,l),
(458,0,l),
(607,0,l),
(288,360,l),
(277,321,l),
(602,695,l),
(459,695,l)
);
}
);
width = 633;
},
{
anchors = (
{
name = bottom;
pos = (207,0);
},
{
name = top;
pos = (328,683);
}
);
layerId = "A74DA284-3E8B-4DB3-928B-2F0253F1CAB3";
shapes = (
{
closed = 1;
nodes = (
(37,0,l),
(57,0,l),
(182,704,l),
(162,704,l)
);
},
{
closed = 1;
nodes = (
(104,351,l),
(399,0,l),
(426,0,l),
(126,359,l),
(127,348,l),
(551,704,l),
(524,704,l)
);
}
);
width = 494;
},
{
anchors = (
{
name = bottom;
pos = (265,0);
},
{
name = top;
pos = (388,696);
}
);
layerId = "ED744E86-D388-498D-94EB-FEBBBDC8F1CA";
shapes = (
{
closed = 1;
nodes = (
(23,0,l),
(137,0,l),
(260,695,l),
(146,695,l)
);
},
{
closed = 1;
nodes = (
(169,344,l),
(406,0,l),
(555,0,l),
(300,360,l),
(282,321,l),
(673,695,l),
(530,695,l)
);
}
);
width = 633;
},
{
anchors = (
{
name = bottom;
pos = (324,0);
},
{
name = top;
pos = (450,711);
}
);
layerId = "15935870-0A58-425A-9765-D144975D2C89";
shapes = (
{
closed = 1;
nodes = (
(0,0,l),
(222,0,l),
(347,708,l),
(125,708,l)
);
},
{
closed = 1;
nodes = (
(251,359,l),
(428,0,l),
(692,0,l),
(493,375,l),
(461,329,l),
(801,708,l),
(550,708,l)
);
}
);
width = 755;
}
);
unicode = 75;
userData = {
com.schriftgestaltung.Glyphs.ColorIndex = 4;
com.typesupply.AccentFactory.yCoordinates = {
bottom = {
name = origin;
type = glyphMetric;
};
top = {
name = capHeight;
type = fontInfo;
};
};
};
}
{
glyphname = L;
layers = (
{
anchors = (
{
name = bottom;
pos = (220,0);
},
{
name = commaaccent;
pos = (220,10);
},
{
name = top;
pos = (202,683);
},
{
name = topright;
pos = (375,683);
}
);
layerId = "57B79CA8-97D8-4C58-BF53-6BAB6214BDE2";
shapes = (
{
closed = 1;
nodes = (
(85,704,l),
(85,0,l),
(375,0,l),
(375,18,l),
(105,18,l),
(105,704,l)
);
}
);
width = 395;
},
{
anchors = (
{
name = bottom;
pos = (265,0);
},
{
name = commaaccent;
pos = (265,10);
},
{
name = top;
pos = (231,711);
},
{
name = topright;
pos = (466,711);
}
);
layerId = "A69CC389-2ECF-459C-A4E4-3168912CA6B4";
shapes = (
{
closed = 1;
nodes = (
(50,708,l),
(50,0,l),
(486,0,l),
(486,168,l),
(272,168,l),
(272,708,l)
);
}
);
width = 506;
},
{
anchors = (
{
name = bottom;
pos = (248,0);
},
{
name = commaaccent;
pos = (248,10);
},
{
name = top;
pos = (222,696);
},
{
name = topright;
pos = (424,696);
}
);
layerId = "4D0F633C-81E1-4D6C-A640-637CE706A5C5";
shapes = (
{
closed = 1;
nodes = (
(75,695,l),
(75,0,l),
(424,0,l),
(424,92,l),
(189,92,l),
(189,695,l)
);
}
);
width = 444;
},
{
anchors = (
{
name = bottom;
pos = (172,0);
},
{
name = commaaccent;
pos = (174,10);
},
{
name = top;
pos = (275,683);
},
{
name = topright;
pos = (448,683);
}
);
layerId = "A74DA284-3E8B-4DB3-928B-2F0253F1CAB3";
shapes = (
{
closed = 1;
nodes = (
(162,704,l),
(37,0,l),
(327,0,l),
(331,18,l),
(61,18,l),
(182,704,l)
);
}
);
width = 395;
},
{
anchors = (
{
name = bottom;
pos = (196,0);
},
{
name = commaaccent;
pos = (198,10);
},
{
name = top;
pos = (293,696);
},
{
name = topright;
pos = (495,696);
}
);
layerId = "ED744E86-D388-498D-94EB-FEBBBDC8F1CA";
shapes = (
{
closed = 1;
nodes = (
(146,695,l),
(23,0,l),
(372,0,l),
(388,87,l),
(153,87,l),
(260,695,l)
);
}
);
width = 444;
},
{
anchors = (
{
name = bottom;
pos = (215,0);
},
{
name = commaaccent;
pos = (217,10);
},
{
name = top;
pos = (307,711);
},
{
name = topright;
pos = (542,711);
}
);
layerId = "15935870-0A58-425A-9765-D144975D2C89";
shapes = (
{
closed = 1;
nodes = (
(125,708,l),
(0,0,l),
(436,0,l),
(466,168,l),
(252,168,l),
(347,708,l)
);
}
);
width = 506;
}
);
unicode = 76;
userData = {
com.schriftgestaltung.Glyphs.ColorIndex = 4;
com.typesupply.AccentFactory.yCoordinates = {
bottom = {
name = origin;
type = glyphMetric;
};
top = {
name = capHeight;
type = fontInfo;
};
};
};
}
{
glyphname = M;
layers = (
{
guides = (
{
angle = 245.9899;
pos = (563,350);
}
);
layerId = "57B79CA8-97D8-4C58-BF53-6BAB6214BDE2";
shapes = (
{
closed = 1;
nodes = (
(85,0,l),
(105,0,l),
(105,639,l),
(101,644,l),
(389,0,l),
(409,0,l),
(696,644,l),
(692,639,l),
(692,0,l),
(712,0,l),
(712,684,l),
(692,684,l),
(394,15,l),
(404,15,l),
(105,684,l),
(85,684,l)
);
}
);
width = 797;
},
{
layerId = "A69CC389-2ECF-459C-A4E4-3168912CA6B4";
shapes = (
{
closed = 1;
nodes = (
(50,0,l),
(272,0,l),
(272,579,l),
(207,564,l),
(381,0,l),
(571,0,l),
(745,564,l),
(680,579,l),
(680,0,l),
(901,0,l),
(901,708,l),
(630,708,l),
(427,139,l),
(524,159,l),
(322,708,l),
(50,708,l)
);
}
);
width = 951;
},
{
layerId = "4D0F633C-81E1-4D6C-A640-637CE706A5C5";
shapes = (
{
closed = 1;
nodes = (
(75,0,l),
(189,0,l),
(189,584,l),
(143,579,l),
(402,0,l),
(481,0,l),
(739,579,l),
(693,584,l),
(693,0,l),
(807,0,l),
(807,695,l),
(685,695,l),
(421,104,l),
(462,104,l),
(198,695,l),
(75,695,l)
);
}
);
width = 882;
},
{
layerId = "A74DA284-3E8B-4DB3-928B-2F0253F1CAB3";
shapes = (
{
closed = 1;
nodes = (
(37,0,l),
(57,0,l),
(170,639,l),
(166,644,l),
(341,0,l),
(361,0,l),
(762,644,l),
(757,639,l),
(644,0,l),
(664,0,l),
(785,684,l),
(765,684,l),
(349,15,l),
(360,15,l),
(178,684,l),
(158,684,l)
);
}
);
width = 797;
},
{
layerId = "ED744E86-D388-498D-94EB-FEBBBDC8F1CA";
shapes = (
{
closed = 1;
nodes = (
(23,0,l),
(137,0,l),
(240,584,l),
(193,579,l),
(350,0,l),
(429,0,l),
(789,579,l),
(744,584,l),
(641,0,l),
(755,0,l),
(878,695,l),
(756,695,l),
(388,104,l),
(429,104,l),
(269,695,l),
(146,695,l)
);
}
);
width = 882;
},
{
layerId = "15935870-0A58-425A-9765-D144975D2C89";
shapes = (
{
closed = 1;
nodes = (
(0,0,l),
(222,0,l),
(324,579,l),
(257,564,l),
(331,0,l),
(521,0,l),
(795,564,l),
(732,579,l),
(630,0,l),
(851,0,l),
(976,708,l),
(705,708,l),
(402,139,l),
(502,159,l),
(397,708,l),
(125,708,l)
);
}
);
width = 951;
}
);
unicode = 77;
userData = {
com.schriftgestaltung.Glyphs.ColorIndex = 4;
com.typesupply.AccentFactory.yCoordinates = {
bottom = {
name = origin;
type = glyphMetric;
};
top = {
name = capHeight;
type = fontInfo;
};
};
};
}
{
glyphname = N;
layers = (
{
anchors = (
{
name = bottom;
pos = (324,0);
},
{
name = top;
pos = (324,683);
}
);
layerId = "57B79CA8-97D8-4C58-BF53-6BAB6214BDE2";
shapes = (
{
closed = 1;
nodes = (
(542,703,l),
(542,37,l),
(105,703,l),
(85,703,l),
(85,0,l),
(105,0,l),
(105,667,l),
(542,0,l),
(562,0,l),
(562,703,l)
);
}
);
width = 647;
},
{
anchors = (
{
name = bottom;
pos = (389,0);
},
{
name = top;
pos = (389,711);
}
);
layerId = "A69CC389-2ECF-459C-A4E4-3168912CA6B4";
shapes = (
{
closed = 1;
nodes = (
(507,708,l),
(507,346,l),
(272,708,l),
(50,708,l),
(50,0,l),
(272,0,l),
(272,356,l),
(507,0,l),
(729,0,l),
(729,708,l)
);
}
);
width = 779;
},
{
anchors = (
{
name = bottom;
pos = (361,0);
},
{
name = top;
pos = (361,696);
}
);
layerId = "4D0F633C-81E1-4D6C-A640-637CE706A5C5";
shapes = (
{
closed = 1;
nodes = (
(532,696,l),
(532,178,l),
(189,696,l),
(75,696,l),
(75,0,l),
(189,0,l),
(189,519,l),
(532,0,l),
(646,0,l),
(646,696,l)
);
}
);
width = 721;
},
{
anchors = (
{
name = bottom;
pos = (276,0);
},
{
name = top;
pos = (397,683);
}
);
layerId = "A74DA284-3E8B-4DB3-928B-2F0253F1CAB3";
shapes = (
{
closed = 1;
nodes = (
(618,703,l),
(501,37,l),
(181,703,l),
(161,703,l),
(37,0,l),
(57,0,l),
(175,667,l),
(494,0,l),
(514,0,l),
(638,703,l)
);
}
);
width = 647;
},
{
anchors = (
{
name = bottom;
pos = (309,0);
},
{
name = top;
pos = (432,696);
}
);
layerId = "ED744E86-D388-498D-94EB-FEBBBDC8F1CA";
shapes = (
{
closed = 1;
nodes = (
(603,696,l),
(512,178,l),
(260,696,l),
(146,696,l),
(23,0,l),
(137,0,l),
(229,519,l),
(480,0,l),
(594,0,l),
(717,696,l)
);
}
);
width = 721;
},
{
anchors = (
{
name = bottom;
pos = (339,0);
},
{
name = top;
pos = (465,711);
}
);
layerId = "15935870-0A58-425A-9765-D144975D2C89";
shapes = (
{
closed = 1;
nodes = (
(582,708,l),
(518,346,l),
(347,708,l),
(125,708,l),
(0,0,l),
(222,0,l),
(285,356,l),
(457,0,l),
(679,0,l),
(804,708,l)
);
}
);
width = 779;
}
);
unicode = 78;
userData = {
com.schriftgestaltung.Glyphs.ColorIndex = 4;
com.typesupply.AccentFactory.yCoordinates = {
bottom = {
name = origin;
type = glyphMetric;
};
top = {
name = capHeight;
type = fontInfo;
};
};
};
}
{
glyphname = O;
layers = (
{
anchors = (
{
name = top;
pos = (407,683);
}
);
layerId = "57B79CA8-97D8-4C58-BF53-6BAB6214BDE2";
shapes = (
{
closed = 1;
nodes = (
(592,-8,o),
(732,140,o),
(732,351,c),
(732,562,o),
(592,710,o),
(396,710,c),
(200,710,o),
(60,562,o),
(60,351,c),
(60,140,o),
(200,-8,o),
(396,-8,c)
);
},
{
closed = 1;
nodes = (
(221,10,o),
(81,139,o),
(81,351,c),
(81,563,o),
(221,692,o),
(396,692,c),
(571,692,o),
(711,563,o),
(711,351,c),
(711,139,o),
(571,10,o),
(396,10,c)
);
}
);
width = 792;
},
{
anchors = (
{
name = top;
pos = (395,711);
}
);
layerId = "A69CC389-2ECF-459C-A4E4-3168912CA6B4";
shapes = (
{
closed = 1;
nodes = (
(595,-7,o),
(758,144,o),
(758,357,cs),
(758,570,o),
(597,720,o),
(395,720,cs),
(194,720,o),
(30,570,o),
(30,357,cs),
(30,144,o),
(194,-7,o),
(395,-7,cs)
);
},
{
closed = 1;
nodes = (
(304,200,o),
(256,263,o),
(256,357,cs),
(256,453,o),
(304,515,o),
(395,515,cs),
(484,515,o),
(533,453,o),
(533,357,cs),
(533,263,o),
(484,200,o),
(395,200,cs)
);
}
);
width = 788;
},
{
anchors = (
{
name = top;
pos = (392,696);
}
);
layerId = "4D0F633C-81E1-4D6C-A640-637CE706A5C5";
shapes = (
{
closed = 1;
nodes = (
(590,-7,o),
(747,140,o),
(747,349,cs),
(747,557,o),
(590,704,o),
(392,704,cs),
(196,704,o),
(37,557,o),
(37,349,cs),
(37,140,o),
(196,-7,o),
(392,-7,cs)
);
},
{
closed = 1;
nodes = (
(254,92,o),
(154,192,o),
(154,349,cs),
(154,506,o),
(254,604,o),
(392,604,cs),
(530,604,o),
(630,506,o),
(630,349,cs),
(630,192,o),
(530,92,o),
(392,92,cs)
);
}
);
width = 784;
},
{
anchors = (
{
name = top;
pos = (480,683);
}
);
layerId = "A74DA284-3E8B-4DB3-928B-2F0253F1CAB3";
shapes = (
{
closed = 1;
nodes = (
(577,-8,o),
(753,195,o),
(753,428,cs),
(753,597,o),
(645,710,o),
(474,710,c),
(243,710,o),
(67,506,o),
(67,274,cs),
(67,105,o),
(176,-8,o),
(347,-8,c)
);
},
{
closed = 1;
nodes = (
(197,10,o),
(88,109,o),
(88,275,cs),
(88,494,o),
(248,692,o),
(470,692,c),
(623,692,o),
(732,594,o),
(732,428,cs),
(732,204,o),
(569,10,o),
(350,10,c)
);
}
);
width = 792;
},
{
anchors = (
{
name = top;
pos = (460,704);
}
);
background = {
shapes = (
{
closed = 1;
nodes = (
(47,349,cs),
(10,140,o),
(143,-7,o),
(339,-7,cs),
(537,-7,o),
(720,140,o),
(757,349,cs),
(794,557,o),
(662,704,o),
(464,704,cs),
(268,704,o),
(84,557,o)
);
},
{
closed = 1;
nodes = (
(640,349,cs),
(613,196,o),
(495,96,o),
(357,96,cs),
(219,96,o),
(137,196,o),
(164,349,cs),
(191,502,o),
(308,600,o),
(446,600,cs),
(584,600,o),
(667,502,o)
);
}
);
};
layerId = "ED744E86-D388-498D-94EB-FEBBBDC8F1CA";
shapes = (
{
closed = 1;
nodes = (
(582,-7,o),
(757,170,o),
(757,412,cs),
(757,583,o),
(640,704,o),
(460,704,cs),
(223,704,o),
(47,527,o),
(47,286,cs),
(47,114,o),
(165,-7,o),
(343,-7,cs)
);
},
{
closed = 1;
nodes = (
(237,96,o),
(165,172,o),
(165,293,cs),
(165,460,o),
(276,600,o),
(444,600,cs),
(567,600,o),
(639,525,o),
(639,404,cs),
(639,238,o),
(527,96,o),
(359,96,cs)
);
}
);
width = 784;
},
{
anchors = (
{
name = top;
pos = (471,711);
}
);
background = {
shapes = (
{
closed = 1;
nodes = (
(53,397,cs),
(11,161,o),
(129,-7,o),
(374,-7,cs),
(583,-7,o),
(728,127,o),
(761,317,cs),
(802,553,o),
(678,720,o),
(442,720,cs),
(232,720,o),
(87,587,o)
);
},
{
closed = 1;
nodes = (
(546,347,cs),
(530,259,o),
(474,200,o),
(390,200,cs),
(291,200,o),
(252,267,o),
(269,367,cs),
(284,457,o),
(341,515,o),
(426,515,cs),
(523,515,o),
(565,449,o)
);
}
);
};
layerId = "15935870-0A58-425A-9765-D144975D2C89";
shapes = (
{
closed = 1;
nodes = (
(599,-7,o),
(767,172,o),
(767,427,cs),
(767,603,o),
(650,720,o),
(464,720,cs),
(215,720,o),
(47,545,o),
(47,289,cs),
(47,113,o),
(165,-7,o),
(347,-7,cs)
);
},
{
closed = 1;
nodes = (
(304,200,o),
(265,245,o),
(265,317,cs),
(265,422,o),
(328,515,o),
(436,515,cs),
(511,515,o),
(550,471,o),
(550,399,cs),
(550,294,o),
(489,200,o),
(381,200,cs)
);
}
);
width = 788;
}
);
unicode = 79;
userData = {
com.schriftgestaltung.Glyphs.ColorIndex = 4;
com.typemytype.robofont.layerData = {
b = {
anchors = (
{
name = top;
x = 407;
y = 683;
}
);
components = (
);
contours = (
{
points = (
{
segmentType = curve;
smooth = 1;
x = 60;
y = 341;
},
{
smooth = 0;
x = 60;
y = 138;
},
{
smooth = 0;
x = 214;
y = -7;
},
{
segmentType = curve;
smooth = 1;
x = 407;
y = -7;
},
{
smooth = 0;
x = 601;
y = -7;
},
{
smooth = 0;
x = 754;
y = 138;
},
{
segmentType = curve;
smooth = 1;
x = 754;
y = 341;
},
{
smooth = 0;
x = 754;
y = 546;
},
{
smooth = 0;
x = 601;
y = 690;
},
{
segmentType = curve;
smooth = 1;
x = 407;
y = 690;
},
{
smooth = 0;
x = 214;
y = 690;
},
{
smooth = 0;
x = 60;
y = 546;
}
);
},
{
points = (
{
segmentType = curve;
smooth = 1;
x = 733;
y = 341;
},
{
smooth = 0;
x = 733;
y = 137;
},
{
smooth = 0;
x = 588;
y = 4;
},
{
segmentType = curve;
smooth = 1;
x = 407;
y = 4;
},
{
smooth = 0;
x = 226;
y = 4;
},
{
smooth = 0;
x = 80;
y = 137;
},
{
segmentType = curve;
smooth = 1;
x = 80;
y = 341;
},
{
smooth = 0;
x = 80;
y = 547;
},
{
smooth = 0;
x = 226;
y = 677;
},
{
segmentType = curve;
smooth = 1;
x = 407;
y = 677;
},
{
smooth = 0;
x = 588;
y = 677;
},
{
smooth = 0;
x = 733;
y = 547;
}
);
}
);
lib = {
};
name = O;
unicodes = (
);
width = 792;
};
};
com.typesupply.AccentFactory.yCoordinates = {
bottom = {
name = origin;
type = glyphMetric;
};
top = {
name = capHeight;
type = fontInfo;
};
};
};
}
{
glyphname = P;
layers = (
{
layerId = "57B79CA8-97D8-4C58-BF53-6BAB6214BDE2";
shapes = (
{
closed = 1;
nodes = (
(105,338,l),
(105,684,l),
(263,684,ls),
(414,684,o),
(468,619,o),
(468,510,cs),
(468,406,o),
(414,338,o),
(263,338,cs)
);
},
{
closed = 1;
nodes = (
(488,510,cs),
(488,627,o),
(423,704,o),
(263,704,cs),
(85,704,l),
(85,0,l),
(105,0,l),
(105,317,l),
(263,317,ls),
(409,317,o),
(488,380,o)
);
}
);
width = 528;
},
{
layerId = "A69CC389-2ECF-459C-A4E4-3168912CA6B4";
shapes = (
{
closed = 1;
nodes = (
(272,400,l),
(272,530,l),
(335,530,ls),
(385,530,o),
(404,504,o),
(404,465,c),
(404,426,o),
(385,400,o),
(335,400,c)
);
},
{
closed = 1;
nodes = (
(629,465,c),
(629,607.88,o),
(538,708,o),
(360,708,cs),
(50,708,l),
(50,0,l),
(272,0,l),
(272,225,l),
(360,225,ls),
(538,225,o),
(629,334,o)
);
}
);
width = 649;
},
{
layerId = "4D0F633C-81E1-4D6C-A640-637CE706A5C5";
shapes = (
{
closed = 1;
nodes = (
(189,375,l),
(189,602,l),
(315,602,ls),
(404,602,o),
(444,560,o),
(444,488,cs),
(444,418,o),
(404,375,o),
(315,375,cs)
);
},
{
closed = 1;
nodes = (
(561,488,cs),
(561,601,o),
(480,695,o),
(315,695,cs),
(75,695,l),
(75,0,l),
(189,0,l),
(189,282,l),
(315,282,ls),
(496,282,o),
(561,389,o)
);
}
);
width = 595;
},
{
layerId = "A74DA284-3E8B-4DB3-928B-2F0253F1CAB3";
shapes = (
{
closed = 1;
nodes = (
(117,338,l),
(178,684,l),
(336,684,ls),
(487,684,o),
(530,619,o),
(510,510,cs),
(492,406,o),
(426,338,o),
(275,338,cs)
);
},
{
closed = 1;
nodes = (
(530,510,cs),
(551,627,o),
(500,704,o),
(340,704,cs),
(162,704,l),
(37,0,l),
(57,0,l),
(113,317,l),
(271,317,ls),
(417,317,o),
(507,380,o)
);
}
);
width = 528;
},
{
layerId = "ED744E86-D388-498D-94EB-FEBBBDC8F1CA";
shapes = (
{
closed = 1;
nodes = (
(203,371,l),
(244,606,l),
(370,606,ls),
(459,606,o),
(491,560,o),
(478,488,cs),
(466,418,o),
(418,371,o),
(329,371,cs)
);
},
{
closed = 1;
nodes = (
(595,488,cs),
(615,601,o),
(551,695,o),
(386,695,cs),
(146,695,l),
(23,0,l),
(137,0,l),
(187,282,l),
(313,282,ls),
(494,282,o),
(578,389,o)
);
}
);
width = 595;
},
{
layerId = "15935870-0A58-425A-9765-D144975D2C89";
shapes = (
{
closed = 1;
nodes = (
(293,400,l),
(316,530,l),
(379,530,ls),
(429,530,o),
(443,504,o),
(436,465,c),
(429,426,o),
(406,400,o),
(356,400,c)
);
},
{
closed = 1;
nodes = (
(661,465,c),
(686,608,o),
(613,708,o),
(435,708,cs),
(125,708,l),
(0,0,l),
(222,0,l),
(262,225,l),
(350,225,ls),
(528,225,o),
(638,334,o)
);
}
);
width = 649;
}
);
unicode = 80;
userData = {
com.schriftgestaltung.Glyphs.ColorIndex = 4;
com.typesupply.AccentFactory.yCoordinates = {
bottom = {
name = origin;
type = glyphMetric;
};
top = {
name = capHeight;
type = fontInfo;
};
};
};
}
{
glyphname = Q;
layers = (
{
layerId = "57B79CA8-97D8-4C58-BF53-6BAB6214BDE2";
shapes = (
{
closed = 1;
nodes = (
(500,14,l),
(708,-149,l),
(743,-149,l),
(515,30,l)
);
},
{
ref = O;
}
);
width = 792;
},
{
layerId = "A69CC389-2ECF-459C-A4E4-3168912CA6B4";
shapes = (
{
closed = 1;
nodes = (
(387,98,l),
(516,-115,l),
(778,-115,l),
(598,127,l)
);
},
{
ref = O;
}
);
width = 788;
},
{
layerId = "4D0F633C-81E1-4D6C-A640-637CE706A5C5";
shapes = (
{
closed = 1;
nodes = (
(451,50,l),
(613,-126,l),
(758,-126,l),
(559,85,l)
);
},
{
ref = O;
}
);
width = 787;
},
{
layerId = "A74DA284-3E8B-4DB3-928B-2F0253F1CAB3";
shapes = (
{
closed = 1;
nodes = (
(455,14,l),
(634,-149,l),
(669,-149,l),
(473,30,l)
);
},
{
ref = O;
}
);
width = 792;
},
{
layerId = "ED744E86-D388-498D-94EB-FEBBBDC8F1CA";
shapes = (
{
closed = 1;
nodes = (
(408,50,l),
(539,-126,l),
(684,-126,l),
(522,85,l)
);
},
{
ref = O;
}
);
width = 787;
},
{
layerId = "15935870-0A58-425A-9765-D144975D2C89";
shapes = (
{
closed = 1;
nodes = (
(355,98,l),
(446,-115,l),
(708,-115,l),
(571,127,l)
);
},
{
ref = O;
}
);
width = 788;
}
);
unicode = 81;
userData = {
com.schriftgestaltung.Glyphs.ColorIndex = 4;
com.typesupply.AccentFactory.yCoordinates = {
bottom = {
name = origin;
type = glyphMetric;
};
top = {
name = capHeight;
type = fontInfo;
};
};
};
}
{
glyphname = R;
layers = (
{
anchors = (
{
name = bottom;
pos = (296,0);
},
{
name = top;
pos = (296,683);
}
);
layerId = "57B79CA8-97D8-4C58-BF53-6BAB6214BDE2";
shapes = (
{
closed = 1;
nodes = (
(469,506,cs),
(469,403,o),
(407,326,o),
(263,326,cs),
(105,326,l),
(105,684,l),
(261,684,ls),
(412,684,o),
(469,615,o)
);
},
{
closed = 1;
nodes = (
(85,704,l),
(85,0,l),
(105,0,l),
(105,307,l),
(263,307,ls),
(409,307,o),
(490,379,o),
(490,506,cs),
(490,623,o),
(421,704,o),
(261,704,cs)
);
},
{
closed = 1;
nodes = (
(277,315,l),
(470,0,l),
(495,0,l),
(301,315,l)
);
}
);
width = 535;
},
{
anchors = (
{
name = bottom;
pos = (325,0);
},
{
name = top;
pos = (325,711);
}
);
layerId = "A69CC389-2ECF-459C-A4E4-3168912CA6B4";
shapes = (
{
closed = 1;
nodes = (
(424,462,cs),
(424,420,o),
(402,402,o),
(360,402,cs),
(272,402,l),
(272,522,l),
(360,522,ls),
(402,522,o),
(424,498,o)
);
},
{
closed = 1;
nodes = (
(50,708,l),
(50,0,l),
(272,0,l),
(272,254,l),
(380,254,l),
(558,254,o),
(649,352,o),
(649,476,c),
(649,605.586,o),
(558,708,o),
(380,708,cs)
);
},
{
closed = 1;
nodes = (
(251,295,l),
(406,0,l),
(650,0,l),
(482,295,l)
);
}
);
width = 670;
},
{
anchors = (
{
name = bottom;
pos = (316,0);
},
{
name = top;
pos = (316,696);
}
);
layerId = "4D0F633C-81E1-4D6C-A640-637CE706A5C5";
shapes = (
{
closed = 1;
nodes = (
(444,487,cs),
(444,418,o),
(404,369,o),
(315,369,cs),
(189,369,l),
(189,602,l),
(315,602,ls),
(404,602,o),
(444,557,o)
);
},
{
closed = 1;
nodes = (
(75,695,l),
(75,0,l),
(189,0,l),
(189,278,l),
(315,278,ls),
(496,278,o),
(561,388,o),
(561,487,cs),
(561,600,o),
(480,695,o),
(315,695,cs)
);
},
{
closed = 1;
nodes = (
(255,315,l),
(436,0,l),
(572,0,l),
(384,315,l)
);
}
);
width = 632;
},
{
anchors = (
{
name = bottom;
pos = (248,0);
},
{
name = top;
pos = (369,683);
}
);
layerId = "A74DA284-3E8B-4DB3-928B-2F0253F1CAB3";
shapes = (
{
closed = 1;
nodes = (
(511,506,cs),
(492,403,o),
(417,326,o),
(273,326,cs),
(115,326,l),
(178,684,l),
(334,684,ls),
(485,684,o),
(530,615,o)
);
},
{
closed = 1;
nodes = (
(162,704,l),
(37,0,l),
(57,0,l),
(112,307,l),
(270,307,ls),
(416,307,o),
(509,379,o),
(532,506,cs),
(552,623,o),
(498,704,o),
(338,704,cs)
);
},
{
closed = 1;
nodes = (
(285,315,l),
(422,0,l),
(447,0,l),
(309,315,l)
);
}
);
width = 535;
},
{
anchors = (
{
name = bottom;
pos = (264,0);
},
{
name = top;
pos = (387,696);
}
);
layerId = "ED744E86-D388-498D-94EB-FEBBBDC8F1CA";
shapes = (
{
closed = 1;
nodes = (
(478,487,cs),
(466,417,o),
(417,368,o),
(328,368,cs),
(202,368,l),
(244,606,l),
(370,606,ls),
(459,606,o),
(491,559,o)
);
},
{
closed = 1;
nodes = (
(146,695,l),
(23,0,l),
(137,0,l),
(186,278,l),
(312,278,ls),
(493,278,o),
(578,388,o),
(595,487,cs),
(615,600,o),
(551,695,o),
(386,695,cs)
);
},
{
closed = 1;
nodes = (
(259,315,l),
(384,0,l),
(520,0,l),
(388,315,l)
);
}
);
width = 632;
},
{
anchors = (
{
name = bottom;
pos = (275,0);
},
{
name = top;
pos = (401,711);
}
);
layerId = "15935870-0A58-425A-9765-D144975D2C89";
shapes = (
{
closed = 1;
nodes = (
(456,462,cs),
(448,420,o),
(423,402,o),
(381,402,cs),
(293,402,l),
(314,522,l),
(402,522,ls),
(444,522,o),
(462,498,o)
);
},
{
closed = 1;
nodes = (
(125,708,l),
(0,0,l),
(222,0,l),
(267,254,l),
(375,254,l),
(553,254,o),
(661,352,o),
(683,476,c),
(706,606,o),
(633,708,o),
(455,708,cs)
);
},
{
closed = 1;
nodes = (
(253,295,l),
(356,0,l),
(600,0,l),
(484,295,l)
);
}
);
width = 670;
}
);
unicode = 82;
userData = {
com.schriftgestaltung.Glyphs.ColorIndex = 4;
com.typesupply.AccentFactory.yCoordinates = {
bottom = {
name = origin;
type = glyphMetric;
};
top = {
name = capHeight;
type = fontInfo;
};
};
};
}
{
glyphname = S;
layers = (
{
anchors = (
{
name = bottom;
pos = (267,0);
},
{
name = top;
pos = (267,683);
}
);
layerId = "57B79CA8-97D8-4C58-BF53-6BAB6214BDE2";
shapes = (
{
closed = 1;
nodes = (
(418,-7,o),
(486,85,o),
(486,170,cs),
(486,437,o),
(85,283,o),
(85,536,cs),
(85,633,o),
(171,693,o),
(272,693,c),
(397,693,o),
(451,613,o),
(463,563,c),
(483,563,l),
(468,631,o),
(404,711,o),
(272,711,c),
(145,711,o),
(65,628,o),
(65,536,cs),
(65,265,o),
(466,419,o),
(466,170,cs),
(466,83,o),
(394,11,o),
(278,11,cs),
(127,11,o),
(81,108,o),
(73,166,c),
(53,166,l),
(63,77,o),
(137,-7,o),
(278,-7,cs)
);
}
);
width = 536;
},
{
anchors = (
{
name = bottom;
pos = (313,0);
},
{
name = top;
pos = (313,711);
}
);
background = {
shapes = (
{
closed = 1;
nodes = (
(268,513,cs),
(268,537,o),
(282,547,o),
(300,547,cs),
(321,547,o),
(342,536,o),
(346,491,c),
(585,491,l),
(575,641,o),
(469,720,o),
(301,720,cs),
(150,720,o),
(30,646,o),
(30,504,c),
(30,253,o),
(360,297,o),
(360,201,cs),
(360,177,o),
(344,166,o),
(322,166,cs),
(300,166,o),
(272,175,o),
(268,227,c),
(32,227,l),
(42,68,o),
(169,-7,o),
(331,-7,cs),
(502,-7,o),
(597,89,o),
(597,209,cs),
(597,457,o),
(268,422,o)
);
}
);
};
layerId = "A69CC389-2ECF-459C-A4E4-3168912CA6B4";
shapes = (
{
closed = 1;
nodes = (
(498,-7,o),
(597,89,o),
(597,219,cs),
(597,437,o),
(268,422,o),
(268,511,cs),
(268,535,o),
(282,547,o),
(300,547,cs),
(324,547,o),
(347,534,o),
(349,491,c),
(588,491,l),
(582,638,o),
(472,720,o),
(301,720,cs),
(150,720,o),
(30,646,o),
(30,504,c),
(26,262,o),
(360,297,o),
(361,201,cs),
(361,176,o),
(340,166,o),
(318,166,cs),
(296,166,o),
(268,175,o),
(264,227,c),
(28,227,l),
(38,68,o),
(165,-7,o),
(327,-7,cs)
);
}
);
width = 625;
},
{
anchors = (
{
name = bottom;
pos = (304,-7);
},
{
name = top;
pos = (299,704);
}
);
layerId = "4D0F633C-81E1-4D6C-A640-637CE706A5C5";
shapes = (
{
closed = 1;
nodes = (
(459,-7,o),
(544,93,o),
(544,197,cs),
(544,451,o),
(176,353,o),
(176,510,cs),
(176,577,o),
(227,609,o),
(293,607,cs),
(365,605,o),
(406,562,o),
(410,515,c),
(536,515,l),
(526,634,o),
(432,704,o),
(299,704,cs),
(157,704,o),
(60,628,o),
(60,506,cs),
(60,250,o),
(429,359,o),
(429,191,cs),
(429,132,o),
(384,89,o),
(304,89,cs),
(225,89,o),
(185,135,o),
(180,192,c),
(58,192,l),
(58,69,o),
(165,-7,o),
(304,-7,cs)
);
}
);
width = 604;
},
{
anchors = (
{
name = bottom;
pos = (219,0);
},
{
name = top;
pos = (340,683);
}
);
background = {
shapes = (
{
closed = 1;
nodes = (
(116,563,cs),
(131,648,o),
(206,693,o),
(302,693,c),
(435,693,o),
(474,609,o),
(478,559,c),
(498,559,l),
(494,627,o),
(437,711,o),
(305,711,c),
(184,711,o),
(110,645,o),
(96,563,cs),
(48,281,o),
(474,436,o),
(426,159,cs),
(412,79,o),
(347,11,o),
(237,11,cs),
(91,11,o),
(51,111,o),
(53,169,c),
(33,169,l),
(29,86,o),
(96,-7,o),
(234,-7,cs),
(368,-7,o),
(433,82,o),
(446,159,cs),
(496,454,o),
(69,299,o)
);
}
);
};
layerId = "A74DA284-3E8B-4DB3-928B-2F0253F1CAB3";
shapes = (
{
closed = 1;
nodes = (
(359,-7,o),
(433,72,o),
(448,157,cs),
(495,432,o),
(74,322,o),
(115,557,cs),
(130,643,o),
(212,693,o),
(311,693,c),
(432,693,o),
(481,613,o),
(479,563,c),
(499,563,l),
(502,631,o),
(442,711,o),
(314,711,c),
(185,711,o),
(109,638,o),
(95,557,cs),
(52,303,o),
(473,415,o),
(428,157,cs),
(413,70,o),
(338,11,o),
(232,11,cs),
(81,11,o),
(52,108,o),
(55,166,c),
(35,166,l),
(29,77,o),
(88,-7,o),
(229,-7,cs)
);
}
);
width = 528;
},
{
anchors = (
{
name = bottom;
pos = (251,0);
},
{
name = top;
pos = (374,696);
}
);
background = {
shapes = (
{
closed = 1;
nodes = (
(428,-7,o),
(530,76,o),
(530,193,cs),
(530,404,o),
(204,380,o),
(204,513,cs),
(204,574,o),
(255,611,o),
(331,611,cs),
(407,611,o),
(445,567,o),
(440,515,c),
(560,515,l),
(566,629,o),
(480,704,o),
(336,704,cs),
(192,704,o),
(85,624,o),
(88,494,cs),
(93,283,o),
(412,322,o),
(412,184,cs),
(412,118,o),
(360,85,o),
(280,85,cs),
(201,85,o),
(159,133,o),
(164,192,c),
(51,192,l),
(35,65,o),
(140,-7,o),
(275,-7,cs)
);
}
);
};
layerId = "ED744E86-D388-498D-94EB-FEBBBDC8F1CA";
shapes = (
{
closed = 1;
nodes = (
(428,-7,o),
(530,76,o),
(530,193,cs),
(530,404,o),
(204,380,o),
(204,513,cs),
(204,574,o),
(255,611,o),
(331,611,cs),
(407,611,o),
(445,567,o),
(440,515,c),
(560,515,l),
(566,629,o),
(480,704,o),
(336,704,cs),
(192,704,o),
(85,624,o),
(88,494,cs),
(93,283,o),
(412,322,o),
(412,184,cs),
(412,118,o),
(360,85,o),
(280,85,cs),
(201,85,o),
(159,133,o),
(164,192,c),
(51,192,l),
(35,65,o),
(140,-7,o),
(275,-7,cs)
);
}
);
width = 599;
},
{
anchors = (
{
name = bottom;
pos = (280,0);
},
{
name = top;
pos = (406,711);
}
);
background = {
shapes = (
{
closed = 1;
nodes = (
(486,-7,o),
(592,92,o),
(592,221,cs),
(592,424,o),
(310,426,o),
(310,511,cs),
(310,533,o),
(327,547,o),
(349,547,cs),
(378,547,o),
(395,528,o),
(388,491,c),
(627,491,l),
(628,499,o),
(628,507,o),
(628,514,cs),
(628,648,o),
(519,720,o),
(362,720,cs),
(191,720,o),
(67,634,o),
(67,480,cs),
(67,276,o),
(350,291,o),
(350,201,cs),
(350,178,o),
(331,166,o),
(308,166,cs),
(269,166,o),
(253,186,o),
(257,227,c),
(21,227,l),
(20,218,o),
(20,209,o),
(20,200,cs),
(20,52,o),
(144,-7,o),
(304,-7,cs)
);
}
);
};
layerId = "15935870-0A58-425A-9765-D144975D2C89";
shapes = (
{
closed = 1;
nodes = (
(486,-7,o),
(592,92,o),
(592,221,cs),
(592,424,o),
(310,426,o),
(310,511,cs),
(310,533,o),
(327,547,o),
(349,547,cs),
(378,547,o),
(395,528,o),
(388,491,c),
(627,491,l),
(645,635,o),
(526,720,o),
(362,720,cs),
(191,720,o),
(67,634,o),
(67,480,cs),
(67,276,o),
(350,291,o),
(350,201,cs),
(350,178,o),
(331,166,o),
(308,166,cs),
(269,166,o),
(253,186,o),
(257,227,c),
(21,227,l),
(3,68,o),
(126,-7,o),
(304,-7,cs)
);
}
);
width = 642;
}
);
unicode = 83;
userData = {
com.schriftgestaltung.Glyphs.ColorIndex = 4;
com.typesupply.AccentFactory.yCoordinates = {
bottom = {
name = origin;
type = glyphMetric;
};
top = {
name = capHeight;
type = fontInfo;
};
};
};
}
{
glyphname = T;
layers = (
{
anchors = (
{
name = bottom;
pos = (233,0);
},
{
name = top;
pos = (236,683);
}
);
layerId = "57B79CA8-97D8-4C58-BF53-6BAB6214BDE2";
shapes = (
{
closed = 1;
nodes = (
(20,686,l),
(225,686,l),
(225,0,l),
(245,0,l),
(245,686,l),
(450,686,l),
(450,704,l),
(20,704,l)
);
}
);
width = 470;
},
{
anchors = (
{
name = bottom;
pos = (303,0);
},
{
name = top;
pos = (303,711);
}
);
layerId = "A69CC389-2ECF-459C-A4E4-3168912CA6B4";
shapes = (
{
closed = 1;
nodes = (
(10,532,l),
(196,532,l),
(196,0,l),
(418,0,l),
(418,532,l),
(606,532,l),
(606,708,l),
(10,708,l)
);
}
);
width = 616;
},
{
anchors = (
{
name = bottom;
pos = (280,0);
},
{
name = top;
pos = (282,696);
}
);
layerId = "4D0F633C-81E1-4D6C-A640-637CE706A5C5";
shapes = (
{
closed = 1;
nodes = (
(39,602,l),
(225,602,l),
(225,0,l),
(339,0,l),
(339,602,l),
(524,602,l),
(524,695,l),
(39,695,l)
);
}
);
width = 564;
},
{
anchors = (
{
name = bottom;
pos = (185,0);
},
{
name = top;
pos = (309,683);
}
);
layerId = "A74DA284-3E8B-4DB3-928B-2F0253F1CAB3";
shapes = (
{
closed = 1;
nodes = (
(93,686,l),
(298,686,l),
(177,0,l),
(197,0,l),
(318,686,l),
(523,686,l),
(527,704,l),
(97,704,l)
);
}
);
width = 470;
},
{
anchors = (
{
name = bottom;
pos = (228,0);
},
{
name = top;
pos = (353,696);
}
);
layerId = "ED744E86-D388-498D-94EB-FEBBBDC8F1CA";
shapes = (
{
closed = 1;
nodes = (
(94,606,l),
(280,606,l),
(173,0,l),
(287,0,l),
(394,606,l),
(579,606,l),
(595,695,l),
(110,695,l)
);
}
);
width = 564;
},
{
anchors = (
{
name = bottom;
pos = (253,0);
},
{
name = top;
pos = (379,711);
}
);
layerId = "15935870-0A58-425A-9765-D144975D2C89";
shapes = (
{
closed = 1;
nodes = (
(54,532,l),
(240,532,l),
(146,0,l),
(368,0,l),
(462,532,l),
(650,532,l),
(681,708,l),
(85,708,l)
);
}
);
width = 616;
}
);
unicode = 84;
userData = {
com.schriftgestaltung.Glyphs.ColorIndex = 4;
com.typesupply.AccentFactory.yCoordinates = {
bottom = {
name = origin;
type = glyphMetric;
};
top = {
name = capHeight;
type = fontInfo;
};
};
};
}
{
glyphname = U;
layers = (
{
anchors = (
{
name = ogonek;
pos = (378,0);
},
{
name = top;
pos = (314,683);
}
);
layerId = "57B79CA8-97D8-4C58-BF53-6BAB6214BDE2";
shapes = (
{
closed = 1;
nodes = (
(80,267,ls),
(80,73,o),
(179,-7,o),
(317,-7,cs),
(455,-7,o),
(549,73,o),
(549,267,cs),
(549,704,l),
(529,704,l),
(529,267,ls),
(529,79,o),
(439,11,o),
(317,11,cs),
(193,11,o),
(100,79,o),
(100,267,cs),
(100,704,l),
(80,704,l)
);
}
);
width = 629;
},
{
anchors = (
{
name = ogonek;
pos = (449,3);
},
{
name = top;
pos = (360,711);
}
);
layerId = "A69CC389-2ECF-459C-A4E4-3168912CA6B4";
shapes = (
{
closed = 1;
nodes = (
(46,309,ls),
(46,100,o),
(176,-7,o),
(353,-7,cs),
(530,-7,o),
(673,100,o),
(673,309,cs),
(673,708,l),
(452,708,l),
(452,309,ls),
(452,248,o),
(425,203,o),
(358,203,cs),
(291,203,o),
(267,248,o),
(267,309,cs),
(267,708,l),
(46,708,l)
);
}
);
width = 719;
},
{
anchors = (
{
name = ogonek;
pos = (418,0);
},
{
name = top;
pos = (345,696);
}
);
layerId = "4D0F633C-81E1-4D6C-A640-637CE706A5C5";
shapes = (
{
closed = 1;
nodes = (
(74,254,ls),
(74,77,o),
(198,-7,o),
(344,-7,cs),
(489,-7,o),
(617,77,o),
(617,254,cs),
(617,695,l),
(503,695,l),
(503,252,ls),
(503,144,o),
(442,93,o),
(345,93,cs),
(249,93,o),
(188,144,o),
(188,252,cs),
(188,695,l),
(74,695,l)
);
}
);
width = 690;
},
{
anchors = (
{
name = ogonek;
pos = (330,0);
},
{
name = top;
pos = (387,683);
}
);
layerId = "A74DA284-3E8B-4DB3-928B-2F0253F1CAB3";
shapes = (
{
closed = 1;
nodes = (
(79,267,ls),
(45,73,o),
(130,-7,o),
(268,-7,cs),
(406,-7,o),
(514,73,o),
(548,267,cs),
(626,704,l),
(606,704,l),
(528,267,ls),
(495,79,o),
(393,11,o),
(271,11,cs),
(147,11,o),
(66,79,o),
(99,267,cs),
(177,704,l),
(157,704,l)
);
}
);
width = 629;
},
{
anchors = (
{
name = ogonek;
pos = (366,0);
},
{
name = top;
pos = (416,696);
}
);
layerId = "ED744E86-D388-498D-94EB-FEBBBDC8F1CA";
shapes = (
{
closed = 1;
nodes = (
(67,254,ls),
(36,77,o),
(145,-7,o),
(291,-7,cs),
(436,-7,o),
(579,77,o),
(610,254,cs),
(688,695,l),
(574,695,l),
(496,254,ls),
(477,146,o),
(407,95,o),
(310,95,cs),
(214,95,o),
(162,146,o),
(181,254,cs),
(259,695,l),
(145,695,l)
);
}
);
width = 690;
},
{
anchors = (
{
name = ogonek;
pos = (400,3);
},
{
name = top;
pos = (436,711);
}
);
layerId = "15935870-0A58-425A-9765-D144975D2C89";
shapes = (
{
closed = 1;
nodes = (
(51,309,ls),
(14,100,o),
(128,-7,o),
(305,-7,cs),
(487,-7,o),
(640,94,o),
(678,309,cs),
(748,708,l),
(527,708,l),
(457,309,ls),
(446,248,o),
(411,203,o),
(344,203,cs),
(277,203,o),
(261,248,o),
(272,309,cs),
(342,708,l),
(121,708,l)
);
}
);
width = 719;
}
);
unicode = 85;
userData = {
com.schriftgestaltung.Glyphs.ColorIndex = 4;
com.typesupply.AccentFactory.yCoordinates = {
bottom = {
name = origin;
type = glyphMetric;
};
top = {
name = capHeight;
type = fontInfo;
};
};
};
}
{
glyphname = V;
layers = (
{
layerId = "57B79CA8-97D8-4C58-BF53-6BAB6214BDE2";
shapes = (
{
closed = 1;
nodes = (
(309,30,l),
(53,704,l),
(30,704,l),
(299,0,l),
(319,0,l),
(589,704,l),
(567,704,l)
);
}
);
width = 619;
},
{
layerId = "A69CC389-2ECF-459C-A4E4-3168912CA6B4";
shapes = (
{
closed = 1;
nodes = (
(382,221,l),
(236,708,l),
(0,708,l),
(238,0,l),
(525,0,l),
(763,708,l),
(527,708,l)
);
}
);
width = 763;
},
{
layerId = "4D0F633C-81E1-4D6C-A640-637CE706A5C5";
shapes = (
{
closed = 1;
nodes = (
(347,117,l),
(141,695,l),
(19,695,l),
(281,0,l),
(413,0,l),
(674,695,l),
(554,695,l)
);
}
);
width = 694;
},
{
layerId = "A74DA284-3E8B-4DB3-928B-2F0253F1CAB3";
shapes = (
{
closed = 1;
nodes = (
(251,0,l),
(271,0,l),
(666,704,l),
(642,704,l),
(267,35,l),
(131,704,l),
(107,704,l)
);
}
);
width = 619;
},
{
layerId = "ED744E86-D388-498D-94EB-FEBBBDC8F1CA";
shapes = (
{
closed = 1;
nodes = (
(229,0,l),
(361,0,l),
(745,695,l),
(624,695,l),
(315,118,l),
(212,695,l),
(90,695,l)
);
}
);
width = 694;
},
{
layerId = "15935870-0A58-425A-9765-D144975D2C89";
shapes = (
{
closed = 1;
nodes = (
(188,0,l),
(475,0,l),
(838,708,l),
(602,708,l),
(371,221,l),
(311,708,l),
(75,708,l)
);
}
);
width = 763;
}
);
unicode = 86;
userData = {
com.schriftgestaltung.Glyphs.ColorIndex = 4;
com.typesupply.AccentFactory.yCoordinates = {
bottom = {
name = origin;
type = glyphMetric;
};
top = {
name = capHeight;
type = fontInfo;
};
};
};
}
{
glyphname = W;
layers = (
{
layerId = "57B79CA8-97D8-4C58-BF53-6BAB6214BDE2";
shapes = (
{
closed = 1;
nodes = (
(224,0,l),
(242,0,l),
(459,697,l),
(443,697,l),
(660,0,l),
(680,0,l),
(869,704,l),
(847,704,l),
(664,15,l),
(676,15,l),
(462,704,l),
(440,704,l),
(226,15,l),
(240,15,l),
(57,704,l),
(35,704,l)
);
}
);
width = 904;
},
{
layerId = "A69CC389-2ECF-459C-A4E4-3168912CA6B4";
shapes = (
{
closed = 1;
nodes = (
(192,0,l),
(468,0,l),
(560,451,l),
(540,451,l),
(632,0,l),
(908,0,l),
(1070,708,l),
(831,708,l),
(745,112,l),
(799,112,l),
(671,708,l),
(429,708,l),
(301,112,l),
(355,112,l),
(269,708,l),
(30,708,l)
);
}
);
width = 1100;
},
{
layerId = "4D0F633C-81E1-4D6C-A640-637CE706A5C5";
shapes = (
{
closed = 1;
nodes = (
(216,-1,l),
(344,0,l),
(514,578,l),
(484,578,l),
(645,0,l),
(774,0,l),
(980,695,l),
(858,695,l),
(696,66,l),
(730,65,l),
(568,695,l),
(440,695,l),
(267,67,l),
(300,67,l),
(140,695,l),
(19,695,l)
);
}
);
width = 999;
},
{
layerId = "A74DA284-3E8B-4DB3-928B-2F0253F1CAB3";
shapes = (
{
closed = 1;
nodes = (
(176,0,l),
(196,0,l),
(536,697,l),
(518,697,l),
(612,0,l),
(632,0,l),
(946,704,l),
(922,704,l),
(617,15,l),
(633,15,l),
(541,704,l),
(517,704,l),
(181,15,l),
(197,15,l),
(136,704,l),
(112,704,l)
);
}
);
width = 904;
},
{
layerId = "ED744E86-D388-498D-94EB-FEBBBDC8F1CA";
shapes = (
{
closed = 1;
nodes = (
(164,-1,l),
(292,0,l),
(564,578,l),
(534,578,l),
(593,0,l),
(722,0,l),
(1051,695,l),
(929,695,l),
(656,66,l),
(690,65,l),
(639,695,l),
(511,695,l),
(227,67,l),
(260,67,l),
(211,695,l),
(90,695,l)
);
}
);
width = 999;
},
{
layerId = "15935870-0A58-425A-9765-D144975D2C89";
shapes = (
{
closed = 1;
nodes = (
(142,0,l),
(418,0,l),
(590,451,l),
(570,451,l),
(582,0,l),
(858,0,l),
(1145,708,l),
(906,708,l),
(715,112,l),
(769,112,l),
(746,708,l),
(504,708,l),
(271,112,l),
(325,112,l),
(344,708,l),
(105,708,l)
);
}
);
width = 1100;
}
);
unicode = 87;
userData = {
com.schriftgestaltung.Glyphs.ColorIndex = 4;
com.typemytype.robofont.layerData = {
b = {
anchors = (
);
components = (
);
contours = (
{
points = (
{
segmentType = line;
smooth = 0;
x = 229;
y = -2;
},
{
segmentType = line;
smooth = 0;
x = 245;
y = 0;
},
{
segmentType = line;
smooth = 0;
x = 473;
y = 727;
},
{
segmentType = line;
smooth = 0;
x = 435;
y = 727;
},
{
segmentType = line;
smooth = 0;
x = 638;
y = 0;
},
{
segmentType = line;
smooth = 0;
x = 654;
y = 0;
},
{
segmentType = line;
smooth = 0;
x = 877;
y = 684;
},
{
segmentType = line;
smooth = 0;
x = 860;
y = 684;
},
{
segmentType = line;
smooth = 0;
x = 636;
y = 7;
},
{
segmentType = line;
smooth = 0;
x = 650;
y = 5;
},
{
segmentType = line;
smooth = 0;
x = 459;
y = 684;
},
{
segmentType = line;
smooth = 0;
x = 442;
y = 684;
},
{
segmentType = line;
smooth = 0;
x = 230;
y = 10;
},
{
segmentType = line;
smooth = 0;
x = 239;
y = 10;
},
{
segmentType = line;
smooth = 0;
x = 54;
y = 684;
},
{
segmentType = line;
smooth = 0;
x = 36;
y = 684;
}
);
}
);
lib = {
};
name = W;
unicodes = (
);
width = 904;
};
};
com.typesupply.AccentFactory.yCoordinates = {
bottom = {
name = origin;
type = glyphMetric;
};
top = {
name = capHeight;
type = fontInfo;
};
};
};
}
{
glyphname = X;
layers = (
{
layerId = "57B79CA8-97D8-4C58-BF53-6BAB6214BDE2";
shapes = (
{
closed = 1;
nodes = (
(447,0,l),
(470,0,l),
(53,704,l),
(30,704,l)
);
},
{
closed = 1;
nodes = (
(244,371,l),
(30,0,l),
(53,0,l),
(260,361,l)
);
},
{
closed = 1;
nodes = (
(258,347,l),
(470,704,l),
(447,704,l),
(242,357,l)
);
}
);
width = 500;
},
{
layerId = "A69CC389-2ECF-459C-A4E4-3168912CA6B4";
shapes = (
{
closed = 1;
nodes = (
(501,0,l),
(764,0,l),
(263,708,l),
(0,708,l)
);
},
{
closed = 1;
nodes = (
(275,416,l),
(10,0,l),
(263,0,l),
(406,243,l)
);
},
{
closed = 1;
nodes = (
(480,293,l),
(745,708,l),
(492,708,l),
(350,466,l)
);
}
);
width = 764;
},
{
layerId = "4D0F633C-81E1-4D6C-A640-637CE706A5C5";
shapes = (
{
closed = 1;
nodes = (
(482,0,l),
(610,0,l),
(178,695,l),
(50,695,l)
);
},
{
closed = 1;
nodes = (
(286,378,l),
(51,0,l),
(178,0,l),
(347,290,l)
);
},
{
closed = 1;
nodes = (
(376,317,l),
(611,695,l),
(484,695,l),
(315,405,l)
);
}
);
width = 660;
},
{
layerId = "A74DA284-3E8B-4DB3-928B-2F0253F1CAB3";
shapes = (
{
closed = 1;
nodes = (
(399,0,l),
(422,0,l),
(130,704,l),
(107,704,l)
);
},
{
closed = 1;
nodes = (
(262,371,l),
(-18,0,l),
(5,0,l),
(276,361,l)
);
},
{
closed = 1;
nodes = (
(272,347,l),
(547,704,l),
(524,704,l),
(257,357,l)
);
}
);
width = 500;
},
{
layerId = "ED744E86-D388-498D-94EB-FEBBBDC8F1CA";
shapes = (
{
closed = 1;
nodes = (
(430,0,l),
(558,0,l),
(249,695,l),
(121,695,l)
);
},
{
closed = 1;
nodes = (
(300,378,l),
(-2,0,l),
(126,0,l),
(346,290,l)
);
},
{
closed = 1;
nodes = (
(380,317,l),
(682,695,l),
(554,695,l),
(334,405,l)
);
}
);
width = 660;
},
{
layerId = "15935870-0A58-425A-9765-D144975D2C89";
shapes = (
{
closed = 1;
nodes = (
(451,0,l),
(714,0,l),
(338,708,l),
(75,708,l)
);
},
{
closed = 1;
nodes = (
(299,416,l),
(-40,0,l),
(213,0,l),
(399,243,l)
);
},
{
closed = 1;
nodes = (
(482,293,l),
(820,708,l),
(567,708,l),
(382,466,l)
);
}
);
width = 764;
}
);
unicode = 88;
userData = {
com.schriftgestaltung.Glyphs.ColorIndex = 4;
com.typemytype.robofont.guides = (
{
angle = 90;
isGlobal = 0;
magnetic = 5;
x = 50;
y = 16;
},
{
angle = 90;
isGlobal = 0;
magnetic = 5;
x = 490;
y = 36;
},
{
angle = 0;
isGlobal = 0;
magnetic = 5;
x = 511;
y = 352;
}
);
com.typesupply.AccentFactory.yCoordinates = {
bottom = {
name = origin;
type = glyphMetric;
};
top = {
name = capHeight;
type = fontInfo;
};
};
};
}
{
glyphname = Y;
layers = (
{
anchors = (
{
name = top;
pos = (260,683);
}
);
layerId = "57B79CA8-97D8-4C58-BF53-6BAB6214BDE2";
shapes = (
{
closed = 1;
nodes = (
(250,295,l),
(250,0,l),
(270,0,l),
(270,295,l),
(488,704,l),
(464,704,l),
(255,309,l),
(264,309,l),
(54,704,l),
(30,704,l)
);
}
);
width = 518;
},
{
anchors = (
{
name = top;
pos = (366,711);
}
);
layerId = "A69CC389-2ECF-459C-A4E4-3168912CA6B4";
shapes = (
{
closed = 1;
nodes = (
(254,215,l),
(254,0,l),
(476,0,l),
(476,215,l),
(730,708,l),
(480,708,l),
(327,368,l),
(407,368,l),
(254,708,l),
(0,708,l)
);
}
);
width = 730;
},
{
anchors = (
{
name = top;
pos = (303,696);
}
);
layerId = "4D0F633C-81E1-4D6C-A640-637CE706A5C5";
shapes = (
{
closed = 1;
nodes = (
(246,252,l),
(246,0,l),
(360,0,l),
(360,252,l),
(590,695,l),
(464,695,l),
(278,300,l),
(329,300,l),
(142,695,l),
(15,695,l)
);
}
);
width = 605;
},
{
anchors = (
{
name = top;
pos = (333,683);
}
);
layerId = "A74DA284-3E8B-4DB3-928B-2F0253F1CAB3";
shapes = (
{
closed = 1;
nodes = (
(254,295,l),
(202,0,l),
(222,0,l),
(274,295,l),
(565,704,l),
(541,704,l),
(262,309,l),
(271,309,l),
(131,704,l),
(107,704,l)
);
}
);
width = 518;
},
{
anchors = (
{
name = top;
pos = (374,696);
}
);
layerId = "ED744E86-D388-498D-94EB-FEBBBDC8F1CA";
shapes = (
{
closed = 1;
nodes = (
(239,252,l),
(194,0,l),
(308,0,l),
(353,252,l),
(661,695,l),
(533,695,l),
(277,300,l),
(330,300,l),
(213,695,l),
(86,695,l)
);
}
);
width = 605;
},
{
anchors = (
{
name = top;
pos = (442,711);
}
);
layerId = "15935870-0A58-425A-9765-D144975D2C89";
shapes = (
{
closed = 1;
nodes = (
(242,215,l),
(204,0,l),
(426,0,l),
(464,215,l),
(805,708,l),
(555,708,l),
(342,368,l),
(422,368,l),
(329,708,l),
(75,708,l)
);
}
);
width = 730;
}
);
unicode = 89;
userData = {
com.schriftgestaltung.Glyphs.ColorIndex = 4;
com.typesupply.AccentFactory.yCoordinates = {
bottom = {
name = origin;
type = glyphMetric;
};
top = {
name = capHeight;
type = fontInfo;
};
};
};
}
{
glyphname = Z;
layers = (
{
anchors = (
{
name = top;
pos = (245,683);
}
);
layerId = "57B79CA8-97D8-4C58-BF53-6BAB6214BDE2";
shapes = (
{
closed = 1;
nodes = (
(442,704,l),
(48,704,l),
(48,684,l),
(421,684,l),
(35,19,l),
(35,0,l),
(452,0,l),
(452,19,l),
(57,19,l),
(442,684,l)
);
}
);
width = 487;
},
{
anchors = (
{
name = top;
pos = (315,711);
}
);
layerId = "A69CC389-2ECF-459C-A4E4-3168912CA6B4";
shapes = (
{
closed = 1;
nodes = (
(580,708,l),
(50,708,l),
(50,532,l),
(330,532,l),
(50,167,l),
(50,0,l),
(580,0,l),
(580,177,l),
(296,177,l),
(580,541,l)
);
}
);
width = 630;
},
{
anchors = (
{
name = top;
pos = (279,696);
}
);
background = {
shapes = (
{
closed = 1;
nodes = (
(508,695,l),
(50,695,l),
(50,606,l),
(376,606,l),
(50,89,l),
(50,0,l),
(508,0,l),
(508,89,l),
(181,89,l),
(508,606,l)
);
}
);
};
layerId = "4D0F633C-81E1-4D6C-A640-637CE706A5C5";
shapes = (
{
closed = 1;
nodes = (
(508,695,l),
(50,695,l),
(50,596,l),
(372,596,l),
(50,89,l),
(50,0,l),
(508,0,l),
(508,99,l),
(185,99,l),
(508,606,l)
);
}
);
width = 558;
},
{
anchors = (
{
name = top;
pos = (318,683);
}
);
layerId = "A74DA284-3E8B-4DB3-928B-2F0253F1CAB3";
shapes = (
{
closed = 1;
nodes = (
(519,704,l),
(125,704,l),
(121,684,l),
(494,684,l),
(-9,19,l),
(-13,0,l),
(404,0,l),
(408,19,l),
(13,19,l),
(515,684,l)
);
}
);
width = 487;
},
{
anchors = (
{
name = top;
pos = (350,696);
}
);
background = {
shapes = (
{
closed = 1;
nodes = (
(508,695,l),
(50,695,l),
(50,606,l),
(376,606,l),
(50,89,l),
(50,0,l),
(508,0,l),
(508,89,l),
(181,89,l),
(508,606,l)
);
}
);
};
layerId = "ED744E86-D388-498D-94EB-FEBBBDC8F1CA";
shapes = (
{
closed = 1;
nodes = (
(579,695,l),
(121,695,l),
(103,596,l),
(425,596,l),
(14,89,l),
(-2,0,l),
(456,0,l),
(474,99,l),
(151,99,l),
(563,606,l)
);
}
);
width = 558;
},
{
anchors = (
{
name = top;
pos = (391,711);
}
);
layerId = "15935870-0A58-425A-9765-D144975D2C89";
shapes = (
{
closed = 1;
nodes = (
(655,708,l),
(125,708,l),
(94,532,l),
(374,532,l),
(30,167,l),
(0,0,l),
(530,0,l),
(561,177,l),
(277,177,l),
(626,541,l)
);
}
);
width = 630;
}
);
unicode = 90;
userData = {
com.schriftgestaltung.Glyphs.ColorIndex = 4;
com.typesupply.AccentFactory.yCoordinates = {
bottom = {
name = origin;
type = glyphMetric;
};
top = {
name = capHeight;
type = fontInfo;
};
};
};
}
{
glyphname = bracketleft;
layers = (
{
layerId = "57B79CA8-97D8-4C58-BF53-6BAB6214BDE2";
shapes = (
{
closed = 1;
nodes = (
(85,-185,l),
(179,-185,l),
(179,-167,l),
(105,-167,l),
(105,916,l),
(179,916,l),
(179,934,l),
(85,934,l)
);
}
);
width = 233;
},
{
layerId = "A69CC389-2ECF-459C-A4E4-3168912CA6B4";
shapes = (
{
closed = 1;
nodes = (
(95,-229,l),
(477,-229,l),
(477,-51,l),
(303,-51,l),
(303,717,l),
(477,717,l),
(477,895,l),
(95,895,l)
);
}
);
width = 533;
},
{
layerId = "4D0F633C-81E1-4D6C-A640-637CE706A5C5";
shapes = (
{
closed = 1;
nodes = (
(148,-186,l),
(356,-186,l),
(356,-91,l),
(255,-91,l),
(255,840,l),
(356,840,l),
(356,934,l),
(148,934,l)
);
}
);
width = 485;
},
{
layerId = "A74DA284-3E8B-4DB3-928B-2F0253F1CAB3";
shapes = (
{
closed = 1;
nodes = (
(5,-185,l),
(99,-185,l),
(102,-167,l),
(28,-167,l),
(219,916,l),
(293,916,l),
(296,934,l),
(202,934,l)
);
}
);
width = 233;
},
{
layerId = "ED744E86-D388-498D-94EB-FEBBBDC8F1CA";
shapes = (
{
closed = 1;
nodes = (
(65,-176,l),
(273,-176,l),
(290,-81,l),
(189,-81,l),
(353,850,l),
(454,850,l),
(471,944,l),
(263,944,l)
);
}
);
width = 485;
},
{
layerId = "15935870-0A58-425A-9765-D144975D2C89";
shapes = (
{
closed = 1;
nodes = (
(5,-229,l),
(387,-229,l),
(418,-51,l),
(244,-51,l),
(380,717,l),
(554,717,l),
(585,895,l),
(203,895,l)
);
}
);
width = 533;
}
);
unicode = 91;
userData = {
com.schriftgestaltung.Glyphs.ColorIndex = 3;
};
}
{
glyphname = backslash;
layers = (
{
layerId = "57B79CA8-97D8-4C58-BF53-6BAB6214BDE2";
shapes = (
{
closed = 1;
nodes = (
(53,935,l),
(30,935,l),
(384,-156,l),
(405,-156,l)
);
}
);
width = 474;
},
{
layerId = "A69CC389-2ECF-459C-A4E4-3168912CA6B4";
shapes = (
{
closed = 1;
nodes = (
(412,955,l),
(200,955,l),
(440,-198,l),
(652,-198,l)
);
}
);
width = 878;
},
{
layerId = "4D0F633C-81E1-4D6C-A640-637CE706A5C5";
shapes = (
{
closed = 1;
nodes = (
(276,944,l),
(164,944,l),
(464,-175,l),
(576,-175,l)
);
}
);
width = 717;
},
{
layerId = "A74DA284-3E8B-4DB3-928B-2F0253F1CAB3";
shapes = (
{
closed = 1;
nodes = (
(149,935,l),
(126,935,l),
(288,-156,l),
(309,-156,l)
);
}
);
width = 438;
},
{
layerId = "ED744E86-D388-498D-94EB-FEBBBDC8F1CA";
shapes = (
{
closed = 1;
nodes = (
(307,944,l),
(195,944,l),
(257,-175,l),
(369,-175,l)
);
}
);
width = 532;
},
{
layerId = "15935870-0A58-425A-9765-D144975D2C89";
shapes = (
{
closed = 1;
nodes = (
(401,955,l),
(189,955,l),
(225,-198,l),
(437,-198,l)
);
}
);
width = 592;
}
);
unicode = 92;
userData = {
com.schriftgestaltung.Glyphs.ColorIndex = 3;
};
}
{
glyphname = bracketright;
layers = (
{
layerId = "57B79CA8-97D8-4C58-BF53-6BAB6214BDE2";
shapes = (
{
pos = (233,0);
ref = bracketleft;
scale = (-1,1);
}
);
width = 233;
},
{
background = {
shapes = (
{
closed = 1;
nodes = (
(397,955,l),
(15,955,l),
(15,777,l),
(190,777,l),
(190,-21,l),
(15,-21,l),
(15,-199,l),
(397,-199,l)
);
}
);
};
layerId = "A69CC389-2ECF-459C-A4E4-3168912CA6B4";
shapes = (
{
pos = (533,0);
ref = bracketleft;
scale = (-1,1);
}
);
width = 533;
},
{
background = {
shapes = (
{
closed = 1;
nodes = (
(316,944,l),
(108,944,l),
(108,850,l),
(210,850,l),
(210,-81,l),
(108,-81,l),
(108,-176,l),
(316,-176,l)
);
}
);
};
layerId = "4D0F633C-81E1-4D6C-A640-637CE706A5C5";
shapes = (
{
pos = (484,0);
ref = bracketleft;
scale = (-1,1);
}
);
width = 484;
},
{
layerId = "A74DA284-3E8B-4DB3-928B-2F0253F1CAB3";
shapes = (
{
closed = 1;
nodes = (
(171,934,l),
(168,916,l),
(242,916,l),
(51,-167,l),
(-23,-167,l),
(-26,-185,l),
(68,-185,l),
(265,934,l)
);
}
);
width = 233;
},
{
layerId = "ED744E86-D388-498D-94EB-FEBBBDC8F1CA";
shapes = (
{
closed = 1;
nodes = (
(244,934,l),
(228,840,l),
(329,840,l),
(164,-91,l),
(63,-91,l),
(47,-186,l),
(255,-186,l),
(452,934,l)
);
}
);
width = 484;
},
{
layerId = "15935870-0A58-425A-9765-D144975D2C89";
shapes = (
{
closed = 1;
nodes = (
(164,895,l),
(133,717,l),
(307,717,l),
(171,-51,l),
(-3,-51,l),
(-34,-229,l),
(348,-229,l),
(546,895,l)
);
}
);
width = 533;
}
);
unicode = 93;
userData = {
com.schriftgestaltung.Glyphs.ColorIndex = 3;
};
}
{
glyphname = asciicircum;
layers = (
{
layerId = "57B79CA8-97D8-4C58-BF53-6BAB6214BDE2";
shapes = (
{
closed = 1;
nodes = (
(492,174,l),
(512,174,l),
(282,683,l),
(270,683,l),
(40,174,l),
(60,174,l),
(277,653,l)
);
}
);
width = 552;
},
{
layerId = "A69CC389-2ECF-459C-A4E4-3168912CA6B4";
shapes = (
{
closed = 1;
nodes = (
(513,162,l),
(733,162,l),
(489,711,l),
(271,711,l),
(25,162,l),
(245,162,l),
(380,460,l)
);
}
);
width = 758;
},
{
layerId = "4D0F633C-81E1-4D6C-A640-637CE706A5C5";
shapes = (
{
closed = 1;
nodes = (
(500,168,l),
(619,168,l),
(381,696,l),
(273,696,l),
(36,168,l),
(154,168,l),
(328,558,l)
);
}
);
width = 654;
},
{
layerId = "A74DA284-3E8B-4DB3-928B-2F0253F1CAB3";
shapes = (
{
closed = 1;
nodes = (
(475,174,l),
(495,174,l),
(355,683,l),
(343,683,l),
(23,174,l),
(43,174,l),
(345,653,l)
);
}
);
width = 552;
},
{
layerId = "ED744E86-D388-498D-94EB-FEBBBDC8F1CA";
shapes = (
{
closed = 1;
nodes = (
(478,168,l),
(597,168,l),
(452,696,l),
(344,696,l),
(14,168,l),
(132,168,l),
(375,558,l)
);
}
);
width = 654;
},
{
layerId = "15935870-0A58-425A-9765-D144975D2C89";
shapes = (
{
closed = 1;
nodes = (
(492,162,l),
(712,162,l),
(565,711,l),
(347,711,l),
(4,162,l),
(224,162,l),
(411,460,l)
);
}
);
width = 758;
}
);
unicode = 94;
userData = {
com.schriftgestaltung.Glyphs.ColorIndex = 3;
};
}
{
glyphname = underscore;
layers = (
{
layerId = "57B79CA8-97D8-4C58-BF53-6BAB6214BDE2";
shapes = (
{
closed = 1;
nodes = (
(40,-48,l),
(493,-48,l),
(493,-30,l),
(40,-30,l)
);
}
);
width = 533;
},
{
layerId = "A69CC389-2ECF-459C-A4E4-3168912CA6B4";
shapes = (
{
closed = 1;
nodes = (
(49,-258,l),
(724,-258,l),
(724,-42,l),
(49,-42,l)
);
}
);
width = 764;
},
{
layerId = "4D0F633C-81E1-4D6C-A640-637CE706A5C5";
shapes = (
{
closed = 1;
nodes = (
(126,-146,l),
(684,-146,l),
(684,-40,l),
(126,-40,l)
);
}
);
width = 798;
},
{
layerId = "A74DA284-3E8B-4DB3-928B-2F0253F1CAB3";
shapes = (
{
closed = 1;
nodes = (
(-16,-48,l),
(437,-48,l),
(440,-30,l),
(-13,-30,l)
);
}
);
width = 533;
},
{
layerId = "ED744E86-D388-498D-94EB-FEBBBDC8F1CA";
shapes = (
{
closed = 1;
nodes = (
(49,-146,l),
(607,-146,l),
(625,-40,l),
(67,-40,l)
);
}
);
width = 798;
},
{
layerId = "15935870-0A58-425A-9765-D144975D2C89";
shapes = (
{
closed = 1;
nodes = (
(-46,-258,l),
(629,-258,l),
(667,-42,l),
(-8,-42,l)
);
}
);
width = 764;
}
);
unicode = 95;
userData = {
com.schriftgestaltung.Glyphs.ColorIndex = 3;
};
}
{
glyphname = grave;
layers = (
{
anchors = (
{
name = _top;
pos = (147,540);
}
);
layerId = "57B79CA8-97D8-4C58-BF53-6BAB6214BDE2";
shapes = (
{
closed = 1;
nodes = (
(40,716,l),
(227,586,l),
(227,606,l),
(40,740,l)
);
}
);
width = 267;
},
{
anchors = (
{
name = _top;
pos = (141,564);
}
);
layerId = "A69CC389-2ECF-459C-A4E4-3168912CA6B4";
shapes = (
{
closed = 1;
nodes = (
(10,696,l),
(269,602,l),
(269,750,l),
(10,860,l)
);
}
);
width = 324;
},
{
anchors = (
{
name = _top;
pos = (128,551);
}
);
layerId = "4D0F633C-81E1-4D6C-A640-637CE706A5C5";
shapes = (
{
closed = 1;
nodes = (
(10,699,l),
(231,590,l),
(231,674,l),
(10,796,l)
);
}
);
width = 254;
},
{
anchors = (
{
name = _top;
pos = (195,540);
}
);
layerId = "A74DA284-3E8B-4DB3-928B-2F0253F1CAB3";
shapes = (
{
closed = 1;
nodes = (
(119,716,l),
(283,586,l),
(286,606,l),
(123,740,l)
);
}
);
width = 267;
},
{
anchors = (
{
name = _top;
pos = (173,551);
}
);
layerId = "ED744E86-D388-498D-94EB-FEBBBDC8F1CA";
shapes = (
{
closed = 1;
nodes = (
(82,699,l),
(283,590,l),
(298,674,l),
(99,796,l)
);
}
);
width = 254;
},
{
anchors = (
{
name = _top;
pos = (191,564);
}
);
layerId = "15935870-0A58-425A-9765-D144975D2C89";
shapes = (
{
closed = 1;
nodes = (
(83,696,l),
(325,602,l),
(352,750,l),
(112,860,l)
);
}
);
width = 324;
}
);
unicode = 96;
userData = {
com.schriftgestaltung.Glyphs.ColorIndex = 4;
com.typesupply.AccentFactory.yCoordinates = {
below = {
name = xHeight;
type = fontInfo;
};
};
};
}
{
glyphname = a;
layers = (
{
anchors = (
{
name = ogonek;
pos = (586,0);
},
{
name = top;
pos = (339,540);
}
);
layerId = "57B79CA8-97D8-4C58-BF53-6BAB6214BDE2";
shapes = (
{
closed = 1;
nodes = (
(60,270,c),
(60,98,o),
(168,-7,o),
(323,-7,c),
(452,-7,o),
(539,69,o),
(567,165,c),
(567,0,l),
(586,0,l),
(586,540,l),
(567,540,l),
(567,375,l),
(539,471,o),
(452,547,o),
(323,547,c),
(168,547,o),
(60,442,o)
);
},
{
closed = 1;
nodes = (
(567,270,c),
(567,114,o),
(464,11,o),
(323,11,c),
(175,11,o),
(80,109,o),
(80,270,c),
(80,431,o),
(175,529,o),
(323,529,c),
(464,529,o),
(567,426,o)
);
}
);
width = 671;
},
{
anchors = (
{
name = ogonek;
pos = (630,0);
},
{
name = top;
pos = (347,564);
}
);
background = {
anchors = (
{
name = ogonek;
pos = (630,0);
},
{
name = top;
pos = (347,564);
}
);
shapes = (
{
closed = 1;
nodes = (
(20,282,c),
(20,100,o),
(123,-7,o),
(253,-7,c),
(328,-7,o),
(382,26,o),
(409,77,c),
(409,0,l),
(630,0,l),
(630,564,l),
(409,564,l),
(409,487,l),
(382,538,o),
(328,571,o),
(253,571,c),
(123,571,o),
(20,464,o)
);
},
{
closed = 1;
nodes = (
(409,282,c),
(409,220,o),
(373,187,o),
(327,187,c),
(281,187,o),
(245,220,o),
(245,282,c),
(245,344,o),
(281,377,o),
(327,377,c),
(373,377,o),
(409,344,o)
);
}
);
};
layerId = "A69CC389-2ECF-459C-A4E4-3168912CA6B4";
shapes = (
{
closed = 1;
nodes = (
(20,282,c),
(20,100,o),
(123,-7,o),
(253,-7,c),
(328,-7,o),
(382,26,o),
(409,77,c),
(409,0,l),
(630,0,l),
(630,564,l),
(409,564,l),
(409,487,l),
(382,538,o),
(328,571,o),
(253,571,c),
(123,571,o),
(20,464,o)
);
},
{
closed = 1;
nodes = (
(409,282,c),
(409,220,o),
(373,187,o),
(327,187,c),
(281,187,o),
(245,220,o),
(245,282,c),
(245,344,o),
(281,377,o),
(327,377,c),
(373,377,o),
(409,344,o)
);
}
);
width = 680;
},
{
anchors = (
{
name = ogonek;
pos = (603,0);
},
{
name = top;
pos = (339,551);
}
);
background = {
shapes = (
{
closed = 1;
nodes = (
(37,278,cs),
(37,108,o),
(152,-9,o),
(295,-9,cs),
(387,-9,o),
(453,37,o),
(488,86,c),
(488,0,l),
(603,0,l),
(603,551,l),
(488,551,l),
(488,467,l),
(454,514,o),
(390,560,o),
(297,560,cs),
(152,560,o),
(37,448,o)
);
},
{
closed = 1;
nodes = (
(488,276,cs),
(488,157,o),
(407,90,o),
(321,90,cs),
(236,90,o),
(154,159,o),
(154,278,cs),
(154,397,o),
(236,461,o),
(321,461,cs),
(407,461,o),
(488,394,o)
);
}
);
};
guides = (
{
pos = (549,86);
},
{
pos = (407,466);
}
);
layerId = "4D0F633C-81E1-4D6C-A640-637CE706A5C5";
shapes = (
{
closed = 1;
nodes = (
(37,278,cs),
(37,108,o),
(152,-9,o),
(295,-9,cs),
(387,-9,o),
(453,35,o),
(488,82,c),
(488,0,l),
(603,0,l),
(603,551,l),
(488,551,l),
(488,471,l),
(454,516,o),
(390,560,o),
(297,560,cs),
(152,560,o),
(37,448,o)
);
},
{
closed = 1;
nodes = (
(488,276,cs),
(488,157,o),
(407,90,o),
(321,90,cs),
(236,90,o),
(154,159,o),
(154,278,cs),
(154,397,o),
(236,461,o),
(321,461,cs),
(407,461,o),
(488,394,o)
);
}
);
width = 678;
},
{
anchors = (
{
name = ogonek;
pos = (603,0);
},
{
name = top;
pos = (339,551);
}
);
associatedMasterId = "4D0F633C-81E1-4D6C-A640-637CE706A5C5";
background = {
shapes = (
{
closed = 1;
nodes = (
(37,278,cs),
(37,108,o),
(152,-9,o),
(295,-9,cs),
(387,-9,o),
(453,37,o),
(488,86,c),
(488,0,l),
(603,0,l),
(603,551,l),
(488,551,l),
(488,467,l),
(454,514,o),
(390,560,o),
(297,560,cs),
(152,560,o),
(37,448,o)
);
},
{
closed = 1;
nodes = (
(488,276,cs),
(488,157,o),
(407,90,o),
(321,90,cs),
(236,90,o),
(154,159,o),
(154,278,cs),
(154,397,o),
(236,461,o),
(321,461,cs),
(407,461,o),
(488,394,o)
);
}
);
};
guides = (
{
pos = (549,86);
},
{
pos = (407,466);
}
);
layerId = "89DB5EE2-4F3F-4894-A273-E2AC796B90BE";
name = "Sep 19 17, 18:23";
shapes = (
{
closed = 1;
nodes = (
(37,278,cs),
(37,108,o),
(152,-9,o),
(295,-9,cs),
(387,-9,o),
(453,37,o),
(488,86,c),
(488,0,l),
(603,0,l),
(603,551,l),
(488,551,l),
(488,467,l),
(454,514,o),
(390,560,o),
(297,560,cs),
(152,560,o),
(37,448,o)
);
},
{
closed = 1;
nodes = (
(488,276,cs),
(488,157,o),
(407,90,o),
(321,90,cs),
(236,90,o),
(154,159,o),
(154,278,cs),
(154,397,o),
(236,461,o),
(321,461,cs),
(407,461,o),
(488,394,o)
);
}
);
width = 678;
},
{
anchors = (
{
name = ogonek;
pos = (538,0);
},
{
name = top;
pos = (387,540);
}
);
layerId = "A74DA284-3E8B-4DB3-928B-2F0253F1CAB3";
shapes = (
{
closed = 1;
nodes = (
(60,270,c),
(30,98,o),
(119,-7,o),
(274,-7,c),
(403,-7,o),
(504,69,o),
(548,165,c),
(519,0,l),
(538,0,l),
(634,540,l),
(615,540,l),
(586,375,l),
(574,471,o),
(501,547,o),
(372,547,c),
(217,547,o),
(90,442,o)
);
},
{
closed = 1;
nodes = (
(567,270,c),
(539,114,o),
(418,11,o),
(277,11,c),
(129,11,o),
(52,109,o),
(80,270,c),
(108,431,o),
(221,529,o),
(369,529,c),
(510,529,o),
(595,426,o)
);
}
);
width = 671;
},
{
anchors = (
{
name = ogonek;
pos = (551,0);
},
{
name = top;
pos = (384,551);
}
);
background = {
shapes = (
{
closed = 1;
nodes = (
(37,278,cs),
(37,108,o),
(152,-9,o),
(295,-9,cs),
(387,-9,o),
(453,37,o),
(488,86,c),
(488,0,l),
(603,0,l),
(603,551,l),
(488,551,l),
(488,467,l),
(454,514,o),
(390,560,o),
(297,560,cs),
(152,560,o),
(37,448,o)
);
},
{
closed = 1;
nodes = (
(488,276,cs),
(488,157,o),
(407,90,o),
(321,90,cs),
(236,90,o),
(154,159,o),
(154,278,cs),
(154,397,o),
(236,461,o),
(321,461,cs),
(407,461,o),
(488,394,o)
);
}
);
};
guides = (
{
pos = (351,66);
},
{
pos = (544,446);
}
);
layerId = "ED744E86-D388-498D-94EB-FEBBBDC8F1CA";
shapes = (
{
closed = 1;
nodes = (
(34,278,cs),
(4,108,o),
(99,-9,o),
(242,-9,cs),
(334,-9,o),
(408,35,o),
(451,82,c),
(436,0,l),
(551,0,l),
(648,551,l),
(533,551,l),
(519,471,l),
(493,516,o),
(437,560,o),
(344,560,cs),
(199,560,o),
(64,448,o)
);
},
{
closed = 1;
nodes = (
(485,276,cs),
(464,157,o),
(371,90,o),
(285,90,cs),
(200,90,o),
(130,159,o),
(151,278,cs),
(172,397,o),
(266,461,o),
(351,461,cs),
(437,461,o),
(506,394,o)
);
}
);
width = 678;
},
{
anchors = (
{
name = ogonek;
pos = (580,0);
},
{
name = top;
pos = (397,564);
}
);
layerId = "15935870-0A58-425A-9765-D144975D2C89";
shapes = (
{
closed = 1;
nodes = (
(20,282,c),
(-12,100,o),
(72,-7,o),
(202,-7,c),
(277,-7,o),
(337,26,o),
(373,77,c),
(359,0,l),
(580,0,l),
(680,564,l),
(459,564,l),
(445,487,l),
(427,538,o),
(379,571,o),
(304,571,c),
(174,571,o),
(52,464,o)
);
},
{
closed = 1;
nodes = (
(409,282,c),
(398,220,o),
(356,187,o),
(310,187,c),
(264,187,o),
(234,220,o),
(245,282,c),
(256,344,o),
(298,377,o),
(344,377,c),
(390,377,o),
(420,344,o)
);
}
);
width = 680;
}
);
unicode = 97;
userData = {
com.schriftgestaltung.Glyphs.ColorIndex = 4;
com.typemytype.robofont.guides = (
{
angle = 90;
isGlobal = 0;
magnetic = 5;
x = 306;
y = 501;
},
{
angle = 0;
isGlobal = 0;
magnetic = 5;
x = 88;
y = 270;
}
);
com.typesupply.AccentFactory.yCoordinates = {
bottom = {
name = origin;
type = glyphMetric;
};
top = {
name = xHeight;
type = fontInfo;
};
};
};
}
{
glyphname = b;
layers = (
{
layerId = "57B79CA8-97D8-4C58-BF53-6BAB6214BDE2";
shapes = (
{
closed = 1;
nodes = (
(104,375,c),
(104,740,l),
(85,740,l),
(85,0,l),
(104,0,l),
(104,165,l),
(133,69,o),
(219,-7,o),
(348,-7,c),
(503,-7,o),
(611,98,o),
(611,270,c),
(611,442,o),
(503,547,o),
(348,547,c),
(219,547,o),
(135,471,o)
);
},
{
closed = 1;
nodes = (
(591,270,c),
(591,109,o),
(496,11,o),
(348,11,c),
(207,11,o),
(104,114,o),
(104,270,c),
(104,426,o),
(207,529,o),
(348,529,c),
(496,529,o),
(591,431,o)
);
}
);
width = 671;
},
{
layerId = "A69CC389-2ECF-459C-A4E4-3168912CA6B4";
shapes = (
{
closed = 1;
nodes = (
(272,487,c),
(272,740,l),
(50,740,l),
(50,0,l),
(272,0,l),
(272,77,l),
(299,26,o),
(352,-7,o),
(427,-7,c),
(557,-7,o),
(660,100,o),
(660,282,c),
(660,464,o),
(557,571,o),
(427,571,c),
(352,571,o),
(299,538,o)
);
},
{
closed = 1;
nodes = (
(435,282,c),
(435,220,o),
(399,187,o),
(353,187,c),
(307,187,o),
(271,220,o),
(271,282,c),
(271,344,o),
(307,377,o),
(353,377,c),
(399,377,o),
(435,344,o)
);
}
);
width = 680;
},
{
background = {
shapes = (
{
closed = 1;
nodes = (
(189,465,c),
(189,740,l),
(75,740,l),
(75,0,l),
(189,0,l),
(189,84,l),
(225,34,o),
(290,-9,o),
(381,-9,cs),
(526,-9,o),
(640,108,o),
(640,278,cs),
(640,448,o),
(527,560,o),
(381,560,cs),
(294,560,o),
(225,517,o)
);
},
{
closed = 1;
nodes = (
(524,278,cs),
(524,159,o),
(442,90,o),
(356,90,cs),
(271,90,o),
(189,157,o),
(189,276,cs),
(189,394,o),
(271,461,o),
(356,461,cs),
(442,461,o),
(524,397,o)
);
}
);
};
layerId = "4D0F633C-81E1-4D6C-A640-637CE706A5C5";
shapes = (
{
closed = 1;
nodes = (
(189,469,c),
(189,740,l),
(75,740,l),
(75,0,l),
(189,0,l),
(189,80,l),
(225,32,o),
(290,-9,o),
(381,-9,cs),
(526,-9,o),
(640,108,o),
(640,278,cs),
(640,448,o),
(527,560,o),
(381,560,cs),
(294,560,o),
(225,519,o)
);
},
{
closed = 1;
nodes = (
(524,278,cs),
(524,159,o),
(442,90,o),
(356,90,cs),
(271,90,o),
(189,157,o),
(189,276,cs),
(189,394,o),
(271,461,o),
(356,461,cs),
(442,461,o),
(524,397,o)
);
}
);
width = 678;
},
{
layerId = "A74DA284-3E8B-4DB3-928B-2F0253F1CAB3";
shapes = (
{
closed = 1;
nodes = (
(123,375,c),
(187,740,l),
(168,740,l),
(37,0,l),
(56,0,l),
(85,165,l),
(98,69,o),
(170,-7,o),
(299,-7,c),
(454,-7,o),
(581,98,o),
(611,270,c),
(641,442,o),
(552,547,o),
(397,547,c),
(268,547,o),
(170,471,o)
);
},
{
closed = 1;
nodes = (
(591,270,c),
(563,109,o),
(450,11,o),
(302,11,c),
(161,11,o),
(76,114,o),
(104,270,c),
(132,426,o),
(253,529,o),
(394,529,c),
(542,529,o),
(619,431,o)
);
}
);
width = 671;
},
{
background = {
shapes = (
{
closed = 1;
nodes = (
(189,465,c),
(189,740,l),
(75,740,l),
(75,0,l),
(189,0,l),
(189,84,l),
(225,34,o),
(290,-9,o),
(381,-9,cs),
(526,-9,o),
(640,108,o),
(640,278,cs),
(640,448,o),
(527,560,o),
(381,560,cs),
(294,560,o),
(225,517,o)
);
},
{
closed = 1;
nodes = (
(524,278,cs),
(524,159,o),
(442,90,o),
(356,90,cs),
(271,90,o),
(189,157,o),
(189,276,cs),
(189,394,o),
(271,461,o),
(356,461,cs),
(442,461,o),
(524,397,o)
);
}
);
};
layerId = "ED744E86-D388-498D-94EB-FEBBBDC8F1CA";
shapes = (
{
closed = 1;
nodes = (
(220,469,c),
(268,740,l),
(154,740,l),
(23,0,l),
(137,0,l),
(151,80,l),
(179,32,o),
(237,-9,o),
(328,-9,cs),
(473,-9,o),
(607,108,o),
(637,278,cs),
(667,448,o),
(574,560,o),
(428,560,cs),
(341,560,o),
(265,519,o)
);
},
{
closed = 1;
nodes = (
(521,278,cs),
(500,159,o),
(406,90,o),
(320,90,cs),
(235,90,o),
(165,157,o),
(186,276,cs),
(207,394,o),
(301,461,o),
(386,461,cs),
(472,461,o),
(542,397,o)
);
}
);
width = 678;
},
{
layerId = "15935870-0A58-425A-9765-D144975D2C89";
shapes = (
{
closed = 1;
nodes = (
(308,487,c),
(353,740,l),
(131,740,l),
(0,0,l),
(222,0,l),
(236,77,l),
(254,26,o),
(301,-7,o),
(376,-7,c),
(506,-7,o),
(628,100,o),
(660,282,c),
(692,464,o),
(608,571,o),
(478,571,c),
(403,571,o),
(344,538,o)
);
},
{
closed = 1;
nodes = (
(435,282,c),
(424,220,o),
(382,187,o),
(336,187,c),
(290,187,o),
(260,220,o),
(271,282,c),
(282,344,o),
(324,377,o),
(370,377,c),
(416,377,o),
(446,344,o)
);
}
);
width = 680;
}
);
unicode = 98;
userData = {
com.schriftgestaltung.Glyphs.ColorIndex = 4;
com.typemytype.robofont.layerData = {
b = {
anchors = (
);
components = (
);
contours = (
{
points = (
{
segmentType = curve;
smooth = 0;
x = 105;
y = 398;
},
{
segmentType = line;
smooth = 0;
x = 105;
y = 740;
},
{
segmentType = line;
smooth = 0;
x = 85;
y = 740;
},
{
segmentType = line;
smooth = 0;
x = 85;
y = 0;
},
{
segmentType = line;
smooth = 0;
x = 105;
y = 0;
},
{
segmentType = line;
smooth = 0;
x = 105;
y = 140;
},
{
smooth = 0;
x = 137;
y = 60;
},
{
smooth = 0;
x = 223;
y = -12;
},
{
segmentType = curve;
smooth = 1;
x = 342;
y = -12;
},
{
smooth = 0;
x = 498;
y = -12;
},
{
smooth = 0;
x = 611;
y = 108;
},
{
segmentType = curve;
smooth = 1;
x = 611;
y = 278;
},
{
smooth = 0;
x = 611;
y = 448;
},
{
smooth = 0;
x = 498;
y = 552;
},
{
segmentType = curve;
smooth = 1;
x = 342;
y = 552;
},
{
smooth = 0;
x = 223;
y = 552;
},
{
smooth = 0;
x = 138;
y = 480;
}
);
},
{
points = (
{
segmentType = curve;
smooth = 1;
x = 590;
y = 278;
},
{
smooth = 0;
x = 590;
y = 118;
},
{
smooth = 0;
x = 480;
y = 5;
},
{
segmentType = curve;
smooth = 1;
x = 347;
y = 5;
},
{
smooth = 0;
x = 215;
y = 5;
},
{
smooth = 0;
x = 105;
y = 110;
},
{
segmentType = curve;
smooth = 1;
x = 105;
y = 270;
},
{
smooth = 0;
x = 105;
y = 430;
},
{
smooth = 0;
x = 215;
y = 536;
},
{
segmentType = curve;
smooth = 1;
x = 347;
y = 536;
},
{
smooth = 0;
x = 480;
y = 536;
},
{
smooth = 0;
x = 590;
y = 438;
}
);
}
);
lib = {
};
name = b;
unicodes = (
);
width = 671;
};
};
com.typesupply.AccentFactory.yCoordinates = {
bottom = {
name = origin;
type = glyphMetric;
};
top = {
name = ascender;
type = fontInfo;
};
};
};
}
{
glyphname = c;
layers = (
{
anchors = (
{
name = bottom;
pos = (317,0);
},
{
name = top;
pos = (317,540);
}
);
layerId = "57B79CA8-97D8-4C58-BF53-6BAB6214BDE2";
shapes = (
{
closed = 1;
nodes = (
(60,270,c),
(60,96,o),
(170,-7,o),
(320,-7,cs),
(460,-7,o),
(550,72,o),
(568,183,c),
(548,183,l),
(531,76,o),
(440,11,o),
(320,11,cs),
(196,11,o),
(80,91,o),
(80,270,c),
(80,449,o),
(196,529,o),
(320,529,cs),
(440,529,o),
(531,464,o),
(548,357,c),
(568,357,l),
(550,468,o),
(460,547,o),
(320,547,cs),
(170,547,o),
(60,444,o)
);
}
);
width = 628;
},
{
anchors = (
{
name = bottom;
pos = (299,0);
},
{
name = top;
pos = (299,564);
}
);
layerId = "A69CC389-2ECF-459C-A4E4-3168912CA6B4";
shapes = (
{
closed = 1;
nodes = (
(20,282,c),
(20,102,o),
(139,-7,o),
(308,-7,cs),
(453,-7,o),
(562,79,o),
(589,227,c),
(354,227,l),
(346,200,o),
(331,183,o),
(303,183,cs),
(269,183,o),
(245,214,o),
(245,282,c),
(245,350,o),
(269,381,o),
(303,381,cs),
(331,381,o),
(346,364,o),
(354,337,c),
(589,337,l),
(562,485,o),
(453,571,o),
(308,571,cs),
(139,571,o),
(20,462,o)
);
}
);
width = 609;
},
{
anchors = (
{
name = bottom;
pos = (300,0);
},
{
name = top;
pos = (300,551);
}
);
layerId = "4D0F633C-81E1-4D6C-A640-637CE706A5C5";
shapes = (
{
closed = 1;
nodes = (
(37,276,cs),
(37,103,o),
(149,-9,o),
(307,-9,cs),
(442,-9,o),
(530,66,o),
(561,174,c),
(438,174,l),
(417,117,o),
(375,87,o),
(307,87,cs),
(215,87,o),
(154,155,o),
(154,276,cs),
(154,396,o),
(215,464,o),
(307,464,cs),
(375,464,o),
(419,430,o),
(438,377,c),
(561,377,l),
(530,493,o),
(442,560,o),
(307,560,cs),
(149,560,o),
(37,448,o)
);
}
);
width = 600;
},
{
anchors = (
{
name = bottom;
pos = (269,0);
},
{
name = top;
pos = (365,540);
}
);
layerId = "A74DA284-3E8B-4DB3-928B-2F0253F1CAB3";
shapes = (
{
closed = 1;
nodes = (
(60,270,c),
(29,96,o),
(121,-7,o),
(271,-7,cs),
(411,-7,o),
(515,72,o),
(553,183,c),
(533,183,l),
(497,76,o),
(394,11,o),
(274,11,cs),
(150,11,o),
(48,91,o),
(80,270,c),
(112,449,o),
(242,529,o),
(366,529,cs),
(486,529,o),
(565,464,o),
(563,357,c),
(583,357,l),
(585,468,o),
(509,547,o),
(369,547,cs),
(219,547,o),
(91,444,o)
);
}
);
width = 628;
},
{
anchors = (
{
name = bottom;
pos = (248,0);
},
{
name = top;
pos = (345,551);
}
);
layerId = "ED744E86-D388-498D-94EB-FEBBBDC8F1CA";
shapes = (
{
closed = 1;
nodes = (
(34,276,cs),
(3,103,o),
(96,-9,o),
(254,-9,cs),
(389,-9,o),
(490,66,o),
(540,174,c),
(417,174,l),
(386,117,o),
(339,87,o),
(271,87,cs),
(179,87,o),
(130,155,o),
(151,276,cs),
(172,396,o),
(245,464,o),
(337,464,cs),
(405,464,o),
(443,430,o),
(453,377,c),
(576,377,l),
(565,493,o),
(489,560,o),
(354,560,cs),
(196,560,o),
(64,448,o)
);
}
);
width = 600;
},
{
anchors = (
{
name = bottom;
pos = (249,0);
},
{
name = top;
pos = (349,564);
}
);
layerId = "15935870-0A58-425A-9765-D144975D2C89";
shapes = (
{
closed = 1;
nodes = (
(20,282,c),
(-12,102,o),
(88,-7,o),
(257,-7,cs),
(402,-7,o),
(526,79,o),
(579,227,c),
(344,227,l),
(332,200,o),
(314,183,o),
(286,183,cs),
(252,183,o),
(233,214,o),
(245,282,c),
(257,350,o),
(286,381,o),
(320,381,cs),
(348,381,o),
(360,364,o),
(364,337,c),
(599,337,l),
(598,485,o),
(504,571,o),
(359,571,cs),
(190,571,o),
(52,462,o)
);
}
);
width = 609;
}
);
unicode = 99;
userData = {
com.schriftgestaltung.Glyphs.ColorIndex = 4;
com.typemytype.robofont.guides = (
{
angle = 90;
isGlobal = 0;
magnetic = 5;
x = 287;
y = 532;
}
);
com.typesupply.AccentFactory.yCoordinates = {
bottom = {
name = origin;
type = glyphMetric;
};
top = {
name = xHeight;
type = fontInfo;
};
};
};
}
{
glyphname = d;
layers = (
{
anchors = (
{
name = topright;
pos = (586,740);
}
);
layerId = "57B79CA8-97D8-4C58-BF53-6BAB6214BDE2";
shapes = (
{
closed = 1;
nodes = (
(60,270,c),
(60,98,o),
(168,-7,o),
(323,-7,c),
(452,-7,o),
(539,69,o),
(567,166,c),
(567,0,l),
(586,0,l),
(586,740,l),
(567,740,l),
(567,375,l),
(539,471,o),
(452,547,o),
(323,547,c),
(168,547,o),
(60,442,o)
);
},
{
closed = 1;
nodes = (
(567,270,c),
(567,114,o),
(464,11,o),
(323,11,c),
(175,11,o),
(80,109,o),
(80,270,c),
(80,431,o),
(175,529,o),
(323,529,c),
(464,529,o),
(567,426,o)
);
}
);
width = 671;
},
{
anchors = (
{
name = topright;
pos = (630,740);
}
);
layerId = "A69CC389-2ECF-459C-A4E4-3168912CA6B4";
shapes = (
{
closed = 1;
nodes = (
(20,282,c),
(20,100,o),
(123,-7,o),
(253,-7,c),
(328,-7,o),
(381,26,o),
(408,77,c),
(408,0,l),
(630,0,l),
(630,740,l),
(408,740,l),
(408,487,l),
(381,538,o),
(328,571,o),
(253,571,c),
(123,571,o),
(20,464,o)
);
},
{
closed = 1;
nodes = (
(409,282,c),
(409,220,o),
(373,187,o),
(327,187,c),
(281,187,o),
(245,220,o),
(245,282,c),
(245,344,o),
(281,377,o),
(327,377,c),
(373,377,o),
(409,344,o)
);
}
);
width = 680;
},
{
anchors = (
{
name = topright;
pos = (603,740);
}
);
background = {
shapes = (
{
closed = 1;
nodes = (
(37,278,cs),
(37,108,o),
(152,-9,o),
(297,-9,cs),
(387,-9,o),
(453,39,o),
(488,103,c),
(488,0,l),
(603,0,l),
(603,740,l),
(488,740,l),
(488,453,l),
(454,514,o),
(387,560,o),
(297,560,cs),
(152,560,o),
(37,448,o)
);
},
{
closed = 1;
nodes = (
(488,276,cs),
(488,157,o),
(407,90,o),
(321,90,cs),
(236,90,o),
(154,159,o),
(154,278,cs),
(154,397,o),
(236,461,o),
(321,461,cs),
(407,461,o),
(488,394,o)
);
}
);
};
layerId = "4D0F633C-81E1-4D6C-A640-637CE706A5C5";
shapes = (
{
closed = 1;
nodes = (
(37,278,cs),
(37,108,o),
(152,-9,o),
(297,-9,cs),
(387,-9,o),
(453,33,o),
(488,83,c),
(488,0,l),
(603,0,l),
(603,740,l),
(488,740,l),
(488,474,l),
(446,526,o),
(370,560,o),
(298,560,cs),
(152,560,o),
(37,448,o)
);
},
{
closed = 1;
nodes = (
(488,276,cs),
(488,157,o),
(407,90,o),
(321,90,cs),
(236,90,o),
(154,159,o),
(154,278,cs),
(154,397,o),
(236,461,o),
(321,461,cs),
(407,461,o),
(488,394,o)
);
}
);
width = 678;
},
{
anchors = (
{
name = topright;
pos = (669,740);
}
);
layerId = "A74DA284-3E8B-4DB3-928B-2F0253F1CAB3";
shapes = (
{
closed = 1;
nodes = (
(60,270,c),
(30,98,o),
(119,-7,o),
(274,-7,c),
(403,-7,o),
(504,69,o),
(549,166,c),
(519,0,l),
(538,0,l),
(669,740,l),
(650,740,l),
(586,375,l),
(574,471,o),
(501,547,o),
(372,547,c),
(217,547,o),
(90,442,o)
);
},
{
closed = 1;
nodes = (
(567,270,c),
(539,114,o),
(418,11,o),
(277,11,c),
(129,11,o),
(52,109,o),
(80,270,c),
(108,431,o),
(221,529,o),
(369,529,c),
(510,529,o),
(595,426,o)
);
}
);
width = 671;
},
{
anchors = (
{
name = topright;
pos = (682,740);
}
);
background = {
shapes = (
{
closed = 1;
nodes = (
(37,278,cs),
(37,108,o),
(152,-9,o),
(297,-9,cs),
(387,-9,o),
(453,39,o),
(488,103,c),
(488,0,l),
(603,0,l),
(603,740,l),
(488,740,l),
(488,453,l),
(454,514,o),
(387,560,o),
(297,560,cs),
(152,560,o),
(37,448,o)
);
},
{
closed = 1;
nodes = (
(488,276,cs),
(488,157,o),
(407,90,o),
(321,90,cs),
(236,90,o),
(154,159,o),
(154,278,cs),
(154,397,o),
(236,461,o),
(321,461,cs),
(407,461,o),
(488,394,o)
);
}
);
};
layerId = "ED744E86-D388-498D-94EB-FEBBBDC8F1CA";
shapes = (
{
closed = 1;
nodes = (
(34,278,cs),
(4,108,o),
(99,-9,o),
(244,-9,cs),
(334,-9,o),
(407,33,o),
(451,83,c),
(436,0,l),
(551,0,l),
(682,740,l),
(567,740,l),
(520,474,l),
(487,526,o),
(417,560,o),
(345,560,cs),
(199,560,o),
(64,448,o)
);
},
{
closed = 1;
nodes = (
(485,276,cs),
(464,157,o),
(371,90,o),
(285,90,cs),
(200,90,o),
(130,159,o),
(151,278,cs),
(172,397,o),
(266,461,o),
(351,461,cs),
(437,461,o),
(506,394,o)
);
}
);
width = 678;
},
{
anchors = (
{
name = topright;
pos = (711,740);
}
);
layerId = "15935870-0A58-425A-9765-D144975D2C89";
shapes = (
{
closed = 1;
nodes = (
(20,282,c),
(-12,100,o),
(72,-7,o),
(202,-7,c),
(277,-7,o),
(336,26,o),
(372,77,c),
(358,0,l),
(580,0,l),
(711,740,l),
(489,740,l),
(444,487,l),
(426,538,o),
(379,571,o),
(304,571,c),
(174,571,o),
(52,464,o)
);
},
{
closed = 1;
nodes = (
(409,282,c),
(398,220,o),
(356,187,o),
(310,187,c),
(264,187,o),
(234,220,o),
(245,282,c),
(256,344,o),
(298,377,o),
(344,377,c),
(390,377,o),
(420,344,o)
);
}
);
width = 680;
}
);
unicode = 100;
userData = {
com.schriftgestaltung.Glyphs.ColorIndex = 4;
com.typesupply.AccentFactory.yCoordinates = {
bottom = {
name = origin;
type = glyphMetric;
};
top = {
name = ascender;
type = fontInfo;
};
};
};
}
{
glyphname = e;
layers = (
{
anchors = (
{
name = bottom;
pos = (314,0);
},
{
name = ogonek;
pos = (428,12);
},
{
name = top;
pos = (314,540);
}
);
layerId = "57B79CA8-97D8-4C58-BF53-6BAB6214BDE2";
shapes = (
{
closed = 1;
nodes = (
(70,261,l),
(567,261,l),
(568,279,o),
(568,289,o),
(568,315,cs),
(568,428,o),
(485,547,o),
(320,547,cs),
(170,547,o),
(60,444,o),
(60,270,c),
(60,96,o),
(170,-7,o),
(320,-7,cs),
(460,-7,o),
(550,72,o),
(568,183,c),
(548,183,l),
(531,76,o),
(440,11,o),
(320,11,cs),
(197,11,o),
(80,90,o),
(80,267,cs),
(80,275,ls),
(80,451,o),
(197,529,o),
(320,529,cs),
(440,529,o),
(560,453,o),
(550,279,c),
(70,279,l)
);
}
);
width = 628;
},
{
anchors = (
{
name = bottom;
pos = (308,-7);
},
{
name = ogonek;
pos = (403,8);
},
{
name = top;
pos = (308,571);
}
);
guides = (
{
pos = (789,-221);
}
);
layerId = "A69CC389-2ECF-459C-A4E4-3168912CA6B4";
shapes = (
{
closed = 1;
nodes = (
(216,243,l),
(593,243,l),
(595,257,o),
(596,273,o),
(596,287,c),
(596,464,o),
(477,571,o),
(308,571,c),
(139,571,o),
(20,462,o),
(20,282,c),
(20,102,o),
(139,-7,o),
(308,-7,cs),
(450,-7,o),
(560,83,o),
(584,203,c),
(349,203,l),
(341,186,o),
(326,170,o),
(297,170,cs),
(264,170,o),
(236,189,o),
(236,258,cs),
(236,311,ls),
(236,370,o),
(263,397,o),
(308,397,c),
(341,397,o),
(371,379,o),
(371,340,c),
(216,340,l)
);
}
);
width = 616;
},
{
anchors = (
{
name = bottom;
pos = (309,0);
},
{
name = ogonek;
pos = (418,14);
},
{
name = top;
pos = (309,551);
}
);
layerId = "4D0F633C-81E1-4D6C-A640-637CE706A5C5";
shapes = (
{
closed = 1;
nodes = (
(135,233,l),
(576,233,l),
(579,252,o),
(580,270,o),
(580,289,cs),
(580,451,o),
(469,560,o),
(312,560,cs),
(149,560,o),
(37,449,o),
(37,276,cs),
(37,103,o),
(154,-9,o),
(312,-9,cs),
(447,-9,o),
(534,68,o),
(565,164,c),
(442,164,l),
(421,121,o),
(382,87,o),
(312,87,cs),
(223,87,o),
(154,150,o),
(154,251,cs),
(154,295,ls),
(154,400,o),
(221,464,o),
(307,464,cs),
(392,464,o),
(459,410,o),
(461,325,c),
(136,325,l)
);
}
);
width = 617;
},
{
anchors = (
{
name = bottom;
pos = (266,0);
},
{
name = ogonek;
pos = (383,12);
},
{
name = top;
pos = (362,540);
}
);
layerId = "A74DA284-3E8B-4DB3-928B-2F0253F1CAB3";
shapes = (
{
closed = 1;
nodes = (
(68,261,l),
(565,261,l),
(570,279,o),
(571,289,o),
(576,315,cs),
(596,428,o),
(534,547,o),
(369,547,cs),
(219,547,o),
(91,444,o),
(60,270,c),
(29,96,o),
(121,-7,o),
(271,-7,cs),
(411,-7,o),
(515,72,o),
(553,183,c),
(533,183,l),
(497,76,o),
(394,11,o),
(274,11,cs),
(151,11,o),
(48,90,o),
(79,267,cs),
(81,275,ls),
(112,451,o),
(243,529,o),
(366,529,cs),
(486,529,o),
(592,453,o),
(552,279,c),
(72,279,l)
);
}
);
width = 628;
},
{
anchors = (
{
name = bottom;
pos = (257,0);
},
{
name = ogonek;
pos = (369,14);
},
{
name = top;
pos = (354,551);
}
);
layerId = "ED744E86-D388-498D-94EB-FEBBBDC8F1CA";
shapes = (
{
closed = 1;
nodes = (
(125,237,l),
(566,237,l),
(572,256,o),
(577,274,o),
(580,291,cs),
(608,451,o),
(516,560,o),
(359,560,cs),
(196,560,o),
(65,449,o),
(34,276,cs),
(3,103,o),
(101,-9,o),
(259,-9,cs),
(394,-9,o),
(494,68,o),
(542,164,c),
(419,164,l),
(391,121,o),
(346,87,o),
(276,87,cs),
(187,87,o),
(129,150,o),
(147,251,cs),
(154,295,ls),
(173,400,o),
(251,464,o),
(337,464,cs),
(422,464,o),
(480,410,o),
(466,319,c),
(141,319,l)
);
}
);
width = 617;
},
{
anchors = (
{
name = bottom;
pos = (257,-7);
},
{
name = ogonek;
pos = (355,8);
},
{
name = top;
pos = (372,564);
}
);
guides = (
{
pos = (612,-221);
}
);
layerId = "15935870-0A58-425A-9765-D144975D2C89";
shapes = (
{
closed = 1;
nodes = (
(209,243,l),
(586,243,l),
(591,257,o),
(594,273,o),
(597,287,c),
(628,464,o),
(528,571,o),
(359,571,c),
(190,571,o),
(52,462,o),
(20,282,c),
(-12,102,o),
(88,-7,o),
(257,-7,cs),
(399,-7,o),
(525,83,o),
(570,203,c),
(335,203,l),
(324,186,o),
(306,170,o),
(277,170,cs),
(244,170,o),
(220,189,o),
(232,258,cs),
(241,311,ls),
(252,370,o),
(283,397,o),
(328,397,c),
(361,397,o),
(388,379,o),
(380,334,c),
(225,334,l)
);
}
);
width = 616;
}
);
unicode = 101;
userData = {
com.schriftgestaltung.Glyphs.ColorIndex = 4;
com.typemytype.robofont.layerData = {
b = {
anchors = (
{
name = top;
x = 314;
y = 540;
},
{
name = ogonek;
x = 442;
y = 45;
},
{
name = bottom;
x = 314;
y = 0;
}
);
components = (
);
contours = (
{
points = (
{
segmentType = line;
smooth = 0;
x = 54;
y = 261;
},
{
segmentType = line;
smooth = 0;
x = 564;
y = 261;
},
{
smooth = 0;
x = 567;
y = 280;
},
{
smooth = 0;
x = 568;
y = 298;
},
{
segmentType = curve;
smooth = 1;
x = 568;
y = 315;
},
{
smooth = 0;
x = 568;
y = 434;
},
{
smooth = 0;
x = 482;
y = 552;
},
{
segmentType = curve;
smooth = 1;
x = 330;
y = 552;
},
{
smooth = 0;
x = 164;
y = 552;
},
{
smooth = 0;
x = 60;
y = 438;
},
{
segmentType = curve;
smooth = 1;
x = 60;
y = 270;
},
{
smooth = 0;
x = 60;
y = 103;
},
{
smooth = 0;
x = 164;
y = -12;
},
{
segmentType = curve;
smooth = 1;
x = 316;
y = -12;
},
{
smooth = 0;
x = 451;
y = -12;
},
{
smooth = 0;
x = 516;
y = 66;
},
{
segmentType = curve;
smooth = 0;
x = 548;
y = 137;
},
{
segmentType = line;
smooth = 0;
x = 528;
y = 137;
},
{
smooth = 0;
x = 505;
y = 60;
},
{
smooth = 0;
x = 424;
y = -1;
},
{
segmentType = curve;
smooth = 1;
x = 316;
y = -1;
},
{
smooth = 0;
x = 186;
y = -1;
},
{
smooth = 0;
x = 81;
y = 93;
},
{
segmentType = curve;
smooth = 1;
x = 81;
y = 269;
},
{
segmentType = line;
smooth = 1;
x = 81;
y = 274;
},
{
smooth = 0;
x = 81;
y = 447;
},
{
smooth = 0;
x = 183;
y = 541;
},
{
segmentType = curve;
smooth = 1;
x = 316;
y = 541;
},
{
smooth = 0;
x = 448;
y = 541;
},
{
smooth = 0;
x = 551;
y = 448;
},
{
segmentType = curve;
smooth = 0;
x = 549;
y = 290;
},
{
segmentType = line;
smooth = 0;
x = 53;
y = 290;
}
);
}
);
lib = {
};
name = e;
unicodes = (
);
width = 628;
};
};
com.typesupply.AccentFactory.yCoordinates = {
bottom = {
name = origin;
type = glyphMetric;
};
top = {
name = xHeight;
type = fontInfo;
};
};
};
}
{
glyphname = f;
layers = (
{
layerId = "57B79CA8-97D8-4C58-BF53-6BAB6214BDE2";
shapes = (
{
closed = 1;
nodes = (
(108,0,l),
(128,0,l),
(128,578,ls),
(128,675,o),
(164,720,o),
(283,720,c),
(283,740,l),
(152,740,o),
(108,683,o),
(108,578,cs)
);
},
{
closed = 1;
nodes = (
(20,519,l),
(283,519,l),
(283,540,l),
(20,540,l)
);
}
);
width = 318;
},
{
layerId = "A69CC389-2ECF-459C-A4E4-3168912CA6B4";
shapes = (
{
closed = 1;
nodes = (
(70,0,l),
(292,0,l),
(292,539,ls),
(292,595,o),
(314,611,o),
(375,604,c),
(375,793,l),
(182,810,o),
(70,722,o),
(70,559,cs)
);
},
{
closed = 1;
nodes = (
(10,379,l),
(375,379,l),
(375,564,l),
(10,564,l)
);
}
);
width = 385;
},
{
layerId = "4D0F633C-81E1-4D6C-A640-637CE706A5C5";
shapes = (
{
closed = 1;
nodes = (
(89,0,l),
(204,0,l),
(204,590,ls),
(204,653,o),
(228,677,o),
(298,677,c),
(298,772,l),
(154,772,o),
(89,717,o),
(89,590,cs)
);
},
{
closed = 1;
nodes = (
(24,458,l),
(306,458,l),
(306,551,l),
(24,551,l)
);
}
);
width = 332;
},
{
layerId = "A74DA284-3E8B-4DB3-928B-2F0253F1CAB3";
shapes = (
{
closed = 1;
nodes = (
(60,0,l),
(80,0,l),
(182,578,ls),
(199,675,o),
(243,720,o),
(362,720,c),
(366,740,l),
(235,740,o),
(181,683,o),
(162,578,cs)
);
},
{
closed = 1;
nodes = (
(64,519,l),
(327,519,l),
(331,540,l),
(68,540,l)
);
}
);
width = 318;
},
{
layerId = "ED744E86-D388-498D-94EB-FEBBBDC8F1CA";
shapes = (
{
closed = 1;
nodes = (
(37,0,l),
(152,0,l),
(256,590,ls),
(267,653,o),
(296,677,o),
(366,677,c),
(382,772,l),
(238,772,o),
(164,717,o),
(141,590,cs)
);
},
{
closed = 1;
nodes = (
(53,458,l),
(335,458,l),
(351,551,l),
(69,551,l)
);
}
);
width = 332;
},
{
layerId = "15935870-0A58-425A-9765-D144975D2C89";
shapes = (
{
closed = 1;
nodes = (
(20,0,l),
(242,0,l),
(337,539,ls),
(347,595,o),
(372,611,o),
(432,604,c),
(465,793,l),
(275,810,o),
(148,722,o),
(119,559,cs)
);
},
{
closed = 1;
nodes = (
(27,379,l),
(392,379,l),
(425,564,l),
(60,564,l)
);
}
);
width = 385;
}
);
unicode = 102;
userData = {
com.schriftgestaltung.Glyphs.ColorIndex = 4;
com.typemytype.robofont.layerData = {
b = {
anchors = (
);
components = (
);
contours = (
{
points = (
{
segmentType = line;
smooth = 0;
x = 108;
y = 0;
},
{
segmentType = line;
smooth = 0;
x = 128;
y = 0;
},
{
segmentType = line;
smooth = 1;
x = 128;
y = 609;
},
{
smooth = 0;
x = 128;
y = 701;
},
{
smooth = 0;
x = 162;
y = 742;
},
{
segmentType = curve;
smooth = 0;
x = 275;
y = 742;
},
{
segmentType = line;
smooth = 0;
x = 275;
y = 753;
},
{
smooth = 0;
x = 158;
y = 753;
},
{
smooth = 0;
x = 108;
y = 711;
},
{
segmentType = curve;
smooth = 1;
x = 108;
y = 609;
}
);
}
);
lib = {
};
name = f;
unicodes = (
);
width = 318;
};
};
com.typesupply.AccentFactory.yCoordinates = {
bottom = {
name = origin;
type = glyphMetric;
};
top = {
name = ascender;
type = fontInfo;
};
};
};
}
{
glyphname = g;
layers = (
{
anchors = (
{
name = top;
pos = (339,540);
}
);
layerId = "57B79CA8-97D8-4C58-BF53-6BAB6214BDE2";
shapes = (
{
closed = 1;
nodes = (
(168,547,o),
(60,442,o),
(60,270,c),
(60,98,o),
(168,-7,o),
(323,-7,c),
(452,-7,o),
(539,69,o),
(567,164,c),
(567,-20,l),
(567,-159,o),
(470,-246,o),
(347,-246,cs),
(222,-246,o),
(145,-181,o),
(116,-88,c),
(96,-88,l),
(127,-192,o),
(213,-264,o),
(347,-264,cs),
(472,-264,o),
(586,-176,o),
(586,-20,c),
(586,540,l),
(567,540,l),
(567,377,l),
(539,471,o),
(452,547,o),
(323,547,c)
);
},
{
closed = 1;
nodes = (
(567,270,c),
(567,114,o),
(464,11,o),
(323,11,c),
(175,11,o),
(80,109,o),
(80,270,c),
(80,431,o),
(175,529,o),
(323,529,c),
(464,529,o),
(567,426,o)
);
}
);
width = 671;
},
{
anchors = (
{
name = top;
pos = (347,564);
}
);
layerId = "A69CC389-2ECF-459C-A4E4-3168912CA6B4";
shapes = (
{
closed = 1;
nodes = (
(123,571,o),
(20,464,o),
(20,282,c),
(20,100,o),
(123,-7,o),
(253,-7,c),
(328,-7,o),
(382,26,o),
(409,77,c),
(409,10,l),
(409,-69,o),
(371,-85,o),
(326,-85,cs),
(285,-85,o),
(260,-70,o),
(254,-41,c),
(36,-41,l),
(51,-184,o),
(158,-277,o),
(342,-277,cs),
(553,-277,o),
(630,-139,o),
(630,10,c),
(630,564,l),
(409,564,l),
(409,487,l),
(382,538,o),
(328,571,o),
(253,571,c)
);
},
{
closed = 1;
nodes = (
(409,282,c),
(409,220,o),
(373,187,o),
(327,187,c),
(281,187,o),
(245,220,o),
(245,282,c),
(245,344,o),
(281,377,o),
(327,377,c),
(373,377,o),
(409,344,o)
);
}
);
width = 680;
},
{
anchors = (
{
name = top;
pos = (339,551);
}
);
background = {
shapes = (
{
closed = 1;
nodes = (
(152,560,o),
(37,448,o),
(37,278,cs),
(37,108,o),
(152,-9,o),
(297,-9,cs),
(387,-9,o),
(453,39,o),
(488,103,c),
(488,-9,ls),
(488,-119,o),
(422,-173,o),
(334,-173,cs),
(255,-173,o),
(194,-134,o),
(177,-77,c),
(64,-77,l),
(78,-199,o),
(187,-272,o),
(334,-272,cs),
(506,-272,o),
(603,-159,o),
(603,-9,cs),
(603,551,l),
(488,551,l),
(488,453,l),
(454,514,o),
(387,560,o),
(297,560,cs)
);
},
{
closed = 1;
nodes = (
(488,276,cs),
(488,157,o),
(407,90,o),
(321,90,cs),
(236,90,o),
(154,159,o),
(154,278,cs),
(154,397,o),
(236,461,o),
(321,461,cs),
(407,461,o),
(488,394,o)
);
}
);
};
layerId = "4D0F633C-81E1-4D6C-A640-637CE706A5C5";
shapes = (
{
closed = 1;
nodes = (
(152,560,o),
(37,448,o),
(37,278,cs),
(37,108,o),
(152,-9,o),
(297,-9,cs),
(387,-9,o),
(453,36,o),
(488,83,c),
(488,-9,ls),
(488,-119,o),
(422,-173,o),
(334,-173,cs),
(255,-173,o),
(194,-134,o),
(177,-77,c),
(64,-77,l),
(78,-199,o),
(187,-272,o),
(334,-272,cs),
(506,-272,o),
(603,-159,o),
(603,-9,cs),
(603,551,l),
(488,551,l),
(488,471,l),
(454,518,o),
(387,560,o),
(297,560,cs)
);
},
{
closed = 1;
nodes = (
(488,276,cs),
(488,157,o),
(407,90,o),
(321,90,cs),
(236,90,o),
(154,159,o),
(154,278,cs),
(154,397,o),
(236,461,o),
(321,461,cs),
(407,461,o),
(488,394,o)
);
}
);
width = 678;
},
{
anchors = (
{
name = top;
pos = (387,540);
}
);
layerId = "A74DA284-3E8B-4DB3-928B-2F0253F1CAB3";
shapes = (
{
closed = 1;
nodes = (
(217,547,o),
(90,442,o),
(60,270,c),
(30,98,o),
(119,-7,o),
(274,-7,c),
(403,-7,o),
(504,69,o),
(548,164,c),
(516,-20,l),
(491,-159,o),
(379,-246,o),
(256,-246,cs),
(131,-246,o),
(65,-181,o),
(53,-88,c),
(33,-88,l),
(46,-192,o),
(119,-264,o),
(253,-264,cs),
(378,-264,o),
(507,-176,o),
(535,-20,c),
(634,540,l),
(615,540,l),
(586,377,l),
(574,471,o),
(501,547,o),
(372,547,c)
);
},
{
closed = 1;
nodes = (
(567,270,c),
(539,114,o),
(418,11,o),
(277,11,c),
(129,11,o),
(52,109,o),
(80,270,c),
(108,431,o),
(221,529,o),
(369,529,c),
(510,529,o),
(595,426,o)
);
}
);
width = 671;
},
{
anchors = (
{
name = top;
pos = (384,551);
}
);
background = {
shapes = (
{
closed = 1;
nodes = (
(152,560,o),
(37,448,o),
(37,278,cs),
(37,108,o),
(152,-9,o),
(297,-9,cs),
(387,-9,o),
(453,39,o),
(488,103,c),
(488,-9,ls),
(488,-119,o),
(422,-173,o),
(334,-173,cs),
(255,-173,o),
(194,-134,o),
(177,-77,c),
(64,-77,l),
(78,-199,o),
(187,-272,o),
(334,-272,cs),
(506,-272,o),
(603,-159,o),
(603,-9,cs),
(603,551,l),
(488,551,l),
(488,453,l),
(454,514,o),
(387,560,o),
(297,560,cs)
);
},
{
closed = 1;
nodes = (
(488,276,cs),
(488,157,o),
(407,90,o),
(321,90,cs),
(236,90,o),
(154,159,o),
(154,278,cs),
(154,397,o),
(236,461,o),
(321,461,cs),
(407,461,o),
(488,394,o)
);
}
);
};
layerId = "ED744E86-D388-498D-94EB-FEBBBDC8F1CA";
shapes = (
{
closed = 1;
nodes = (
(199,560,o),
(64,448,o),
(34,278,cs),
(4,108,o),
(99,-9,o),
(244,-9,cs),
(334,-9,o),
(408,36,o),
(451,83,c),
(435,-9,ls),
(415,-119,o),
(340,-173,o),
(252,-173,cs),
(173,-173,o),
(119,-134,o),
(112,-77,c),
(-1,-77,l),
(-9,-199,o),
(87,-272,o),
(234,-272,cs),
(406,-272,o),
(523,-159,o),
(550,-9,cs),
(648,551,l),
(533,551,l),
(519,471,l),
(494,518,o),
(434,560,o),
(344,560,cs)
);
},
{
closed = 1;
nodes = (
(485,276,cs),
(464,157,o),
(371,90,o),
(285,90,cs),
(200,90,o),
(130,159,o),
(151,278,cs),
(172,397,o),
(266,461,o),
(351,461,cs),
(437,461,o),
(506,394,o)
);
}
);
width = 678;
},
{
anchors = (
{
name = top;
pos = (397,564);
}
);
layerId = "15935870-0A58-425A-9765-D144975D2C89";
shapes = (
{
closed = 1;
nodes = (
(174,571,o),
(52,464,o),
(20,282,c),
(-12,100,o),
(72,-7,o),
(202,-7,c),
(277,-7,o),
(337,26,o),
(373,77,c),
(361,10,l),
(347,-69,o),
(306,-85,o),
(261,-85,cs),
(220,-85,o),
(198,-70,o),
(197,-41,c),
(-21,-41,l),
(-31,-184,o),
(59,-277,o),
(243,-277,cs),
(454,-277,o),
(556,-139,o),
(582,10,c),
(680,564,l),
(459,564,l),
(445,487,l),
(427,538,o),
(379,571,o),
(304,571,c)
);
},
{
closed = 1;
nodes = (
(409,282,c),
(398,220,o),
(356,187,o),
(310,187,c),
(264,187,o),
(234,220,o),
(245,282,c),
(256,344,o),
(298,377,o),
(344,377,c),
(390,377,o),
(420,344,o)
);
}
);
width = 680;
}
);
unicode = 103;
userData = {
com.schriftgestaltung.Glyphs.ColorIndex = 4;
com.typesupply.AccentFactory.yCoordinates = {
top = {
name = xHeight;
type = fontInfo;
};
};
};
}
{
glyphname = h;
layers = (
{
background = {
shapes = (
{
closed = 1;
nodes = (
(85,0,l),
(105,0,l),
(105,740,l),
(85,740,l)
);
},
{
closed = 1;
nodes = (
(515,0,l),
(534,0,l),
(534,315,ls),
(534,482,o),
(435,552,o),
(317,552,c),
(207,552,o),
(102,485,o),
(97,325,c),
(105,287,l),
(105,456,o),
(194,534,o),
(317,534,c),
(436,534,o),
(515,461,o),
(515,317,cs)
);
}
);
};
layerId = "57B79CA8-97D8-4C58-BF53-6BAB6214BDE2";
shapes = (
{
closed = 1;
nodes = (
(85,0,l),
(105,0,l),
(105,740,l),
(85,740,l)
);
},
{
closed = 1;
nodes = (
(515,0,l),
(534,0,l),
(534,315,ls),
(534,482,o),
(435,552,o),
(317,552,c),
(199,552,o),
(103,484,o),
(97,340,c),
(105,287,l),
(105,456,o),
(194,534,o),
(317,534,c),
(436,534,o),
(515,461,o),
(515,317,cs)
);
}
);
width = 614;
},
{
layerId = "A69CC389-2ECF-459C-A4E4-3168912CA6B4";
shapes = (
{
closed = 1;
nodes = (
(50,0,l),
(272,0,l),
(272,740,l),
(50,740,l)
);
},
{
closed = 1;
nodes = (
(430,0,l),
(651,0,l),
(651,327,ls),
(651,473,o),
(575,568,o),
(445,568,cs),
(345,568,o),
(284,511,o),
(257,451,c),
(272,299,l),
(272,353,o),
(302,386,o),
(351,386,cs),
(399,386,o),
(430,353,o),
(430,299,cs)
);
}
);
width = 697;
},
{
background = {
shapes = (
{
closed = 1;
nodes = (
(75,0,l),
(189,0,l),
(189,740,l),
(75,740,l)
);
},
{
closed = 1;
nodes = (
(466,0,l),
(579,0,l),
(579,325,ls),
(579,479,o),
(483,560,o),
(360,560,cs),
(266,560,o),
(187,510,o),
(165,426,c),
(189,308,l),
(189,409,o),
(244,461,o),
(328,461,cs),
(411,461,o),
(466,409,o),
(466,308,cs)
);
}
);
};
layerId = "4D0F633C-81E1-4D6C-A640-637CE706A5C5";
shapes = (
{
closed = 1;
nodes = (
(75,0,l),
(189,0,l),
(189,740,l),
(75,740,l)
);
},
{
closed = 1;
nodes = (
(466,0,l),
(579,0,l),
(579,325,ls),
(579,479,o),
(483,560,o),
(360,560,cs),
(264,560,o),
(183,510,o),
(159,432,c),
(189,308,l),
(189,409,o),
(244,461,o),
(328,461,cs),
(411,461,o),
(466,409,o),
(466,308,cs)
);
}
);
width = 649;
},
{
associatedMasterId = "57B79CA8-97D8-4C58-BF53-6BAB6214BDE2";
background = {
shapes = (
{
closed = 1;
nodes = (
(85,0,l),
(105,0,l),
(105,740,l),
(85,740,l)
);
},
{
closed = 1;
nodes = (
(515,0,l),
(534,0,l),
(534,315,ls),
(534,482,o),
(435,552,o),
(317,552,c),
(207,552,o),
(102,485,o),
(97,325,c),
(105,287,l),
(105,456,o),
(194,534,o),
(317,534,c),
(436,534,o),
(515,461,o),
(515,317,cs)
);
}
);
};
layerId = "93D89394-1ADE-46CC-9695-027573DA595B";
name = "Sep 19 17, 16:50";
shapes = (
{
closed = 1;
nodes = (
(85,0,l),
(105,0,l),
(105,740,l),
(85,740,l)
);
},
{
closed = 1;
nodes = (
(515,0,l),
(534,0,l),
(534,315,ls),
(534,482,o),
(435,552,o),
(317,552,c),
(207,552,o),
(99,486,o),
(96,333,c),
(105,287,l),
(105,456,o),
(194,534,o),
(317,534,c),
(436,534,o),
(515,461,o),
(515,317,cs)
);
}
);
width = 614;
},
{
background = {
shapes = (
{
closed = 1;
nodes = (
(85,0,l),
(105,0,l),
(105,740,l),
(85,740,l)
);
},
{
closed = 1;
nodes = (
(515,0,l),
(534,0,l),
(534,315,ls),
(534,482,o),
(435,552,o),
(317,552,c),
(207,552,o),
(102,485,o),
(97,325,c),
(105,287,l),
(105,456,o),
(194,534,o),
(317,534,c),
(436,534,o),
(515,461,o),
(515,317,cs)
);
}
);
};
layerId = "A74DA284-3E8B-4DB3-928B-2F0253F1CAB3";
shapes = (
{
closed = 1;
nodes = (
(37,0,l),
(57,0,l),
(188,740,l),
(168,740,l)
);
},
{
closed = 1;
nodes = (
(467,0,l),
(486,0,l),
(542,315,ls),
(571,482,o),
(485,552,o),
(367,552,c),
(249,552,o),
(141,484,o),
(109,340,c),
(108,287,l),
(138,456,o),
(241,534,o),
(364,534,c),
(483,534,o),
(549,461,o),
(523,317,cs)
);
}
);
width = 614;
},
{
background = {
shapes = (
{
closed = 1;
nodes = (
(75,0,l),
(189,0,l),
(189,740,l),
(75,740,l)
);
},
{
closed = 1;
nodes = (
(466,0,l),
(579,0,l),
(579,325,ls),
(579,479,o),
(483,560,o),
(360,560,cs),
(266,560,o),
(187,510,o),
(165,426,c),
(189,308,l),
(189,409,o),
(244,461,o),
(328,461,cs),
(411,461,o),
(466,409,o),
(466,308,cs)
);
}
);
};
layerId = "ED744E86-D388-498D-94EB-FEBBBDC8F1CA";
shapes = (
{
closed = 1;
nodes = (
(23,0,l),
(137,0,l),
(268,740,l),
(154,740,l)
);
},
{
closed = 1;
nodes = (
(414,0,l),
(527,0,l),
(585,325,ls),
(612,479,o),
(530,560,o),
(407,560,cs),
(311,560,o),
(221,510,o),
(184,432,c),
(192,308,l),
(209,409,o),
(274,461,o),
(358,461,cs),
(441,461,o),
(486,409,o),
(469,308,cs)
);
}
);
width = 649;
},
{
layerId = "15935870-0A58-425A-9765-D144975D2C89";
shapes = (
{
closed = 1;
nodes = (
(0,0,l),
(222,0,l),
(353,740,l),
(131,740,l)
);
},
{
closed = 1;
nodes = (
(380,0,l),
(601,0,l),
(659,327,ls),
(685,473,o),
(625,568,o),
(495,568,cs),
(395,568,o),
(324,511,o),
(287,451,c),
(275,299,l),
(285,353,o),
(320,386,o),
(369,386,cs),
(417,386,o),
(443,353,o),
(433,299,cs)
);
}
);
width = 697;
}
);
unicode = 104;
userData = {
com.schriftgestaltung.Glyphs.ColorIndex = 4;
com.typesupply.AccentFactory.yCoordinates = {
bottom = {
name = origin;
type = glyphMetric;
};
top = {
name = ascender;
type = fontInfo;
};
};
};
}
{
glyphname = i;
layers = (
{
anchors = (
{
name = ogonek;
pos = (105,0);
}
);
layerId = "57B79CA8-97D8-4C58-BF53-6BAB6214BDE2";
shapes = (
{
closed = 1;
nodes = (
(85,0,l),
(105,0,l),
(105,540,l),
(85,540,l)
);
},
{
closed = 1;
nodes = (
(95,678,c),
(109,678,o),
(121,688,o),
(121,705,cs),
(121,722,o),
(109,732,o),
(95,732,c),
(81,732,o),
(69,722,o),
(69,705,cs),
(69,688,o),
(81,678,o)
);
}
);
width = 190;
},
{
anchors = (
{
name = ogonek;
pos = (272,-1);
}
);
layerId = "A69CC389-2ECF-459C-A4E4-3168912CA6B4";
shapes = (
{
closed = 1;
nodes = (
(50,0,l),
(272,0,l),
(272,564,l),
(50,564,l)
);
},
{
closed = 1;
nodes = (
(162,609,cs),
(240,609,o),
(289,657,o),
(289,718,cs),
(289,780,o),
(240,829,o),
(162,829,cs),
(83,829,o),
(34,780,o),
(34,718,cs),
(34,657,o),
(83,609,o)
);
}
);
width = 322;
},
{
anchors = (
{
name = ogonek;
pos = (189,1);
}
);
layerId = "4D0F633C-81E1-4D6C-A640-637CE706A5C5";
shapes = (
{
closed = 1;
nodes = (
(75,0,l),
(189,0,l),
(189,551,l),
(75,551,l)
);
},
{
closed = 1;
nodes = (
(133,624,cs),
(173,624,o),
(205,656,o),
(205,697,cs),
(205,738,o),
(173,770,o),
(133,770,cs),
(92,770,o),
(60,738,o),
(60,697,cs),
(60,656,o),
(92,624,o)
);
}
);
width = 264;
},
{
anchors = (
{
name = ogonek;
pos = (57,0);
}
);
layerId = "A74DA284-3E8B-4DB3-928B-2F0253F1CAB3";
shapes = (
{
closed = 1;
nodes = (
(37,0,l),
(57,0,l),
(153,540,l),
(133,540,l)
);
},
{
closed = 1;
nodes = (
(167,678,c),
(181,678,o),
(195,688,o),
(198,705,cs),
(201,722,o),
(190,732,o),
(176,732,c),
(162,732,o),
(149,722,o),
(146,705,cs),
(143,688,o),
(153,678,o)
);
}
);
width = 190;
},
{
anchors = (
{
name = ogonek;
pos = (138,1);
}
);
layerId = "ED744E86-D388-498D-94EB-FEBBBDC8F1CA";
shapes = (
{
closed = 1;
nodes = (
(23,0,l),
(137,0,l),
(234,551,l),
(120,551,l)
);
},
{
closed = 1;
nodes = (
(191,624,cs),
(231,624,o),
(269,656,o),
(276,697,cs),
(283,738,o),
(257,770,o),
(217,770,cs),
(176,770,o),
(138,738,o),
(131,697,cs),
(124,656,o),
(150,624,o)
);
}
);
width = 264;
},
{
anchors = (
{
name = ogonek;
pos = (222,-1);
}
);
layerId = "15935870-0A58-425A-9765-D144975D2C89";
shapes = (
{
closed = 1;
nodes = (
(0,0,l),
(222,0,l),
(322,564,l),
(100,564,l)
);
},
{
closed = 1;
nodes = (
(220,609,cs),
(298,609,o),
(355,657,o),
(366,718,cs),
(377,780,o),
(336,829,o),
(258,829,cs),
(179,829,o),
(122,780,o),
(111,718,cs),
(100,657,o),
(141,609,o)
);
}
);
width = 322;
}
);
unicode = 105;
userData = {
com.schriftgestaltung.Glyphs.ColorIndex = 4;
com.typemytype.robofont.guides = (
{
angle = 0;
isGlobal = 0;
magnetic = 5;
x = 82;
y = 540;
}
);
com.typesupply.AccentFactory.yCoordinates = {
bottom = {
name = origin;
type = glyphMetric;
};
};
};
}
